<?xml version="1.0" standalone="no"?>
<!DOCTYPE svg PUBLIC "-//W3C//DTD SVG 1.1//EN" "http://www.w3.org/Graphics/SVG/1.1/DTD/svg11.dtd" >
<svg xmlns="http://www.w3.org/2000/svg" xmlns:xlink="http://www.w3.org/1999/xlink" version="1.1">
<metadata>
Created by FontForge 20161003 at Wed Jan 24 07:54:06 2018
 By www-data
Copyright (c) GM, 2001. Dedicated to Mike See / DJ Robey
</metadata>
<defs>
<font id="GenericFont" horiz-adv-x="982" >
  <font-face 
    font-family="GenericFont"
    font-weight="400"
    font-stretch="normal"
    units-per-em="1168"
    panose-1="0 0 4 0 0 0 0 0 0 0"
    ascent="934"
    descent="-234"
    x-height="504"
    cap-height="757"
    bbox="-388 -248.409 2626 952.474"
    underline-thickness="18"
    underline-position="-149"
    unicode-range="U+0020-F002"
  />
<missing-glyph horiz-adv-x="584" 
d="M73 0v936h438v-936h-438zM146 73h292v790h-292v-790z" />
    <glyph glyph-name=".notdef" horiz-adv-x="584" 
d="M73 0v936h438v-936h-438zM146 73h292v790h-292v-790z" />
    <glyph glyph-name=".null" horiz-adv-x="0" 
 />
    <glyph glyph-name="nonmarkingreturn" horiz-adv-x="600" 
 />
    <glyph glyph-name="space" unicode=" " horiz-adv-x="600" 
 />
    <glyph glyph-name="exclam" unicode="!" horiz-adv-x="490" 
d="M303 186q-52 0 -105 -5q-9 -1 -13.5 4t-3.5 13q47 235 89 537q3 22 24 18q53 -11 107 -11q55 0 110 12q10 2 15 -3t3 -15q-55 -243 -101 -538q-3 -19 -22 -17q-51 5 -103 5zM309 221q44 0 87 -4q43 274 94 499q-48 -8 -95 -8t-93 7q-39 -280 -82 -498q45 4 89 4zM397 12
q-17 -12 -52 -16q-25 -3 -67 -1q-64 2 -60 2q-23 0 -46 1q-38 -3 -38 42q0 8 2 16q11 39 40 56q21 13 65 20q27 5 55 5q132 0 125 -80q1 -28 -24 -45zM381 39q5 4 5 11v2q1 46 -102 49q-84 2 -103 -26q-8 -11 -10 -23q-5 -13 3 -19h2h3q23 -2 46 -2q47 0 136 1q10 1 20 7z
" />
    <glyph glyph-name="quotedbl" unicode="&#x22;" horiz-adv-x="490" 
d="M594 596q-29 -31 -57 -64q-13 -15 -26 -4q-18 17 -59 67q-46 57 -44 70q8 46 10 54q11 40 28 40l117 2q57 1 117 3q17 1 17 -12q0 -5 -4 -12q-23 -36 -32 -74q-28 -30 -67 -70zM628 674q8 28 21 55q-47 -2 -92 -2l-101 -2q-7 -26 -12 -53q25 -37 81 -104q54 62 103 106z
M270 590q-36 -33 -76 -62q-16 -11 -24 4q-22 42 -74 123l-3 48q0 3 -2.5 16.5t-2.5 21.5q0 24 21 23q59 -2 117 -3q7 0 33 1.5t41 1.5q59 0 56 -21q-3 -26 -10 -78q-2 -7 -76 -75zM248 613l64 59q3 16 7 53l-100 2q-45 0 -92 2q3 -25 2 -54q14 -19 64 -108q29 22 55 46z" />
    <glyph glyph-name="numbersign" unicode="#" horiz-adv-x="1234" 
d="M1064 362q-29 0 -83 -1h-82q-6 -9 -17 -25l-5 -9h74q47 -1 75 -1q13 0 13 -13q0 -15 -14.5 -37t-25.5 -21q-85 1 -165 1q-20 -35 -38 -71q-6 -13 -37 -13l-42 2h-61q-15 0 -15 11q0 5 29 54l10 18h-117q-17 -25 -35 -49q-27 -35 -39 -35q-62 0 -126 -2q-17 -1 -17 9
t18 33l24 26l13 16q-66 0 -160 -1q-15 -1 -15 11q0 14 20 37.5t29 23.5q21 0 89 1q55 1 89 1q5 9 14 23l6 10h-68q-48 0 -96 1q-13 0 -13 13q0 15 14 36t23 20q92 -1 181 -1l28 48q21 34 33 34h128q16 0 16 -10q0 -6 -32 -56l-12 -17h117q60 84 77 84q59 0 121 2q17 1 17 -9
t-20 -33q-12 -13 -25 -26l-13 -16q49 0 146 1q17 1 17 -9q0 -3 -17.5 -32t-30.5 -29zM340 396q36 -1 71 -1h96q13 0 13 -11q0 -12 -45 -81q-6 -11 -18 -10h-89q-78 -1 -89 -1l-2 -3q81 1 161 1q15 0 15 -10q0 -14 -50 -74l29 1h54q18 25 36 49q26 35 38 35h153q15 0 15 -11
q0 -5 -29 -54q-5 -9 -10 -17q65 0 82 -1q42 83 57 83q83 0 166 -1l1 2h-76q-48 1 -75 1q-14 0 -14 11q0 13 24.5 52t39.5 39q28 0 83 1h82q6 10 21 30l9 -28q-59 -1 -178 -2q-16 -1 -16 10q0 14 53 73h-24h-52q-32 -37 -58 -75q-8 -11 -95 -10q-39 1 -77 1q-15 0 -15 11
q0 10 41 71h-87l-28 -48q-22 -34 -34 -34q-90 0 -179 1v0zM633 359l-21 -32h114q11 17 21 32h-114zM628 394h153q15 0 15 -12q0 -6 -4 -12q-21 -34 -44 -68q-7 -9 -17 -9h-152q-16 0 -16 10q0 8 26.5 49.5t38.5 41.5z" />
    <glyph glyph-name="dollar" unicode="$" 
d="M712 724q134 3 235 13q17 2 17 -19q0 -13 -7 -35q-4 -11 -8 -21q-14 -72 -34 -72q-6 0 -18.5 -1t-18.5 -1q-8 0 -16.5 20.5t-46.5 25.5q-14 1 -26 2q-46 -3 -273 -3q-10 -66 -33 -198h83q176 0 158 1q118 -4 148 -28q20 -17 16 -35q-28 -160 -44 -306q-6 -55 -126 -55
q-3 0 -57 3q-24 1 -73 2q22 -20 97 -38q13 -3 11 -17l-2 -9q0 -26 -22 -24q-185 9 -373 0q-7 -1 -11.5 4t-3.5 13l1 8q4 21 18 25q71 21 105 38q-119 -3 -240 -13q-15 -2 -15 17q0 -3 14 57q4 22 9 43q9 30 25 30q6 0 17.5 1t17.5 1q10 0 15 -17q5 -20 36.5 -27.5t96.5 -5.5
q48 2 97 4q59 1 119 0q9 60 19 119l21 119l-266 1q-146 0 -140 61l1 2q13 88 35 265l1 3q7 24 31 33q21 6 44.5 11t54.5 5q20 1 55 -1q39 -2 56 -2h24q-1 1 -63 27q-43 17 -41 30l1 8q5 26 22 25q93 -4 186 -4t188 6q7 1 12 -4t3 -13q-4 -24 -16 -31q-2 -2 -39 -12
q-27 -7 -77 -31zM744 777q-55 -2 -109 -2q-94 0 -187 4l21 21v-7q126 -47 122 -72l-3 -16q-3 -17 -36 -19q59 3 -47 3q12 0 -78 3q-48 1 -80 -5q-13 -1 -42 -13q-11 -117 -35 -264q-1 -15 48 -23q35 -7 62 -7h284q18 0 15 -17l-25 -137q-12 -68 -22 -136q-2 -19 -21 -18
q-84 2 -272 -2q-109 -3 -122 48l-6 -1q-6 -25 -19 -77q133 11 263 12q7 1 11.5 -4.5t3.5 -12.5l-3 -13q-4 -23 -84 -52l-11 -4q61 2 121 2q94 0 187 -5l-21 -20v5l-21 6q-30 7 -59 24q-39 22 -36 43l3 14q3 17 20 17q3 0 53 -2t85 -2q88 0 103 13q1 1 2 4q16 146 44 304
q-11 33 -192 33q-28 0 -63 -1h-38q-49 0 -100 -1q-8 -1 -12 4.5t-3 12.5l39 234q3 17 21 17q45 0 145 2q94 2 144 1h3q87 0 100 -48l8 1l19 76q-104 -9 -245 -11q-7 -1 -11.5 4.5t-3.5 12.5l3 16q5 29 77 55z" />
    <glyph glyph-name="percent" unicode="%" horiz-adv-x="1620" 
d="M650 406q-38 -18 -116 -18q-252 0 -152 -2q-115 2 -143 22q-18 13 -21 38v4q15 120 10 243q-2 63 115 63q14 0 33 -2q67 1 200 -6h3q27 0 79 -7q48 -11 55 -52v-5q-9 -99 -32 -237q-4 -27 -31 -41zM638 437q7 3 8 10q22 135 32 232q-7 32 -73 32q-20 0 -37 3
q-67 1 -200 6q-32 1 -58 -1q-47 -3 -46 -18q5 -126 -11 -247q6 -30 101 -32h186q69 0 98 15zM754 78q-4 -6 1 -16q6 -6 36 -12q26 -5 26 -15q0 -8 -13 -23t-21 -14q-88 -1 -265 0q-16 0 -16 12q0 6 6 14q95 123 225 316q210 312 216 321q3 4 5 10q2 20 -49 20q-15 0 -15 13
q0 12 10 24.5t20 12.5q134 0 269 3q17 1 17 -12q0 -6 -7 -14q-98 -123 -228 -316q-108 -162 -217 -324zM979 706q15 -15 10 -36l-1 -2q-4 -18 -54 -90q-33 -47 -66 -93q-107 -163 -152 -229q-87 -127 -161 -224q32 0 87 1q64 1 87 1l-3 3l-2 2q-16 29 2 55q7 10 208 310
q125 187 217 305q-101 -2 -172 -3zM1441 1q-31 -18 -107 -18q-25 0 -62 2q-42 2 -51 3q-19 0 -68 2q-44 3 -69 3q-60 0 -84 19q-21 16 -21 54q0 6 13 105q8 58 18 119l1 4q17 39 63 50q12 3 83 7h2h190q30 0 85 -9q36 -13 41 -49v-4q-18 -129 -9 -244q2 -30 -25 -44z
M1430 33q-1 60 -1 128q2 61 11 124q-6 30 -65 30q-19 0 -35 1h-186q-16 -1 -36 -1q-61 0 -74 -27q-20 -128 -30 -230q11 -31 76 -31q25 0 69 -2q50 -2 69 -3q1 0 44 -2q38 -1 66 -1q78 0 92 14zM509 660q-39 0 -78 1q-2 -92 -14 -183q19 -1 37 -1h37q13 101 18 183zM524 461
q-3 -18 -21 -18h-55q-49 0 -42 -1q-29 2 -26 18q15 107 16 217q0 22 22 20q56 -3 112 -3q16 0 15 -15q-4 -98 -21 -218zM1277 262h-74q-15 -113 -18 -182q26 0 78 -1q0 76 14 183zM1299 63q1 -9 -5.5 -15t-16.5 -5q-28 2 -56 2q-53 0 -43 -1q-29 2 -29 16q3 83 22 219
q2 19 21 18h55q36 0 53 -0.5t15 -16.5q-18 -128 -16 -217z" />
    <glyph glyph-name="ampersand" unicode="&#x26;" horiz-adv-x="1059" 
d="M401 391l12 -15q-68 3 -102 16q-53 21 -56 73v3q6 75 22 224v2q6 53 117 53q8 0 71 -4q71 -4 380 -4q126 0 126 -53v-5q-31 -111 -57 -245l-1 -4q-23 -56 -94 -74q-19 -4 -120 -12q-59 -5 -219 -3q-29 -162 -48 -259q147 2 196 2q11 63 34 188q3 17 20 17h163
q81 0 163 -1q18 0 15 -17l-3 -17q-3 -17 -21 -17q-85 0 -104 -34q-24 -166 -32 -249q9 -31 67 -43q55 -12 55 -23q1 -40 -23 -37q-185 20 -477 18q-7 -1 -11 4.5t-3 12.5l2 10q29 23 64.5 28t55.5 17q9 7 15 19q2 7 5 33q-197 0 -273 -3q-31 -2 -45 -1l-45 2q-38 4 -53 10
q-26 12 -22 41l1 3q20 91 57 274l1 3q20 53 80 71q27 8 105 11zM949 -128l-25 4q-84 15 -97 69v6q8 85 33 256l2 7q31 59 143 59l-10 -9l7 -8l-309 1q-10 -63 -34 -189q-3 -18 -20 -17q-58 0 -231 -2q-8 -1 -12 4.5t-3 12.5q23 111 55 295q3 18 21 17q279 -5 352 15
q44 13 59 45q26 134 56 244q-2 23 -97 23q-310 0 -382 4q-124 6 -144 -10q0 -2 -1 -4q-10 -143 -21 -224q2 -35 41 -48q12 -4 70 -11q35 -4 33 -19l-1 -4q-3 -16 -29 -19h-36q-82 -4 -101 -51q-27 -149 -57 -273q-1 -10 50 -19l42 -2q35 -1 93 2q74 3 95 3h145q18 0 15 -17
q-2 -18 -9 -55l-1 -3q-27 -61 -152 -68l20 21v-2q282 1 463 -19l-23 -20v5zM709 649q-109 0 -183 2q-10 -71 -31 -212q44 -1 87 -1h88q18 104 39 211zM702 421q-3 -17 -21 -17h-105q-52 0 -104 1q-17 0 -14 16q13 83 35 247q2 19 22 18q81 -3 218 -3q17 0 14 -17
q-24 -124 -45 -245z" />
    <glyph glyph-name="quotesingle" unicode="'" horiz-adv-x="490" 
d="M356 531q-15 -14 -26 0q-92 117 -90 135q7 52 6 78q0 9 6.5 15t16.5 5q102 -10 230 0q16 2 16 -14q0 -1 -12 -45q-4 -21 -16 -49q-67 -65 -131 -125zM349 569q55 51 111 105q6 27 14 54q-106 -8 -193 0q-1 -17 -5 -54q24 -36 73 -105z" />
    <glyph glyph-name="parenleft" unicode="(" horiz-adv-x="787" 
d="M623 -63l-36 -20q-27 -15 -35 -13q-393 130 -393 383q0 32 6 66q31 176 203 294q117 82 335 152q10 3 50 -25l52 -36q9 -5 9 -13q0 -12 -17 -18q-346 -133 -385 -351q-4 -26 -4 -50q0 -182 277 -306q10 -5 10 -12q0 -14 -72 -51zM637 -19q-108 52 -162 100
q-73 66 -95 162q-13 55 -3 113q41 229 378 369q-18 13 -54 38q-203 -66 -311 -139q-162 -110 -190 -271q-6 -31 -6 -59q0 -230 367 -354q25 14 76 41z" />
    <glyph glyph-name="parenright" unicode=")" horiz-adv-x="787" 
d="M693 214q-121 -200 -492 -310q-10 -3 -109 65q-8 6 -8 13q0 12 17 18q159 60 249 129q125 96 149 227q5 26 5 50q0 104 -87 186q-61 58 -179 115q-11 5 -11 12q0 12 31 29q19 9 38 19q61 34 70 31q176 -65 260 -133q125 -100 125 -245q0 -110 -58 -206zM663 228
q52 86 52 185q0 134 -117 226q-78 62 -242 123q-23 -13 -69 -37q253 -127 253 -313q0 -27 -6 -56q-43 -235 -392 -375l21 -14q19 -13 41 -27q348 105 459 288z" />
    <glyph glyph-name="asterisk" unicode="*" 
d="M923 454q-96 -78 -107 -75q-17 4 -17 11q0 3 6.5 12.5t6.5 17.5q0 5 -2 9q-14 21 -51 34q-44 19 -88 41l-44 22q7 -25 24 -74l1 -3q5 -28 37 -39q4 -1 56 -10q28 -5 26 -19l-1 -3q-3 -18 -21 -17q-120 2 -361 0q-7 -1 -11.5 4.5t-3.5 12.5l1 3q2 14 59 23q61 10 78 45
l2 2l54 74l-159 -64q-69 -23 -69 -46q0 -4 3 -9t3 -9q0 -19 -26 -19q-8 0 -11 4q-22 23 -65.5 70.5t-64.5 70.5l17 30q-3 -1 -5 -1q5 2 11 2t18 -7.5t17 -8.5q54 -16 125 -1h2q43 6 130 19q-42 4 -123 17h-3q-34 7 -68 7q-56 0 -87 -20q-3 -2 -11 -3q-6 0 -10 2q2 0 4 -1
l-6 30q30 23 89.5 70.5t89.5 70.5q5 4 13 4q20 0 20 -14q0 -8 -7.5 -15t-2.5 -20q19 -23 50 -34l2 -1q2 -1 133 -62l-5 15q-10 31 -21 57l-1 4q-4 26 -35 37q-2 1 -54 12q-28 5 -26 19l1 3q3 18 21 17q120 -2 362 0q7 1 11.5 -4.5t3.5 -12.5l-1 -3q-2 -15 -62 -23
q-63 -10 -80 -45l-2 -3q-18 -25 -40 -58l-10 -15l51 21q52 22 103 41q41 13 63 33q4 7 8 17q-5 9 -5 17q0 17 22 17q11 0 14 -4q42 -48 130 -140q7 -6 7 -12q0 -19 -29 -19q-8 0 -11 3q-24 19 -84 19q-36 0 -67 -6h-3q-40 -6 -122 -17l119 -19q27 -7 60 -7q60 0 96 22
q5 2 11 2q23 0 23 -15q0 -8 -11 -16q-46 -34 -90 -70zM928 498h-6q-58 -8 -103 6l-115 18q-60 9 -116 17q-15 2 -15 14q0 17 20 20l123 18q63 10 122 17q55 15 106 6h3q-27 30 -81 89l12 -3l11 29q10 -9 10 -22q0 -17 -17 -43l-3 -3q-25 -24 -81 -44q-10 -4 -201 -83
q-6 -2 -11 -2q-13 0 -13 11q0 7 6 15q26 40 80 117q20 40 70 57q27 10 87 16l-17 -15l14 -16q-243 -3 -364 0l19 16l-11 15q54 -6 79 -17q42 -17 48 -56q14 -38 42 -116q2 -4 2 -8q0 -18 -19 -18q-5 0 -10 2l-174 81q-37 10 -65 45l-2 3q-3 7 -4 14q-49 -39 -146 -116l-7 30
h2q42 24 106 24q40 0 72 -9q132 -17 247 -34q14 -2 14 -14q0 -18 -21 -20q-10 -2 -258 -36q-33 -9 -72 -9q-67 0 -101 25l-1 1l-4 3l5 -2l15 28q36 -38 106 -114q23 41 92 60l204 82q6 2 11 2q12 0 12 -11q0 -7 -5 -15q-27 -40 -83 -117q-35 -66 -153 -72l18 15l-13 16
q242 3 362 0l-19 -16l12 -15q-118 6 -132 71q-12 40 -39 119q-1 4 -1 8q0 18 18 18q5 0 10 -2q56 -29 171 -83q28 -11 38 -17q19 -11 28 -28l1 -2q2 -5 4 -13q26 22 81 63z" />
    <glyph glyph-name="plus" unicode="+" horiz-adv-x="1275" 
d="M818 316q-2 -9 -3 -20l-4 -32q14 -20 70 -35q51 -14 51 -24l1 -12q-158 -20 -508 -25q-15 -1 -15 14q0 10 7 22t15 14q46 12 66 19q37 13 64 30q1 2 11 49l-300 1q-18 0 -15 17q4 18 9 55q1 20 21 19q154 -1 301 -1q1 6 1 12l3 24q-31 23 -113 48q-11 3 -11 24
q0 27 22 26q121 -1 243 -1t244 1q15 1 15 -13q0 -11 -7.5 -23t-16.5 -14q-57 -13 -65 -15q-38 -12 -61 -31l-9 -38q99 0 296 1q14 1 14 -15q0 2 -6 -31l-5 -28q-3 -17 -20 -17zM887 505q-202 -2 -403 2l14 14l7 7v-6q128 -40 124 -69l-3 -31q-2 -17 -5 -33.5t-20 -16.5
q-150 0 -300 1q-1 -5 -2 -11l-2 -11h300q14 0 14 -17q0 4 -7 -39q-4 -21 -6 -27q-5 -20 -13 -25q-37 -24 -75 -37l-10 -3q168 2 334 1q-63 24 -59 52l4 39q3 19 6 39q3 17 21 17h295l2 11q1 6 2 11q-98 0 -295 -1q-18 -1 -18 31q0 74 95 102z" />
    <glyph glyph-name="comma" unicode="," horiz-adv-x="490" 
d="M230 -16q-1 0 -64 -4h-6q-5 2 -9 2h-5q-32 10 -32 58q0 64 51 73q68 13 170 5q60 -4 60 -55q0 -49 -45 -101q-76 -85 -254 -124q-21 -5 -21 11q0 10 10 18q24 17 71 52q20 15 40 29q24 19 34 36zM177 -106q158 51 182 162q6 24 -38 29q-32 0 -63 1q-92 2 -102 -13
q-7 -10 -6 -31q0 -22 10 -26q5 0 12 -1q70 5 78 2q18 -7 18 -26q0 -6 -3 -10q-14 -30 -88 -87z" />
    <glyph glyph-name="hyphen" unicode="-" horiz-adv-x="2115" 
d="M1822 363q26 -7 65 -12q14 -1 14 -14q0 -21 -22 -20h-1526q-17 -1 -17 14q0 17 21 20t65 11q-23 4 -67 13q-13 3 -13 15q0 20 23 19h1534q17 1 17 -14q0 -17 -20 -20q-25 -3 -74 -12zM1771 374h-1304q5 -8 5 -15q0 -21 -50 -32l-66 -10l3 34h1526l-8 -34q-47 5 -86 17
l-4 2q-17 13 -17 31q0 4 1 7z" />
    <glyph glyph-name="hyphen" unicode="&#x2010;" horiz-adv-x="2115" 
d="M1822 363q26 -7 65 -12q14 -1 14 -14q0 -21 -22 -20h-1526q-17 -1 -17 14q0 17 21 20t65 11q-23 4 -67 13q-13 3 -13 15q0 20 23 19h1534q17 1 17 -14q0 -17 -20 -20q-25 -3 -74 -12zM1771 374h-1304q5 -8 5 -15q0 -21 -50 -32l-66 -10l3 34h1526l-8 -34q-47 5 -86 17
l-4 2q-17 13 -17 31q0 4 1 7z" />
    <glyph glyph-name="period" unicode="." horiz-adv-x="490" 
d="M253 -16q-60 0 -109 10q-29 6 -29 41q0 10 3 20q10 52 48 59q49 9 99 9q47 0 70 -4q58 -4 58 -51q0 -41 -30.5 -62.5t-109.5 -21.5zM346 33q6 5 10 21v2q6 26 -31 29q-21 4 -66 4q-93 0 -99 -13q-3 -8 -7 -22l-1 -3q-5 -21 5 -23q44 -9 107 -9q62 0 82 14z" />
    <glyph glyph-name="slash" unicode="/" 
d="M678 671q-3 19 -46 19t-43 11q0 10 22 33q6 7 15 7q196 0 356 16q19 2 19 -11q0 -8 -9 -17q-114 -121 -282 -323q-224 -271 -274 -330l-3 -3q1 -20 44 -23t43 -15q0 -10 -19 -30q-7 -8 -16 -7q-164 1 -354 -13q-19 -2 -19 11q0 8 8 16q110 119 281 328q206 249 277 331z
M488 31l8 -17q-55 4 -64 7q-34 11 -34 46q-1 12 10 26l1 2q236 306 530 624q-153 -13 -312 -14l-7 -8l-8 28q25 1 73 -9q29 -12 29 -43q0 -8 -14 -27l-2 -2q-219 -285 -525 -622q167 12 309 11l10 -1z" />
    <glyph glyph-name="zero" unicode="0" 
d="M841 16q-32 -29 -170 -22q-161 7 -338 1q-69 -3 -66 -3q-106 0 -106 44q0 4 1 9l1 2q27 108 74 323q28 161 39 323v4q8 27 35 38q13 5 51 9q53 2 136 0q113 -3 136 -3q36 0 107.5 2.5t106.5 2.5h45q42 -3 54 -8q28 -11 25 -42v-3q-47 -162 -76 -323q-11 -65 -22 -161
q-9 -81 -17 -162l-1 -2q-2 -17 -15 -29zM820 41q1 1 1 3q22 321 116 651q0 2 -1 5q-4 3 -53 12h-42q-34 0 -105.5 -3t-108.5 -3q-23 0 -134 3q-82 2 -135 1q-12 -2 -25 -3q-19 -4 -22 -12q-21 -321 -114 -651q0 -1 1 -3q14 -16 140 -12q112 5 388 -1q79 -2 94 13zM709 652
q-123 -2 -184 0q-43 -296 -98 -564h181q38 270 101 564zM641 71q-3 -19 -21 -18h-218q-7 -1 -11.5 4.5t-2.5 13.5q60 284 105 598q2 19 21 18q72 -2 219 0q7 1 11.5 -4.5t3.5 -13.5q-68 -312 -107 -598zM551 297q-46 -3 -46 43q0 7 2 14q2 25 21.5 43t43.5 15q20 1 32.5 -12
t12.5 -32q0 -7 -2 -14q-2 -24 -21 -41.5t-43 -15.5zM580 352v4q3 8 -1 15t-12 6h-4q-8 1 -14 -5t-7 -16l-1 -4q-2 -9 2 -15t13 -5h4q19 -2 20 20z" />
    <glyph glyph-name="one" unicode="1" horiz-adv-x="787" 
d="M429 -2q-119 0 -241 -15q-13 -2 -15 6q-2 4 1 19q4 25 62 36q63 12 79 43q56 264 93 524q2 12 -22 18l-32 6h-40q-26 2 -24 17l2 8q2 14 4 17q4 9 16 9q148 12 359 58q10 2 15.5 -3t3.5 -15q-73 -319 -117 -639q5 -31 65 -43q54 -11 50 -36q-5 -28 -23 -25
q-117 15 -236 15zM652 3q-54 12 -72 21q-38 18 -43 55v4q43 311 113 622q-200 -43 -342 -53l20 20v-1q20 1 35 -2h2q41 -6 55 -12q28 -13 24 -44q-38 -263 -95 -530l-1 -4q-19 -37 -62 -55q-19 -8 -78 -21l-13 -3l5 4l-10 13q124 17 245 16q122 -1 240 -16l-23 -20v6z" />
    <glyph glyph-name="two" unicode="2" 
d="M155 -17q-9 -1 -13.5 4.5t-1.5 14.5q35 111 79 321q13 57 109 89q72 23 143 23h184q24 136 41 217h-131q-14 0 -65 2t-78 2q-41 -1 -62 -7t-27 -26q-5 -15 -39 -15q-33 0 -33 26q0 6 2.5 22.5t2.5 24.5l2 46q4 33 24 30q208 -23 503 -12q73 3 104 -4h2q40 -9 41 -10
q20 -8 21 -32v-6q-16 -51 -35 -142q-22 -101 -33 -142l-1 -3q-9 -34 -66 -49l-2 -1q-38 -10 -94 -10l-268 -1q-17 -94 -50 -257h122q70 0 139 -3q56 3 59 4q37 7 48 31q4 10 16 13q8 2 21 0l19 -2q15 0 15 -27q0 -9 -2 -25.5t-2 -19.5q8 -79 -25 -76q-164 15 -331 15
q-168 0 -338 -15zM181 19q160 13 318 13t313 -13l1 36q1 22 3 43h-5q-1 0 -3 1q-31 -49 -138 -49h-2q-24 -1 -70 1.5t-69 2.5q-68 0 -138 -1q-8 -1 -12.5 4.5t-2.5 12.5q38 185 57 293q3 17 20 17h285q42 0 85 10q19 6 21 7q13 6 16 14q30 158 67 283q-1 5 -18 9l-22 4
q-38 6 -97 4q-286 -12 -486 9q-1 -26 -4 -78h4q25 51 119 47q87 -3 148 -3q74 0 149 1q7 1 11.5 -4.5t3.5 -13.5q-20 -94 -48 -251q-3 -17 -20 -17h-202q-115 0 -190 -51q-17 -12 -21 -29q-43 -200 -73 -302z" />
    <glyph glyph-name="three" unicode="3" 
d="M856 17q-32 -20 -82 -23q-8 -1 -84 0q-29 0 -128 2q-78 2 -127 1q-127 -2 -256 -14q-16 -2 -16 16l17 59.5t20 64.5q9 10 52 10q9 0 14 -16q6 -20 30 -27q8 -2 64 -5q130 5 260 3q10 81 42 259h-88q-87 0 -109 -43q-6 -11 -18 -11q-37 0 -34 -1q-21 3 -18 19q10 42 16 84
q4 33 9.5 67.5t24.5 34.5q51 0 52 -13q4 -42 94 -42h88l20 106q10 51 22 104q-170 -2 -282 4q-24 -2 -48 -5q-32 -6 -36 -27q-4 -16 -33 -16q-39 0 -37 18q5 58 8 112q1 22 22 19q191 -21 581 -11q41 2 75 -17q20 -8 20 -28q0 -4 -2 -9q-35 -115 -60 -247l-2 -6
q-22 -42 -74 -55q-45 -5 -90 -9l7 34q43 -5 87 -10q47 -12 52 -56v-5q-27 -153 -34 -291q-1 -19 -19 -30zM955 695q-1 1 -3 1l-2 1q-35 16 -133 14q-305 -10 -490 9q-2 -37 -5 -76h4q15 28 52 38q32 5 63 9h4q118 -6 300 -4q8 1 12 -4.5t2 -13.5q-13 -62 -25 -122
q-6 -43 -12 -85q-11 -54 -32 -54h-105q-104 0 -121 53q-4 0 -8 1l-10 -67q-5 -34 -12 -68h7q37 54 139 54h105q18 0 15 -17q-18 -98 -47 -293q-2 -19 -21 -18q-93 -3 -278 -3h-1q-50 0 -72 6q-40 11 -48 42h-7l-12 -43q-4 -16 -10 -36q119 11 237 13q48 1 127 -1
q98 -2 128 -3q79 0 73 0q47 2 73 18q-2 -3 -3 -3q8 139 35 292q-4 27 -48 34l-68 6q-14 2 -14 14q0 18 21 20l70 6q45 7 60 33q25 132 60 247zM825 711h-9q-5 -1 -9 -1q-17 0 -17 12q0 10 11 18t29 5q2 0 6 1l2 -34q-7 -1 -13 -1zM831 745q3 0 6 1q20 4 20 -12
q0 -10 -10.5 -18t-28.5 -5q-2 0 -4 34h8h9z" />
    <glyph glyph-name="four" unicode="4" 
d="M855 176l-42 1q-9 -72 -14 -167q-1 -21 -22 -19q-55 4 -109 5h-100q-25 2 -25 22q0 -2 13 88q5 37 11 74q-275 0 -436 -6q-16 -1 -16 12q0 6 4 13q74 112 323 534q7 11 19 10q51 -2 102 -2h103q16 0 16 -12q0 -6 -5 -13l-285 -447q45 2 90 1h100q7 36 20 107q3 17 21 17
h206q17 0 14 -17q-6 -37 -18 -110q51 0 104 -2q14 0 14 -23q0 -10 -2.5 -27.5t-3.5 -21.5q0 -20 -35 -20q-8 0 -24.5 1t-22.5 2zM862 210l41 -1q1 4 2 10l1 12q-53 2 -105 2q-18 0 -14 17q6 37 18 109h-171q-7 -35 -20 -106q-3 -17 -20 -17h-118q-58 0 -118 -2
q-17 -1 -17 12q0 6 5 13q94 150 286 447l-75 1q-46 0 -92 1q-97 -167 -300 -498q148 5 426 5q17 0 14 -17q-11 -63 -25 -166l95 -2q44 0 90 -3q5 94 15 167q2 19 35 20q-33 -1 47 -4z" />
    <glyph glyph-name="five" unicode="5" 
d="M974 733q-10 -36 -30 -107q-5 -17 -39 -17t-20 -2q-12 1 -13 12q-2 25 -37 32q-3 1 -58 4q-114 -4 -259 -3q-10 -69 -32 -207h219q116 0 147 -8q37 -11 37 -52q0 -19 -9 -67q-12 -73 -17 -103q-4 -56 -15 -168l-1 -2q-3 -28 -29 -39q-1 0 -50 -12h-3q-51 -4 -134 0
q-104 4 -134 4q-72 -2 -215 -6q-136 -3 -127 51l1 3q0 3 15 57q5 18 12.5 23.5t29.5 5.5q33 0 21 2q12 -1 12 -13q2 -38 95 -36q148 4 260 3q10 81 42 258q-201 -1 -400 1q-17 0 -14 17q34 195 43 374q1 22 22 19q163 -16 331 -16q161 0 336 16q8 1 12.5 -4t3.5 -13
q-1 -4 -3 -7zM936 721q-162 -15 -317 -15q-163 0 -313 14q-9 -162 -39 -339q199 -1 399 0q7 1 11.5 -4.5t3.5 -12.5q-18 -98 -47 -293q-2 -19 -21 -18q-105 -3 -312 -2q-76 2 -88 47h-6l-2 -1l-6 -20q-5 -15 -8 -32q-1 -16 63 -17q23 -1 77 1q178 9 342 -1q52 -2 94 0
q18 2 44 13q1 1 1 3q6 115 43 339q5 28 -157 28h-236q-17 0 -14 17q12 81 38 242q2 18 20 17q93 3 277 3h2q50 0 71 -5q38 -10 49 -42h6l2 1q1 4 23 77z" />
    <glyph glyph-name="six" unicode="6" 
d="M844 38q-16 -44 -106 -44q-19 0 -207 2q-125 2 -208 -1q-50 -2 -46 -2q-59 0 -80 4q-50 11 -47 46l1 4q61 215 114 649l1 2q5 41 82 50q34 1 58 1q41 0 151 -3q95 -2 151 -1q126 2 254 16q16 2 16 -15q0 -11 -7 -32l-10 -28q-6 -26 -13 -52q-9 -21 -40.5 -21t-22.5 -2
q-13 2 -11 16q3 23 -29 30q-20 5 -52 4q-153 -8 -269 -5q-8 -55 -17 -109l-18 -109q37 0 122 1h121h74q41 -3 64 -21l2 -1q22 -16 15 -53q-25 -133 -37 -299q-1 -13 -6 -27zM828 212l14 88q11 70 10 79q-2 6 -5 9q-27 17 -121 17q-43 0 -130 -1t-130 -1q-15 0 -15 27
q0 20 9 61q12 54 12 56q10 62 19 126q3 19 21 18q124 -3 286 4q103 5 111 -48l6 1q7 25 22 76q-227 -23 -489 -10q-21 1 -48 1q-24 0 -56 -1q-23 -3 -24 -3q-17 -4 -19 -12q-23 -328 -115 -654q-1 -18 97 -18q-4 0 44 2q84 4 209 2q190 -3 208 -3q33 0 65 14q6 6 12 80
q4 45 7 90zM598 87q4 36 37 261q13 0 -161 0q-17 -96 -51 -261h175zM632 85q-1 -9 -11 -21.5t-19 -11.5h-203q-7 -1 -11.5 4.5t-2.5 12.5q38 188 57 297q3 17 21 17h195q7 1 11.5 -4.5t3.5 -12.5q-15 -93 -41 -281z" />
    <glyph glyph-name="seven" unicode="7" 
d="M530 4q-7 -9 -18 -9q-87 0 -235 -5q-17 -1 -17 12q0 6 6 14q90 115 229 317q164 236 225 320q-111 3 -334 3q-61 -2 -73 -35q-5 -12 -39 -12q-33 0 -33 26q0 6 2.5 22.5t2.5 24.5q1 23 1 46q4 32 24 30q179 -17 363 -17q176 0 368 17q18 2 18 -11q0 -7 -6 -15
q-109 -139 -250 -359q-117 -184 -234 -369zM964 721q-171 -15 -336 -15q-179 0 -344 15l-2 -34q0 -15 -2 -44h7q31 51 139 48q265 -5 331 -3q17 1 17 -12q0 -6 -6 -14q-72 -96 -226 -319q-143 -207 -228 -317q120 3 193 3q111 175 223 350q133 209 234 342z" />
    <glyph glyph-name="eight" unicode="8" 
d="M744 395l-12 15q71 -3 101 -14q54 -19 56 -71l-1 -3q-9 -55 -18 -138q-12 -124 -13 -137l-1 -2q-6 -54 -125 -54q-9 0 -60 3q-161 7 -338 1q-69 -3 -66 -3q-106 0 -106 43q0 5 1 10l1 2q24 91 65 274l1 3q20 52 80 71q33 11 105 14l-17 -15l12 -15q-70 3 -101 15
q-53 20 -56 72v4q14 87 24 223v4q8 27 35 38q13 5 51 9q53 2 136 0q113 -3 136 -3q36 0 107.5 2.5t106.5 2.5h45q42 -3 54 -8q28 -11 25 -42v-3q-18 -74 -57 -223v-2q-26 -88 -189 -88zM820 41q1 1 1 3q9 141 32 276q-2 33 -40 45q-10 3 -69 9q-36 4 -33 19l1 4q3 17 20 17
q126 0 149 59q26 121 56 222q0 2 -1 5q-4 3 -53 12h-42q-34 0 -105.5 -3t-108.5 -3q-23 0 -134 3q-82 2 -135 1q-12 -2 -25 -3q-19 -4 -22 -12q-10 -136 -23 -223q2 -35 41 -47q11 -3 69 -10q35 -4 32 -19v-4q-3 -15 -29 -19q-18 0 -37 -1q-82 -5 -101 -53
q-28 -147 -66 -275q0 -1 1 -3q14 -16 140 -12q112 5 388 -1q79 -2 94 13zM708 652q-122 -2 -183 0q-10 -70 -32 -210h173q13 71 42 210zM697 424q-3 -16 -20 -16h-208q-18 0 -15 17q13 82 39 245q3 18 21 17q72 -2 219 0q8 1 12 -4.5t2 -13.5q-16 -82 -50 -245zM627 217
l23 130h-173q-18 -97 -51 -259h182q8 65 19 129zM662 217q-12 -72 -21 -146q-2 -19 -21 -18h-218q-7 -1 -11.5 4.5t-2.5 12.5q38 185 57 294q3 17 20 17h208q18 0 15 -17z" />
    <glyph glyph-name="nine" unicode="9" 
d="M834 18q-33 -30 -174 -23q-251 11 -507 -12q-16 -2 -16 15q0 11 7 32l10 28q7 26 13 52q10 21 41.5 21t20.5 2q12 -2 12 -14q0 -23 32 -32q21 -6 50 -5q142 6 267 4q12 92 34 219h-113q-22 0 -66 -1h-65q-62 0 -73 1q-41 3 -64 21l-2 1q-18 14 -12 53q12 99 35 299l1 2
q5 41 31 54q48 19 151 13q180 -8 346 0q57 4 68 4q105 0 105 -44q0 -4 -1 -9l-1 -2q-28 -108 -75 -325q-12 -64 -23 -161q-8 -82 -17 -163v-2q-2 -16 -15 -28zM813 43v2q22 323 117 655q2 14 -64 15q-33 1 -77 -1q-65 -4 -420 1q-32 0 -63 -12l-2 -1l-4 -20
q-10 -141 -35 -302q-4 -19 2 -24q27 -18 119 -18q22 0 66 1h65h131q17 0 14 -17q-26 -147 -39 -253q-3 -19 -21 -18q-132 2 -284 -3q-98 -4 -111 49h-5l-2 -1q-7 -25 -22 -77q248 22 490 10q124 -5 145 14zM476 393h164q23 131 51 262q-115 -2 -173 0q-20 -133 -42 -262z
M440 381v5q23 133 43 270q0 11 9 23t19 11q68 -2 204 0q8 1 12.5 -4.5t2.5 -13.5q-32 -148 -58 -296q-3 -17 -21 -17h-197q-18 0 -14 22v0z" />
    <glyph glyph-name="colon" unicode=":" horiz-adv-x="490" 
d="M427 355q-38 -28 -126 -28q-128 0 -128 62q0 6 1 13q2 22 17 40t37 18q42 5 97 5q65 0 83 -2q53 -9 53 -43q0 -40 -34 -65zM409 381q9 7 14 24l1 1q6 20 -42 24q-3 1 -63 1q-15 0 -94 -5h-2q-11 -1 -13 -21v-2q-4 -33 53 -39q22 -3 44 -3q75 0 102 20zM373 11
q-27 -18 -91 -18q-97 0 -136 4q-35 3 -35 40q0 24 16 48.5t40 31.5q46 13 99 13q59 0 87 -10q43 -16 43 -63q0 -29 -23 -46zM355 39q7 5 6 18q-2 12 -7 18q-19 21 -94 21q-85 0 -102 -23q-12 -16 -12 -30q0 -11 9 -12q38 -4 133 -4q52 0 67 12z" />
    <glyph glyph-name="semicolon" unicode=";" horiz-adv-x="490" 
d="M428 355q-41 -31 -128 -31q-128 0 -128 65q0 7 2 14q1 21 17 39t38 18q49 3 96 3h70q66 4 66 -49q0 -33 -33 -59zM410 382q15 11 15 29q0 19 -35 17h-4q-7 1 -67 1q-17 0 -48.5 -2t-46.5 -2h-2q-11 -1 -13 -18v-3q-4 -35 53 -43q22 -3 44 -3q74 0 104 24zM232 -9
q-8 2 -33 -2q-29 -4 -36 -4q-10 0 -14 1q-35 3 -35 47q0 27 15 51.5t39 30.5l3 1q50 14 108 14q122 0 113 -74q-8 -67 -59 -112q-39 -35 -113 -63q-60 -20 -121 -41q-5 -2 -10 -2q-14 0 -14 12q0 15 69 66q76 55 88 75zM179 -99q166 51 178 153q3 28 -36 36q-8 1 -62 3
q-34 0 -85 -11q-24 -8 -24 -43q0 -17 7 -19h7l5 -1q8 0 30.5 3.5t33.5 3.5q36 0 37 -30q0 -24 -91 -95z" />
    <glyph glyph-name="less" unicode="&#x3c;" 
d="M286 345q-14 3 -14 15q0 14 20 19q108 25 325.5 72t325.5 72q18 4 18 -10q0 -12 -12 -37q-14 -32 -15 -33q-3 -12 -15 -15q-138 -33 -292 -66q149 -35 267 -66q9 -2 13 -34l4 -38q2 -12 -5.5 -19t-19.5 -4q-99 25 -299.5 72t-300.5 72zM871 242q-2 11 -2 23
q-142 36 -328 80q-14 3 -14 14q0 16 20 20q191 41 357 80q5 12 10 23q-182 -39 -546 -120q168 -39 503 -120z" />
    <glyph glyph-name="equal" unicode="=" horiz-adv-x="940" 
d="M538 386q-158 0 -319 2q-12 0 -16 24q-6 38 -7.5 41.5t-1.5 8.5q0 18 22 17q164 -4 339 -4q147 0 340 4q15 1 15 -10q0 -9 -14 -33q-17 -29 -19 -34q-5 -14 -19 -14zM544 420q151 0 306 2q4 10 9 18l2 4q-164 -4 -312 -4q-173 0 -312 4q2 -11 3 -22q153 -2 304 -2z
M515 251q-185 0 -339 -4q-15 -1 -15 10q0 10 13 33q15 28 17 33q4 15 20 15l318 2q160 0 319 -2q11 0 17 -27l8 -38q2 -5 2 -9q0 -18 -22 -17q-177 4 -338 4zM521 286q134 0 311 -4l-1 4q-1 7 -3 18l-305 1q-152 0 -304 -1q-4 -10 -8 -18l-2 -4q152 4 312 4z" />
    <glyph glyph-name="greater" unicode="&#x3e;" 
d="M247 201q-5 -1 -9 -1q-11 0 -11 10q0 -1 16 42q8 21 10 25q8 16 18 19q53 13 292 66q-91 21 -270 66q-8 2 -11 32q-2 20 -3 40q-2 12 5.5 19t18.5 4q200 -48 599 -144q14 -3 14 -15q0 -14 -20 -19q-217 -47 -649 -144zM819 362q-168 38 -501 119q1 -11 1 -22
q109 -27 328 -80q14 -3 14 -15q0 -15 -20 -19q-119 -25 -357 -80q-3 -8 -8 -20l-1 -3q182 39 544 120z" />
    <glyph glyph-name="question" unicode="?" 
d="M873 357l-2 -1q-38 -10 -94 -10l-120 -1l-15 -87q6 -30 61 -36q51 -6 48 -22q-6 -35 -23 -34q-222 5 -447 -4q-7 -1 -11.5 4.5t-3.5 12.5q2 6 4 17q3 15 48 21q53 5 72 25q3 5 4.5 9.5t3.5 7.5q5 31 18 93v2q18 79 138 79q26 0 73 1q51 1 73 1q24 136 41 217h-131
q-14 0 -65 2t-78 2q-41 -1 -62 -7t-27 -26q-5 -15 -39 -15q-33 0 -33 26q0 6 2.5 22.5t2.5 24.5l2 46q4 33 24 30q208 -23 503 -12q73 3 104 -4h2q40 -9 41 -10q20 -8 21 -32v-6q-16 -51 -35 -142q-22 -101 -33 -142l-1 -3q-9 -34 -66 -49zM295 187l-9 9q258 12 359 3
q-33 16 -39 50v5q0 1 20 109q3 17 20 17h137q42 0 85 10q19 6 21 7q13 6 16 14q30 158 67 283q-1 5 -18 9l-22 4q-38 6 -97 4q-286 -12 -486 9q-1 -26 -4 -78h4q25 51 119 47q87 -3 148 -3q74 0 149 1q7 1 11.5 -4.5t3.5 -13.5q-20 -94 -48 -251q-3 -17 -20 -17
q-28 0 -82.5 -1t-81.5 -1q-83 0 -98 -48q-10 -57 -11 -65q-10 -44 -22 -61l-2 -2q-33 -36 -99 -42l-16 -1l-14 -1zM526 0q-32 -2 -64 -3h-3q-17 -2 -31 -2q-101 0 -101 48q0 10 4 21q14 54 58 60q49 12 134 12q99 0 97 -67l-1 -4q-10 -31 -33 -46t-60 -19zM571 48q8 5 13 19
q0 35 -67 35q-65 0 -127 -12h-2q-15 -3 -23 -29l-1 -3q-5 -17 19 -22q4 -1 36 -3q23 -1 45 -1q18 1 39 1q46 0 68 15z" />
    <glyph glyph-name="at" unicode="@" horiz-adv-x="1395" 
d="M1321 96q-10 -57 -137 -57q-8 0 -42 2q-185 6 -438 6q-236 0 -439 -7q-30 -2 -43 -2q-123 0 -123 46q0 7 3 14l1 2q34 103 43 133q22 74 32 132q23 132 18 266q-1 29 27 43q10 5 51 15h3q56 4 103 2q209 -7 437 -7q72 0 242 4q159 4 241 4q22 0 45 -2q39 -7 47 -10
q27 -10 27 -31q0 -8 -4 -18q-90 -225 -96 -452q-1 -21 -22 -20q-366 10 -707 7q-56 -1 -94 8q-64 14 -59 52l1 3q9 42 25 125q4 23 39 38q27 11 55 13q5 1 24 4h3q42 8 151 7h75q3 18 10 54q-31 0 -84 -1h-83q-90 0 -107 -40q-6 -12 -20 -12q-35 0 -32 -1q-21 3 -18 18
q7 40 14 107q2 19 21 18q50 -1 396 -1q8 1 86 -3h3q49 -13 53 -15q28 -13 24 -40l-1 -3q-8 -37 -23 -110q-10 -54 -17 -108q3 -22 46 -30q24 192 74 350q-185 -4 -352 -4q-194 0 -351 4q-12 -234 -83 -467q225 4 463 4q227 0 479 -11q18 0 13 -29zM514 451h6q34 52 139 52
q18 0 93 2q57 0 92 -1q17 0 14 -17q-5 -29 -16 -88q-3 -17 -21 -17h-92q-74 0 -147 -7q-22 -3 -45 -7q-30 -5 -40 -18q-11 -61 -24 -121q0 -15 54 -23q38 -6 69 -6q332 4 688 -6q10 224 99 445v3q-4 5 -49 14q-20 2 -40 2q-13 0 -43 -1q-218 -8 -441 -8q-236 0 -438 8
q-44 1 -97 -2q-17 -2 -43 -14v-2q10 -279 -96 -545v-4q15 -20 133 -16q214 8 441 8q244 0 439 -7q111 -3 137 18q0 1 0.5 3.5t-0.5 7.5l14 -13q-243 10 -478 10q-263 0 -482 -4q-8 -1 -12 5t-2 14q78 250 88 499q1 20 21 19q180 -4 371 -4q162 0 373 4q8 1 12 -5t2 -15
q-58 -174 -82 -385q-2 -18 -29 -18t-55 17.5t-31 42.5v4q18 130 41 223q0 9 -54 23q-73 3 -81 3h-379q-5 -45 -9 -73zM794 326h-86q-5 -24 -13 -70h87q4 23 12 70zM794 221h-123q-18 0 -15 17q4 18 10.5 53t9.5 52t21 17h121q17 0 14 -17t-8.5 -52.5t-9 -52.5t-20.5 -17z
" />
    <glyph glyph-name="A" unicode="A" 
d="M943 16l-7 -33q-180 12 -357 14q-16 0 -14 16q16 134 50 331h-166q-24 -134 -65 -331q-4 -16 -20 -16l-178 -4q-88 -2 -178 -9q-15 -2 -15 14q0 11 8 23.5t17 12.5q89 6 120 42q55 190 106 610v2q3 29 31 40l52 12h3q60 4 103 3h382q128 0 128 -52l-1 -5
q-88 -292 -110 -602q6 -32 63.5 -42.5t58.5 -20.5l1 -16zM931 -14l-12 11v4q-112 14 -122 73l-1 4q23 313 111 609q-2 22 -98 22h-382q-42 0 -99 -3q-18 -2 -48 -13q-1 -2 -1 -4q-21 -320 -108 -621q-7 -25 -52 -45q-35 -16 -68 -20q-13 -2 -23 -2l-4 -1h-10l7 5l-9 13
q91 8 179 9l162 4q40 194 64 330q3 17 21 17h201q17 0 14 -17q-35 -198 -51 -330q169 -2 342 -14q15 -1 15 -14q0 -20 -22 -20q-8 0 -13 5q4 0 7 -2zM674 652q-88 -1 -175 0q-19 -133 -33 -211h166q22 123 42 211zM664 423q-3 -17 -20 -17h-201q-18 0 -15 17q16 92 39 246
q2 19 21 18q104 -1 210 0q8 1 12 -4.5t2 -13.5q-23 -103 -48 -246z" />
    <glyph glyph-name="B" unicode="B" 
d="M878 18q-9 -7 -59 -21h-4q-34 -2 -102 -4h-2q-8 -1 -318 0q-190 0 -317 -10q-15 -2 -15 14q0 11 7.5 23.5t16.5 13.5q45 6 62 10q37 10 56 32q75 283 103 578q-8 34 -70 45q-37 7 -39 8q-8 5 -8 30q-1 9 6 15t16 5q170 -16 375 -16q116 0 258 5q70 3 104 -5h2
q62 -14 62 -39q0 -5 -2 -10q-39 -125 -64 -247l-2 -6q-21 -42 -73 -54q-1 -1 -91 -10l6 34l88 -10q48 -13 52 -56v-5q-27 -167 -30 -290l-1 -5q-4 -15 -17 -25zM224 738l24 -4q83 -15 94 -70v-5q-14 -147 -40 -295q-49 -278 -69 -303q-39 -48 -137 -60l-13 -1l6 4l-9 13
q119 10 319 9q237 -2 319 2q33 1 100 3q19 3 42 14q4 123 31 290q-4 26 -47 34l-68 6q-15 1 -15 14q0 18 21 20l70 6q45 8 60 33q24 122 63 245q-1 3 -39 14q-43 7 -97 5q-142 -6 -259 -6q-206 0 -378 17l22 20v-5zM742 654q-70 -2 -179 -2q-8 -54 -17 -106l-19 -105l85 -1
q42 0 84 1q17 91 46 213zM728 424q-3 -17 -20 -17q-51 -1 -102 -1h-102q-18 0 -15 17l22 123q10 61 19 122q3 18 21 18q134 0 215 3q8 1 12.5 -4.5t2.5 -13.5q-34 -141 -53 -247zM679 343q13 0 -169 0l-46 -254q45 0 90 -1l87 -1q10 96 38 256zM675 70q-2 -21 -46 -21
q-13 0 -41 2t-41 3h-106q-7 -1 -11.5 4.5t-3.5 12.5q9 48 26.5 145t25.5 145q3 17 21 17h203q8 1 12 -4.5t3 -12.5q-32 -182 -42 -291z" />
    <glyph glyph-name="C" unicode="C" 
d="M569 -2q-149 1 -254 -3l-65 -3q-107 0 -107 44q0 4 1 9l1 2q74 324 114 649l1 2q5 41 81 50q119 -2 360 -3q126 2 255 16q16 2 16 -15q0 -11 -7 -32l-10 -28q-16 -60 -19 -64q-6 -6 -53 -11q-14 -2 -16 16q-2 22 -22 28q-8 2 -60 5q-135 -7 -267 -4q-43 -285 -101 -569
q138 2 274 -3q37 2 49 5q31 8 36 29q4 17 34 17q40 0 38 -20q-6 -54 -6 -112q0 -23 -23 -20q-125 14 -250 15zM575 32q116 0 232 -12q0 40 4 78h-6q-25 -48 -118 -49h-2q-97 2 -292 3q-7 -1 -11.5 4.5t-2.5 13.5q62 301 106 603q3 19 21 18q95 3 285 4h2q46 0 67 -6
q37 -10 41 -42h8q7 26 22 77q-241 -24 -491 -10q-38 2 -103 0q-15 -2 -42 -13v-2q-23 -328 -116 -655q0 -1 1 -3q14 -16 140 -12q106 5 255 3z" />
    <glyph glyph-name="D" unicode="D" 
d="M902 15q-34 -27 -170 -21q-341 13 -652 -11q-15 -2 -15 14q0 29 20 36q34 12 69 24q40 15 67 32q71 281 99 561q-44 33 -116 61q-9 3 -9 23q0 30 23 27q183 -17 396 -17q137 0 297 7q126 6 126 -43q0 -5 -1 -10l-1 -2q-31 -108 -81 -325q-11 -65 -20 -161
q-7 -81 -14 -163l-1 -2q-1 -18 -17 -30zM231 740q128 -51 125 -79q-10 -105 -42 -305q-43 -273 -70 -290q-37 -25 -77 -39l-14 -5q281 18 587 6q121 -4 143 13q1 2 1 3q12 324 117 655q1 14 -64 17q-34 1 -76 0q-139 -6 -262 -6q-208 0 -390 17l22 20v-7zM751 657
q-70 -2 -179 -2q-51 -314 -97 -557q163 0 177 -1q30 255 99 560zM685 80q-3 -19 -22 -18q-26 1 -212 1q-18 0 -14 17q49 259 103 592q3 17 21 17q133 0 214 3q8 1 12.5 -4.5t2.5 -13.5q-74 -323 -105 -594z" />
    <glyph glyph-name="E" unicode="E" 
d="M985 607h-19q-10 0 -15 18t-29 25q-33 9 -109 7q-55 -3 -110 -5q-68 -2 -138 -2l-16 -105l-18 -106q29 0 78 1h79q89 0 108 43q6 12 19 12q6 0 18 1h19q17 0 14 -17q-11 -57 -30 -169q-2 -15 -24 -18h-34q-8 0 -13 11q-7 17 -14 24q-16 14 -48 18q-26 3 -32 3h-156
l-23 -130q-11 -64 -24 -130q134 0 286 -5q91 -2 106 37q5 12 25 13q-38 -2 31 -2q16 0 16 -30q0 23 -4 -42q1 -23 1 -46q-3 -32 -23 -30q-207 15 -415 14q-209 0 -420 -14q-15 -2 -15 14q0 30 20 36q53 18 69 25q39 15 67 32q72 279 99 559q-22 17 -117 58q-9 4 -9 23
q0 29 23 27q205 -16 415 -16q200 0 420 16q15 2 15 -15q0 -2 -19 -61q-7 -26 -13 -52q-9 -20 -41 -22zM221 736l57 -25q71 -30 69 -52q-10 -103 -41 -303q-43 -271 -71 -289q-37 -25 -77 -39l-15 -6q178 10 354 10q199 0 395 -13q0 9 3 78h-5h-4q-33 -52 -139 -48
q-152 5 -304 5q-18 0 -14 17q15 74 28 147l26 147q3 17 20 17h174q103 0 120 -55h6q7 45 24 134h-6q-35 -55 -139 -55q-18 0 -88 -1q-54 -1 -87 0q-17 0 -14 17q11 61 21 123l19 119q8 25 43 25q3 0 51 -2q42 -2 82 -1q10 1 65 4q46 2 75 2q123 0 136 -50h7q11 37 25 79
q-205 -15 -400 -15q-215 0 -418 17l22 20v-7z" />
    <glyph glyph-name="F" unicode="F" 
d="M983 607h-20q-18 0 -14.5 18t-36.5 26q-28 5 -57 5q-179 -6 -271 -6q-8 -53 -17 -105l-19 -106q46 1 137 2q93 5 109 42q7 13 38 13h18q14 0 14 -20q0 4 -17 -82q-8 -42 -14 -84q-2 -18 -21 -18h-36q-5 0 -19 24t-56 29q-26 3 -32 3l-136 -1q-23 -126 -47 -254
q17 -22 73 -36q46 -13 44 -26q0 -5 -2 -16q-3 -18 -21 -17q-275 2 -488 -15q-15 -2 -15 14q0 30 20 37q92 29 134 56q73 292 99 559q-20 17 -115 58q-9 4 -9 23q0 29 23 27q198 -16 404 -16q197 0 409 16q15 2 15 -15q0 -2 -19 -61q-7 -27 -14 -53q-9 -19 -41 -21zM242 736
q126 -54 124 -77q-14 -145 -40 -290q-16 -92 -30 -157q-29 -136 -42 -145q-36 -25 -75 -40l-13 -4q182 11 421 9l-21 -17v2q-46 10 -64 18q-33 14 -50 40q-1 1 -1 7q0 7 25 144q13 69 25 139q3 17 20 17h154q101 0 119 -56h6q5 34 12 68l13 68l-5 -1q-32 -49 -140 -55
q-26 0 -78 -1t-78 0q-17 0 -14 17l22 123q10 61 20 123q3 18 21 17q98 -1 287 5q114 4 124 -48h3h4q11 37 25 79q-198 -15 -389 -15q-211 0 -407 17l22 20v-7z" />
    <glyph glyph-name="G" unicode="G" 
d="M598 87q11 88 39 247q-13 34 -94 34q-18 0 -15 17l3 16q3 17 21 17q81 0 327 3q7 1 11.5 -4.5t3.5 -12.5q-41 -207 -46 -401q-1 -23 -23 -20q-221 23 -502 12q-51 -2 -46 -2q-59 0 -80 4q-50 11 -47 46l1 4q61 215 114 649l1 2q5 41 82 50q34 1 58 1q41 0 151 -3
q95 -2 151 -1q126 2 254 16q16 2 16 -15q0 -11 -7 -32l-10 -28q-6 -26 -13 -52q-9 -21 -40.5 -21t-22.5 -2q-13 2 -11 16q3 23 -29 30q-20 5 -52 4q-153 -8 -269 -5q-43 -285 -101 -569h175zM557 393l-8 9q105 0 124 -56v-8q-29 -163 -41 -253q-1 -10 -11 -22t-19 -11h-203
q-7 -1 -11.5 4.5t-2.5 13.5q62 301 106 603q3 19 21 18q124 -3 286 4q103 5 111 -48l6 1q7 25 22 76q-227 -23 -489 -10q-21 1 -48 1q-24 0 -56 -1q-23 -3 -24 -3q-17 -4 -19 -12q-23 -328 -115 -654q-1 -18 97 -18q44 0 150 3q96 3 150 2q115 -1 230 -12q7 177 42 366
l-309 -2z" />
    <glyph glyph-name="H" unicode="H" 
d="M602 -3q-16 0 -14 16q14 127 49 332h-168q-24 -135 -65 -332q-4 -16 -20 -16q-177 -2 -359 -14q-15 -1 -15 14q0 12 7.5 24t16.5 13q46 5 67 12q39 12 57 38q78 280 101 571q-7 32 -63 42.5t-56 22.5q-1 39 22 37q175 -15 353 -15q17 0 14 -16q-19 -145 -45 -289h170
q22 125 60 289q3 16 20 16q227 6 352 15q16 2 16 -14q0 -12 -8 -24.5t-17 -12.5q-30 -3 -67 -13q-52 -13 -57 -30q-83 -283 -103 -577q2 -5 28 -32q32 -15 81 -20q14 -1 14 -26q0 -27 -22 -25q-174 12 -349 14zM937 1q-48 6 -81 22l-4 3q-38 41 -38 52q20 300 105 589
q17 58 147 72l5 1h9l-6 -5l9 -12q-122 -10 -339 -15q-36 -163 -59 -289q-3 -17 -20 -17h-204q-18 0 -15 17q26 144 46 289q-171 0 -339 15l14 13l8 7v-5l25 -4q84 -13 95 -69v-4q-24 -297 -104 -584l-2 -5q-36 -58 -144 -71h-4l-9 -1l6 4l-9 13q175 12 344 14q40 195 65 332
q3 17 20 17h203q18 0 15 -17q-37 -207 -51 -332q168 -2 334 -14l-22 -20v4z" />
    <glyph glyph-name="I" unicode="I" horiz-adv-x="654" 
d="M93 -17q-13 -2 -15 6q-2 4 1 19q4 20 16 25q52 20 68 26q37 16 64 34q58 276 98 553q-18 16 -111 61q-11 5 -8 24q6 29 24 26q117 -16 238 -16t243 16q14 2 16 -6q1 -5 -2 -20q-3 -20 -35 -32q-28 -9 -55 -18q-36 -14 -56 -33q-59 -279 -99 -557q18 -25 76 -44
q46 -16 42 -39q-5 -28 -23 -25q-118 14 -238 14q-121 0 -244 -14zM562 4q-123 44 -118 79q41 286 101 573q7 34 146 80l12 4l-4 -4l11 -13q-125 -16 -248 -17q-124 -1 -243 17l23 20v-8q66 -31 70 -34q52 -28 49 -45q-40 -287 -101 -573q-5 -25 -147 -78l-10 -4l2 2l-10 14
q125 16 248 16q122 0 242 -16l-23 -20v7z" />
    <glyph glyph-name="J" unicode="J" 
d="M902 649q-76 -280 -99 -567q-5 -62 -92 -79q-38 -8 -129 -6q-290 3 -511 -14q-15 -2 -15 15q0 11 8 33q5 14 11 28l14 52q10 21 41 21q33 0 34 -15q1 -20 28 -28q32 -8 110 -6q55 2 111 4q72 1 139 1q31 219 95 559q-15 21 -70 35q-47 13 -45 26q1 5 2 16q3 18 21 17
q283 -2 488 16q16 2 16 -14q0 -10 -7 -22.5t-14 -14.5q-84 -24 -136 -57zM965 717q-174 -12 -417 -10l21 17v-2q45 -10 64 -18q33 -15 49 -40q2 -3 2 -11q-67 -353 -100 -581q-2 -18 -21 -18q-156 0 -312 -5q-110 -4 -122 49l-7 -1q-8 -26 -25 -78q114 9 275 11l274 2
q46 1 69 6q50 10 52 40q12 139 38 291q50 288 74 304q38 25 77 40z" />
    <glyph glyph-name="K" unicode="K" 
d="M731 394l-13 16q70 -3 100 -14q53 -19 57 -69l-1 -4q-23 -134 -23 -222q0 -29 5 -34q30 -26 103 -33q14 -1 14 -26q0 -27 -22 -25q-174 12 -349 14q-16 0 -14 16q14 127 49 332h-168q-24 -135 -65 -332q-4 -16 -20 -16q-177 -2 -359 -14q-15 -1 -15 14q0 12 7.5 24
t16.5 13q46 5 67 12q39 12 57 38q78 280 101 571q-7 32 -63 42.5t-56 22.5q-1 39 22 37q175 -15 353 -15q17 0 14 -16q-19 -145 -45 -289h170q22 125 60 289q3 16 20 16q227 6 352 15q16 2 16 -14q0 -12 -8 -24.5t-17 -12.5q-31 -3 -67 -12q-51 -14 -57 -32
q-26 -79 -51 -194l-1 -3q-22 -52 -82 -72q-35 -11 -106 -14zM937 1q-125 14 -123 77q5 124 25 243q-3 33 -41 44q-9 2 -69 9q-35 3 -32 19v3q3 15 29 19q19 1 37 1q84 7 105 56q25 115 51 196q19 57 147 71l5 1h9l-6 -5l9 -12q-122 -10 -339 -15q-36 -163 -59 -289
q-3 -17 -20 -17h-204q-18 0 -15 17q26 144 46 289q-171 0 -339 15l14 13l8 7v-5l25 -4q84 -13 95 -69v-4q-24 -297 -104 -584l-2 -5q-36 -58 -144 -71h-4l-9 -1l6 4l-9 13q175 12 344 14q40 195 65 332q3 17 20 17h203q18 0 15 -17q-37 -207 -51 -332q168 -2 334 -14
l-22 -20v4z" />
    <glyph glyph-name="L" unicode="L" 
d="M92 -17q-15 -2 -15 14q0 30 20 37q88 28 134 56q72 274 100 559q-19 16 -116 58q-9 4 -9 23q0 30 23 27q199 -18 482 -16q7 1 11 -4.5t3 -12.5l-3 -16q-2 -14 -38 -23q-24 -5 -49 -10q-32 -10 -50 -28q-31 -196 -100 -559q137 0 291 -5q91 -2 106 37q5 12 25 13
q-38 -2 31 -2q16 0 16 -30q0 23 -4 -42q1 -23 1 -46q-3 -32 -23 -30q-207 15 -415 15q-209 0 -421 -15zM625 706q-227 0 -405 17l22 20v-7q127 -54 125 -77q-14 -145 -39 -290q-51 -289 -74 -303q-52 -33 -141 -62l-10 -4l3 3l-10 14q213 16 423 15q198 0 395 -13q0 9 3 78
h-5h-4q-33 -52 -139 -48q-154 5 -308 5q-17 0 -14 17q72 378 104 582q4 30 74 53z" />
    <glyph glyph-name="M" unicode="M" horiz-adv-x="1498" 
d="M873 690q37 43 141 54q12 1 149 3q1 1 48 3q42 1 73 1q135 0 153 -30q8 -13 3 -31q-113 -309 -113 -606q11 -33 72 -42q57 -9 56 -31q-1 -29 -21 -28q-177 9 -353 12q-15 0 -15 14q8 297 105 648q-58 -1 -176 -3q-79 -363 -109 -638q-2 -18 -20 -18h-227q-18 0 -15 18
q73 351 115 638q-61 0 -183 2q-26 -328 -123 -646q-4 -15 -20 -15q-231 -6 -351 -12q-16 -1 -16 12q0 12 9.5 25t17.5 14q49 6 70 12q43 11 61 37q97 285 102 576q-12 35 -73 44q-55 8 -55 30q1 30 21 28q137 -8 514 -16q135 -2 160 -55zM1419 1q-110 14 -127 71l-1 4
q0 305 115 618q4 15 -60 20q-36 2 -74 1q-82 -1 -163 -1q-113 -2 -159 -15q-39 -11 -58 -38q-16 -23 -25 -23h-8q-9 0 -16.5 25.5t-43.5 35.5t-93 12q-172 2 -515 16l22 23q0 -4 1 -7q109 -14 127 -70l1 -5q-6 -300 -105 -593l-3 -4q-36 -57 -151 -70l-12 -1l3 2l-8 15
q117 7 338 12q94 316 118 643q2 20 21 19q37 0 110 -1t110 -2q16 0 14 -16q-42 -288 -114 -640h190q31 276 111 640q4 16 20 16q71 1 212 4q9 1 13 -5t2 -14q-99 -349 -109 -644q170 -3 340 -12l-21 -23q-1 4 -2 7z" />
    <glyph glyph-name="N" unicode="N" 
d="M612 -3q-16 0 -14 16q31 272 110 643q-121 -2 -181 0q-48 -321 -116 -643q-4 -16 -20 -16q-177 -2 -360 -14q-15 -1 -15 14q0 12 7.5 24t16.5 13q46 5 68 12q42 12 59 38q78 283 102 576q-9 30 -65.5 41.5t-57.5 22.5q-1 39 23 37q294 -24 634 -15q37 1 45 1
q131 0 127 -54l-1 -4q-89 -294 -111 -605q9 -32 66 -42q54 -10 55 -22q1 -39 -21 -37q-175 14 -351 14zM949 2l-25 4q-83 13 -96 66l-1 5q23 316 112 614q0 22 -97 22q-39 0 -183 -2q-112 -2 -182 0q-158 3 -317 16l22 20v-5l25 -4q84 -13 97 -67l1 -5q-24 -300 -105 -589
l-2 -5q-34 -57 -147 -71h-4l-9 -1l6 4l-9 13q175 12 345 14q67 321 114 642q3 19 22 18q71 -2 216 0q7 1 11.5 -4.5t2.5 -13.5q-79 -371 -111 -642q161 0 336 -14l-18 -17l-4 -3v5z" />
    <glyph glyph-name="O" unicode="O" 
d="M841 16q-32 -29 -170 -22q-161 7 -338 1q-69 -3 -66 -3q-106 0 -106 44q0 4 1 9l1 2q27 108 74 323q28 161 39 323v4q8 27 35 38q13 5 51 9q53 2 136 0q113 -3 136 -3q36 0 107.5 2.5t106.5 2.5h45q42 -3 54 -8q28 -11 25 -42v-3q-47 -162 -76 -323q-11 -65 -22 -161
q-9 -81 -17 -162l-1 -2q-2 -17 -15 -29zM820 41q1 1 1 3q22 321 116 651q0 2 -1 5q-4 3 -53 12h-42q-34 0 -105.5 -3t-108.5 -3q-23 0 -134 3q-82 2 -135 1q-12 -2 -25 -3q-19 -4 -22 -12q-21 -321 -114 -651q0 -1 1 -3q14 -16 140 -12q112 5 388 -1q79 -2 94 13zM709 652
q-123 -2 -184 0q-43 -296 -98 -564h181q38 270 101 564zM641 71q-3 -19 -21 -18h-218q-7 -1 -11.5 4.5t-2.5 13.5q60 284 105 598q2 19 21 18q72 -2 219 0q7 1 11.5 -4.5t3.5 -13.5q-68 -312 -107 -598z" />
    <glyph glyph-name="P" unicode="P" 
d="M919 353q-51 -28 -242 -28q-15 0 -45 -1h-44l-71 -1q-12 -79 -41 -237q6 -30 63 -36q53 -7 50 -22q0 -5 -1 -16q-3 -18 -21 -17q-269 2 -478 -15q-16 -2 -16 14q0 12 8 24t17 13q96 11 122 51q75 299 101 573q-7 33 -62.5 44t-55.5 22q-1 40 22 37q182 -17 388 -17
q116 0 242 5l46 2q37 0 47 -1h2q76 -8 76 -41q0 -6 -1 -12l-1 -3q-28 -100 -75 -302l-2 -6q-10 -20 -28 -30zM238 740q107 -15 119 -75v-5q-26 -279 -103 -584l-3 -6q-36 -58 -142 -72h-5l-9 -1l6 4l-9 13q211 18 481 15l-12 -10l7 -8q-119 7 -128 66v7q15 85 46 257
q3 17 20 17h88q15 0 45 1h44q211 0 232 33q31 167 75 303v4q-5 6 -51 14q-22 1 -44 1q1 0 -45 -2q-126 -6 -243 -6q-208 0 -391 18l22 20v-4zM759 654q-95 -2 -184 -2q-5 -30 -41 -236h175q18 103 50 238zM741 399q-3 -17 -20 -17h-211q-17 0 -14 17q17 90 46 269
q3 18 21 18q110 0 220 3q8 1 12.5 -4.5t2.5 -13.5q-36 -155 -57 -272z" />
    <glyph glyph-name="Q" unicode="Q" 
d="M828 17q-30 -26 -129 -26q-26 0 -68.5 2t-54.5 2q-4 -22 -10 -67q13 -27 59 -36q38 -7 36 -21l-2 -8q-4 -26 -21 -25q-129 5 -193 4q-7 -1 -11 4.5t-3 12.5q8 45 24 136h-50q-6 0 -43 -2.5t-63 -2.5q-134 0 -126 54l1 3q1 6 57 324q34 194 45 322q5 29 33 40q13 6 53 10
q49 2 135 -2q96 -4 136 -4q37 0 130 5q83 4 129 3q85 -1 81 -49l-1 -4q-77 -275 -127 -645q-3 -19 -17 -30zM624 -145q-31 4 -61 21q-37 21 -33 46q3 24 7 46q8 46 11 52q6 11 29 11q3 0 40 -2q169 -6 192 13q0 2 1 3q50 372 128 649q0 16 -67 16q-22 1 -72 -2
q-184 -12 -343 -1q-52 3 -98 2q-17 -1 -46 -11q-1 -2 -1 -3q-28 -323 -102 -648q-1 -20 104 -20q27 0 62.5 1l35.5 1q33 0 67 1q7 1 11.5 -4.5t3.5 -12.5q-9 -45 -25 -136q57 0 177 -5l-21 -21v4zM708 649q-46 -1 -92 -1t-92 1l-28 -184q-15 -93 -31 -185q48 0 143 -2
q16 0 14 -17q-10 -59 -31 -176h6h7q55 334 104 564zM636 67q-2 -15 -29 -18q3 1 -39 1q-18 0 -15 17q10 59 31 177q-48 0 -144 2q-16 0 -13 17q18 101 33 202l32 202q3 18 21 17q55 -2 109 -2q55 0 110 2q8 1 12.5 -4.5t2.5 -13.5q-53 -244 -111 -599zM487 193q0 20 -31 28
q-9 -46 -27 -136h40zM500 67q-3 -16 -20 -16q-13 0 -38 -1h-37q-19 0 -15 18q11 58 33 175q4 17 23 17q23 0 50.5 -16t26.5 -47v-4q-5 -20 -11.5 -62.5t-11.5 -63.5z" />
    <glyph glyph-name="R" unicode="R" horiz-adv-x="1086" 
d="M791 361l-9 20q72 -3 100 -13q54 -18 57 -69v-4q-15 -82 -21 -211q3 -29 63 -41t60 -23q1 -39 -21 -37q-176 12 -350 14q-16 0 -14 16q16 140 46 311h-179q-19 -103 -61 -311q-4 -16 -20 -16q-175 -2 -353 -14q-15 -1 -15 14q0 12 7.5 24t16.5 13q45 5 67 12q42 12 56 37
q79 282 103 574q-8 32 -64.5 42.5t-56.5 22.5q-1 39 22 37q168 -14 676 -14q130 0 125 -55l-1 -5q-16 -49 -34 -134q-22 -98 -32 -136l-1 -2q-11 -38 -63 -49l-21 -4q-39 -6 -95 -6zM1006 1q-122 14 -124 74v3q-1 84 21 215q-3 32 -40 43q-15 5 -68 9q-36 3 -36 15q0 4 4 11
q11 17 23 17q32 0 90 6l18 4q24 5 30 20q37 176 67 270q0 23 -96 23q-509 0 -679 14l23 20v-5l24 -4q85 -13 96 -69v-4q-24 -298 -104 -586l-2 -4q-31 -58 -144 -72h-4l-9 -1l6 4l-9 13q170 12 338 14q10 44 60 311q3 17 20 17h214q18 0 15 -17q-30 -171 -47 -311
q166 -2 335 -14l-22 -20v4zM760 654q-92 -1 -183 0q-14 -100 -38 -237h175q24 137 46 237zM746 400q-3 -17 -21 -17h-210q-17 0 -14 17q28 157 43 271q2 19 21 18q109 -1 219 0q8 1 12.5 -4.5t2.5 -13.5q-25 -114 -53 -271z" />
    <glyph glyph-name="S" unicode="S" 
d="M831 16q-32 -28 -167 -22q-271 10 -506 -11q-16 -2 -16 16l17 60q7 27 14 55q9 18 41 18t20 2q12 -1 12 -13q2 -38 95 -36q148 4 260 3q10 81 41 257q-88 1 -266 1q-44 -1 -90 10l-3 1q-28 13 -33 17q-15 12 -14 34q28 182 33 285v4q15 49 135 49q12 0 51 -2
q261 -11 506 13q15 2 15 -15q0 -11 -7 -32l-10 -28q-6 -26 -13 -52q-9 -21 -41 -21t-21 -2q-12 2 -12 14q0 28 -76 34q-84 -5 -275 -3q-18 -108 -37 -217h183q85 0 114 -4h2q56 -7 65 -10q34 -12 40 -43v-6q-9 -51 -40 -325l-1 -2q-2 -17 -16 -29zM811 41q1 1 1 3
q8 137 41 325q-4 15 -35 21q-23 3 -46 7q-56 4 -111 4h-200q-18 0 -15 17q22 126 43 252q2 18 20 17q98 2 293 3h2q88 0 102 -47q4 1 7 1q11 44 22 76q-236 -22 -488 -10q-115 5 -143 -15q-5 -103 -32 -285q0 -7 29 -20q44 -11 110 -11q57 0 113 1h142q7 1 11.5 -4.5
t3.5 -12.5q-18 -97 -47 -292q-2 -19 -21 -18q-105 -3 -312 -2q-76 2 -88 47h-6l-2 -1l-12 -42q-4 -16 -10 -36q186 17 532 9q79 -2 96 13z" />
    <glyph glyph-name="T" unicode="T" 
d="M1052 606h-24q-12 3 -9 17q8 33 -111 33q-23 0 -51 -1q-13 -1 -27 -1q-40 -1 -76 -1q-59 -282 -95 -564q8 -32 65 -39q53 -6 53 -28q0 -5 -2 -11q-3 -18 -21 -17q-121 4 -242 4q-122 0 -243 -4q-13 -1 -15 9q-1 6 3 20v4q3 16 61 23q62 9 78 38q59 282 100 565
q-76 0 -168 4q-24 1 -59 -7q-46 -9 -46.5 -26t-23.5 -19q20 2 -34 2q-15 0 -16 30q1 -47 3 42q0 23 -1 46q3 34 24 32q230 -16 467 -16q227 0 472 16q15 1 15 -15q0 -6 -21 -63q-7 -26 -15 -52q-10 -21 -41 -21zM282 17l-9 11q123 5 245 5t244 -5l-22 -17l-22 3
q-84 9 -94 65l-1 5q38 294 100 587q3 16 20 16q93 0 185 4q39 2 74 -7q48 -14 53 -44l5 1q5 14 28 80q-230 -15 -452 -15q-232 0 -448 15q0 -40 -2 -80h7q27 51 151 51q20 0 48 -2q32 -1 35 -2q45 -1 92 -1q17 0 15 -16q-42 -294 -104 -587l-1 -4q-27 -55 -118 -66l-37 -4z
" />
    <glyph glyph-name="U" unicode="U" 
d="M635 -3q-70 1 -183 0q-146 -1 -183 -1q-129 0 -125 54l1 4q86 298 110 605q-9 30 -64 42t-56 23q-1 40 23 37q148 -13 349 -16q16 0 14 -16q-40 -295 -111 -643h183q44 321 116 643q4 16 20 16q213 5 360 16q15 2 15 -14q0 -11 -7.5 -23.5t-15.5 -13.5q-62 -10 -69 -12
q-44 -12 -59 -38q-81 -289 -102 -576q9 -32 67 -43q55 -10 55 -21q1 -39 -21 -37q-159 12 -317 14zM938 1q-108 14 -122 71l-1 5q22 294 104 589l2 4q20 37 66 54q23 9 82 18l12 2l-5 -4l9 -13q-142 -11 -345 -16q-71 -321 -114 -642q-3 -19 -21 -18h-219q-7 -1 -11.5 4.5
t-2.5 13.5q71 348 112 642q-193 2 -335 16l22 20v-5l25 -4q81 -15 94 -68l1 -5q-25 -311 -111 -613q0 -22 95 -22q513 0 685 -13l-22 -20v4z" />
    <glyph glyph-name="V" unicode="V" 
d="M1039 704q-32 -9 -84 -34q-140 -258 -291 -659q-5 -15 -20 -14q-100 2 -302 0q-15 -1 -15 13q-14 250 -21 334q-16 187 -44 328q-8 17 -62.5 28t-55.5 24q-1 39 23 37q152 -12 303 -16q13 0 14 -12q17 -140 40 -541q58 136 117 273q69 157 126 270q6 11 18 11
q148 3 299 15q15 2 15 -14q0 -12 -8 -24.5t-17 -12.5q-18 -1 -35 -6zM1071 739l10 -12q-146 -12 -289 -15q-61 -121 -137 -297q-65 -150 -129 -300q-7 -17 -20 -17t-14 17q-8 150 -16 299q-11 172 -26 297q-146 4 -292 16l22 20v-4q105 -18 116 -56v-2q37 -130 50 -321
q8 -166 15 -332q184 2 275 0q53 139 142 348q122 285 154 312q20 18 64 34q39 14 68 17l4 1h10z" />
    <glyph glyph-name="W" unicode="W" horiz-adv-x="1498" 
d="M762 53q-42 -50 -177 -56q-75 -1 -226 -3q-31 -2 -44 -2q-121 0 -121 49q0 5 2 11q108 301 112 607q-12 34 -73 44q-54 8 -54 30q1 30 21 28q88 -5 173 -8l174 -6q15 0 14 -15q-15 -318 -105 -646q61 1 183 2q65 319 110 638q2 18 20 18h229q19 0 14 -18
q-73 -319 -116 -638q58 0 175 -2q22 325 124 647q5 15 20 15q203 5 357 13q16 1 16 -12q0 -12 -9.5 -25t-17.5 -14q-48 -6 -70 -12q-43 -12 -61 -38q-108 -313 -102 -605q1 -40 -54 -53q-16 -4 -80 -8q-18 -1 -163 2q-38 -1 -114 1q-133 5 -157 56zM1562 742l8 -15
q-149 -9 -344 -13q-99 -321 -119 -644q-2 -20 -22 -19q-70 0 -210 3q-16 0 -14 16q42 320 115 639h-193q-45 -319 -111 -639q-4 -16 -20 -16q-37 -1 -109.5 -2t-109.5 -1q-8 -1 -12 5t-2 14q91 327 108 643l-159 6q-86 2 -174 8l22 23q0 -4 1 -7q108 -14 126 -70l1 -5
q-4 -313 -114 -620q-1 -2 0 -4q12 -16 122 -17q-38 1 125 3q37 0 113 1q57 3 87 10q55 14 70 50q6 13 19 13h9q10 0 17 -23q9 -27 44 -38q30 -8 90 -12q38 0 114 -1q141 -2 127 -2q112 1 127 17v4q-6 299 106 619l2 4q37 58 151 71l12 1z" />
    <glyph glyph-name="X" unicode="X" 
d="M743 395l-12 15q72 -3 101 -13q54 -19 55 -70v-3q-19 -105 -25 -240q9 -31 66 -41.5t58 -22.5q1 -39 -21 -37q-145 11 -350 14q-16 0 -14 16q15 140 48 332h-194q-29 -164 -66 -332q-4 -16 -20 -16q-176 -2 -356 -14q-15 -1 -15 14q0 12 8 24.5t17 12.5q27 2 66 13
q53 14 59 33q13 43 59 243q13 55 78 74q30 9 109 12l-17 -15l12 -15q-78 3 -106 13q-57 19 -52 74v2q8 66 20 198q-1 16 -46 30q-34 11 -60 14q-14 1 -14 24q0 30 23 27q115 -10 347 -16q16 0 14 -16q-13 -98 -44 -293h97.5h96.5q27 145 62 293q4 16 20 16q210 5 353 16
q15 2 15 -14q0 -12 -7.5 -24.5t-16.5 -12.5q-31 -3 -67 -12q-52 -14 -57 -30q-25 -80 -53 -199l-1 -3q-21 -51 -81 -71q-36 -12 -106 -15zM951 2q-56 9 -76 17q-39 17 -48 53l-1 5q6 136 25 245q-1 32 -40 43q-8 3 -68 9q-36 4 -33 19l1 4q2 15 28 19q19 1 37 1q83 7 104 56
q28 119 53 199q18 57 147 71l4 1h10l-7 -5l10 -12q-138 -11 -339 -16q-35 -147 -61 -292q-3 -17 -20 -17q-38 0 -115 -1h-114q-18 0 -15 17q18 98 44 293q-220 5 -332 16l22 20v-4q118 -17 120 -71q-10 -124 -21 -201q0 -36 39 -47q11 -4 71 -9q37 -3 34 -19v-4
q-3 -16 -30 -19h-37q-90 -4 -101 -52q-18 -82 -60 -245q-11 -34 -66 -56q-39 -15 -83 -19l-4 -1h-10l7 5l-9 12q173 12 341 14q36 167 66 332q3 17 20 17h229q18 0 15 -17q-35 -193 -50 -332q196 -2 335 -14l-22 -20v5z" />
    <glyph glyph-name="Y" unicode="Y" 
d="M1041 704q-69 -10 -89 -44q-26 -88 -60 -257q-14 -73 -182 -70h-2q-1 0 -38 -1q-2 -8 -36 -244q8 -28 62.5 -37t55.5 -19q0 -10 -1 -20q-4 -18 -21 -17q-121 3 -241 3t-241 -4q-13 -1 -15 9q-1 6 3 20v4q3 15 29 19q19 2 37 4q67 9 76 36q9 40 48 247h-41q-48 2 -95 5
q-54 9 -67 49q0 -1 19 142q8 64 13 129q-9 31 -64 43t-56 23q-1 40 23 37q148 -13 349 -16q16 0 14 -16q-25 -180 -47 -308h173q19 103 62 308q4 16 20 16q213 5 360 16q15 2 15 -14q0 -11 -7.5 -23.5t-15.5 -13.5q-19 -3 -40 -6zM1076 740l9 -13q-142 -11 -345 -16
q-17 -73 -61 -307q-4 -17 -21 -17h-208q-17 0 -14 17q22 128 47 307q-192 2 -334 16l22 20v-5l25 -4q81 -15 94 -68l1 -5q-8 -111 -33 -265q10 -25 59 -30l76 -2l57 -1q18 0 14 -17q-16 -89 -52 -268q-19 -59 -146 -71l-14 -1l9 7l-9 11q123 6 243 5q121 -1 242 -4l-15 -11
l8 -7q-119 7 -132 67v5q12 89 40 267q5 22 78 18q52 2 77 6q61 9 65 29q34 172 61 263l2 4q20 37 66 54q23 9 82 18l12 2z" />
    <glyph glyph-name="Z" unicode="Z" 
d="M462 87q82 2 224 -2q48 3 58 5q39 8 48 32q5 12 25 13q-37 -2 30 -2q15 0 14 -15q-4 -58 -5 -112q0 -22 -22 -20q-157 12 -323 12q-186 0 -386 -15q-18 -2 -18 11q0 8 8 17q112 119 281 320q217 259 274 325q-87 3 -261 2q-47 -3 -68 -26.5t-28 -22.5t-16 1q-33 0 -31 18
q6 55 8 111q1 21 22 19q166 -14 335 -14q186 0 375 17q18 2 18 -11q0 -8 -8 -17q-115 -120 -281 -319q-231 -278 -273 -327zM962 723q-169 -14 -337 -14q-159 0 -316 13q-2 -44 -5 -78h5q34 52 141 49q180 -4 260 -2q18 1 18 -12q0 -7 -8 -15q-76 -87 -274 -323
q-172 -206 -278 -321q181 13 350 13q156 0 303 -11q1 38 4 77h-3h-4q-20 -30 -64 -41q-19 -5 -74 -8q-161 4 -258 2q-18 -1 -18 12q0 7 8 15q67 76 272 324q169 203 278 320z" />
    <glyph glyph-name="bracketleft" unicode="[" horiz-adv-x="787" 
d="M457 -88q-99 -1 -199 -19q-9 -2 -14 3.5t-3 14.5q107 449 158 898q3 23 25 18q85 -20 183 -20t206 20q9 2 14 -3t3 -14q-1 -6 -4 -17q-2 -14 -49 -31q-30 -9 -61 -18q-51 -18 -78 -34l-124 -701q24 -20 74 -37q62 -21 78 -29q10 -5 8 -16q-1 -6 -2 -17q-4 -21 -24 -17
q-93 19 -191 19zM637 -85q-46 17 -92 35q-71 28 -68 50l127 719q4 20 85 50q53 18 105 36l5 2l5 2l-3 -4l12 -12q-111 -21 -213 -21q-89 0 -168 16q-50 -428 -151 -857q96 15 187 15q101 0 193 -19l-24 -17v5z" />
    <glyph glyph-name="backslash" unicode="\" 
d="M572 75q-28 55 -159 330q-97 201 -166 325q-3 5 -3 10q0 20 24 17q138 -16 350 -16q7 0 15 -11t8 -22q0 -16 -20.5 -17.5t-42.5 -2.5q-30 -4 -39 -17q32 -64 84 -171q99 -213 116 -247q67 -139 127 -240q3 -6 3 -11q0 -19 -23 -17q-186 14 -350 13q-10 -1 -14 7l-4 10
q-5 9 -5 16q0 16 45.5 18.5t52.5 20.5q1 3 1 5zM602 707q-182 0 -306 12q65 -117 157 -310q118 -249 151 -313q5 -8 3 -18q-5 -31 -26 -45h-1q111 -2 236 -11q-64 112 -156 309q-110 236 -150 313q-6 12 -6 24q0 25 32 41q27 14 62 15q15 0 26 1l-17 -28q-3 5 -5 10z" />
    <glyph glyph-name="bracketright" unicode="]" horiz-adv-x="787" 
d="M457 -88q-99 -1 -199 -19q-9 -2 -14 3t-3 14q0 3 1.5 8.5t2.5 8.5q2 14 48 30q30 9 61 18q49 16 77 34q65 350 124 701q-24 18 -74 36q-57 20 -77 31q-9 5 -7 16q1 3 1.5 8.5t0.5 8.5q4 22 25 17q85 -20 183 -20t206 20q9 2 14 -3.5t3 -14.5q-111 -465 -158 -898
q-3 -23 -24 -18q-93 19 -191 19zM434 804q45 -18 91 -36q70 -29 66 -49q-60 -360 -127 -719q-3 -22 -83 -50q-52 -17 -104 -35l-5 -2l-5 -2l3 4l-12 12q109 20 210 20q90 0 171 -16q47 414 151 858q-99 -17 -189 -17q-102 0 -191 21l24 17v-6z" />
    <glyph glyph-name="asciicircum" unicode="^" 
d="M770 358q-59 50 -150 151l-112 -86q-91 -68 -104 -68q-45 -1 -134 -4q-19 -2 -19 12q0 11 13 19q78 49 189 137q160 126 184 144q13 10 22 0q66 -73 131 -146q79 -87 142 -134q8 -6 8 -14q0 -20 -24 -18q-34 2 -68.5 1.5t-77.5 5.5zM855 388h11q-49 42 -115 117
q-96 108 -110 122q-101 -83 -310 -239h11l62 1q49 32 211 157q13 11 23 0q95 -107 154 -157q20 0 63 -1z" />
    <glyph glyph-name="underscore" unicode="_" horiz-adv-x="1138" 
d="M-37 -193q-18 -1 -18 13q0 13 17 20q8 3 25 10q-2 6 -24 16q-10 5 -10 15q0 19 23 18h1156q18 1 18 -13q0 -13 -16 -20q-11 -3 -32 -12q1 -3 24 -14q10 -5 10 -15q0 -19 -23 -18h-1150zM1067 -158q-4 13 0 22h-1045q3 -7 3 -13q0 -16 -19 -27q-4 -3 -36 -16l-1 33z" />
    <glyph glyph-name="grave" unicode="`" horiz-adv-x="490" 
d="M418 600q-15 0 -106 75q-45 37 -95 69q-9 5 -9 14q0 19 23 18q68 -1 139 -6q61 -50 191 -142q9 -5 9 -14q0 -19 -24 -18q-127 4 -128 4zM293 738q44 -35 136 -104q-3 0 125 -4l-15 -32q-38 22 -95 68q-68 54 -94 71q-29 0 -57 1z" />
    <glyph glyph-name="a" unicode="a" 
d="M638 -7q-141 0 -325 -4q-151 -4 -151 49q0 6 3 13q31 91 52 207q11 65 271 61h159q6 31 18 91l-122 1q-16 0 -67 2q-45 2 -71 1q-39 -1 -66 -8.5t-41 -29.5q-10 -16 -37 -13q-8 1 -15 1q-15 0 -16 29q2 -51 3 42q0 4 -1 18t-1 22q0 38 22 36q172 -11 548 -11
q131 0 126 -57l-1 -3q-56 -178 -68 -364q12 -32 71 -37q53 -5 52 -28q-1 -30 -21 -28q-161 9 -322 10zM945 0q-104 8 -122 63v6q11 190 68 373q1 24 -96 24q-365 0 -527 9q1 -26 -1 -77l6 -1q33 53 137 50q85 -2 140 -2h140q13 0 13 -19q0 -11 -5 -32q-7 -28 -7 -29
q-4 -23 -7 -46q-9 -34 -26 -34l-248 -1q-140 -2 -159 -30q-21 -117 -53 -209v-2q4 -10 56 -16q40 -4 65 -4q367 10 649 -6l-21 -23zM631 229h-87q-42 0 -85 -1q-9 -49 -30 -147q45 1 89 1h89q11 73 24 147zM669 246q-16 -91 -29 -180q-3 -18 -21 -18h-108q-52 0 -106 -2
q-9 -1 -13 4.5t-2 14.5q15 56 37 180q3 17 20 17q52 1 103 1h104q18 0 15 -17z" />
    <glyph glyph-name="b" unicode="b" 
d="M871 16q-32 -30 -173 -23q-123 5 -241 5q-200 0 -390 -15q-15 -2 -15 14q0 11 7.5 23.5t15.5 13.5q59 10 67 13q42 11 57 37q73 285 100 570q-8 34 -70 45q-37 7 -39 8q-8 5 -8 30q-1 9 6 15t16 5q130 -13 345 -16q17 0 14 -17q-17 -109 -36 -216h235q127 0 158 -24
q21 -16 17 -36q-20 -107 -50 -400l-1 -3q-1 -16 -15 -29zM217 738l24 -4q83 -15 94 -70v-5q-27 -290 -103 -580l-2 -5q-19 -36 -63 -54q-24 -9 -80 -18l-12 -2l5 4l-9 13q191 16 392 16q119 0 243 -6q124 -5 144 14q1 1 1 3q5 164 51 401q-8 29 -147 29h-252q-17 0 -14 17
q19 107 36 216q-205 3 -330 16l18 17l4 3v-5zM684 418q-16 -1 -172 -1q-14 -82 -60 -328q46 0 92 -1l89 -1q15 135 51 331zM667 70q-2 -21 -47 -21q-13 0 -41.5 2t-41.5 3h-108q-17 -1 -17 33q0 51 36 166q17 91 32 182q3 17 21 17q180 0 206 1q8 1 12.5 -4.5t2.5 -12.5
q-40 -217 -55 -366z" />
    <glyph glyph-name="c" unicode="c" 
d="M568 -8q-172 1 -254 -1l-52 -2q-117 0 -117 46q0 5 1 10l1 3q19 66 50 198q1 6 20 198v3q6 57 131 57q-10 0 56 -2q275 -7 509 9q10 1 14 -5t1 -16q-22 -54 -38 -111q-4 -14 -23 -16q-15 0 -30 -1q-10 -2 -15 3t-4 14q4 23 -28 30q-2 1 -51 4q-166 -4 -263 -2
q-24 -165 -58 -329q100 2 271 -2q32 2 47 6q31 8 35 28q2 16 24 18q-16 -2 33 -2q16 0 16 -30q0 48 -3 -42q1 -23 1 -46q-1 -31 -22 -29q-126 9 -252 9zM574 27q116 0 231 -8v35l2 42l-7 1q-23 -50 -116 -52h-2q-96 2 -288 2q-8 -1 -12.5 4.5t-2.5 13.5q39 181 64 363
q3 19 21 18q94 3 282 2h1q47 -1 67 -7q37 -11 40 -43h6q12 39 26 77q-225 -14 -489 -7q-139 3 -144 -20q-4 -195 -72 -404v-4q15 -18 138 -15q83 3 255 2z" />
    <glyph glyph-name="d" unicode="d" 
d="M598 -3q-177 3 -361 -5q-127 -6 -127 43q0 5 1 10l1 2q48 196 49 200q27 115 40 201l2 5q15 32 51 42l64 10h3q25 4 138 4q8 0 13 -1q14 1 119 1h41q19 106 42 216q4 16 21 16q198 3 351 16q16 2 16 -14q0 -11 -7.5 -23.5t-16.5 -13.5q-53 -9 -68 -13q-43 -13 -57 -38
q-75 -280 -102 -571q8 -33 67 -42q55 -7 54 -31q-1 -30 -22 -28q-156 12 -312 14zM896 2l-25 4q-85 13 -95 68l-1 5q28 296 104 582l2 4q30 56 119 69l39 6l-6 -4l10 -13q-147 -14 -337 -16q-23 -109 -42 -216q-3 -17 -35 -19q54 3 -44 3q-101 0 -114 -1q5 1 -18 1
q-84 0 -134 -4l-44 -6q-31 -6 -39 -20q-37 -233 -90 -401v-4q18 -17 140 -13q335 13 632 -10l-22 -20v5zM587 253l29 164h-173q-24 -153 -64 -330l90 1q46 1 92 1q12 82 26 164zM622 253q-16 -91 -29 -181q-3 -19 -21 -18h-108q-13 -1 -42 -3t-42 -2q-45 0 -40 21
q45 196 71 365q3 17 21 17h208q17 0 14 -17z" />
    <glyph glyph-name="e" unicode="e" 
d="M588 -8q-153 2 -253 -1q-68 -3 -89 0h-3q-78 8 -78 43q0 5 1 11l1 3q19 66 50 198q1 6 20 198v3q6 57 132 57q-5 0 56 -2q72 -2 169 -2q9 0 70 2t101 2q110 0 140 -13q26 -11 26 -34q0 -6 -2 -13q-36 -104 -55 -228q-3 -18 -21 -17h-398q-7 -39 -23 -117q133 1 267 -2
l29 2q56 4 61 32q2 16 24 18q-16 -2 33 -2q16 0 16 -30q0 48 -3 -42q1 -23 1 -46q-1 -31 -22 -29q-125 8 -250 9zM594 27q115 -1 229 -8v35l2 42l-6 1q-19 -44 -94 -50l-33 -2q-94 1 -285 2q-7 -1 -11.5 4.5t-2.5 13.5q10 51 31 152q3 17 20 17h207h190q20 116 54 216
q6 17 -92 19q-39 1 -107 -1q-79 -2 -108 -2q6 0 -86 2q-78 2 -127 0q-71 -2 -92 -10q-9 -3 -10 -10q-4 -195 -72 -404q-1 -9 53 -19q36 -1 86 0q101 4 254 2zM670 411q-91 -1 -180 0q-8 -62 -19 -123h173q9 47 26 123zM676 271q-3 -17 -20 -17h-208q-18 0 -15 17
q14 78 24 157q2 19 21 18q107 -1 216 0q8 1 12.5 -4.5t2.5 -13.5q-22 -97 -33 -157z" />
    <glyph glyph-name="f" unicode="f" horiz-adv-x="787" 
d="M879 612q-11 1 -12 13q-1 37 -101 37q-23 0 -54 -2q-34 -2 -35 -2q-42 -1 -79 -1q-9 -51 -27 -151q88 0 192 2q14 1 14 -18q0 6 -11 -54q-3 -17 -20 -17q-29 -2 -191 -2l-55 -328q6 -30 63 -37q54 -7 53 -22q-4 -35 -23 -34q-64 1 -129 1q-174 0 -352 -13q-14 -2 -15 9
q-1 8 5 21q28 22 64 27.5t56 18.5q11 7 19 20q46 192 70 339q-53 0 -108 2q-17 0 -14 17q4 30 9 60q4 13 26 13q6 0 24 -1t32 -1q22 0 45 -1q13 88 21 177l1 3q10 34 75 47h3l53 6q10 1 55 1h45l-21 -17q75 17 199 23q187 10 201 11q16 2 16 -15q0 -3 -17 -59l-14 -52
q-10 -19 -42.5 -19t-20.5 -2zM137 20q240 18 397 -1q-63 14 -69 62v5l58 349q3 17 21 17q177 0 191 1l2 11l2 9q-96 -2 -192 -2q-18 0 -14 17q5 31 16.5 93t16.5 93q3 17 21 17q23 0 114 3q70 3 113 0q75 -3 86 -46h6l4 1q7 24 12 40l10 34q-137 -12 -212 -12q-90 0 -128 14
q-3 -17 -20 -17h-45q-43 0 -51 -1l-52 -6q-20 -4 -43 -16q-9 -97 -24 -195q-3 -18 -36 -19q41 2 -48 3q-21 0 -44 1l-1 -8l-1 -12q54 -2 107 -2q17 0 14 -17q-24 -157 -73 -361l-3 -6q-23 -39 -69 -53q-4 -1 -84 -15l18 20v-1z" />
    <glyph glyph-name="g" unicode="g" 
d="M77 -236q-1 1 33 121q5 17 58 17q10 0 14.5 -19t27.5 -26q33 -9 102 -6l104 4q64 1 123 1q8 42 21 125q-264 0 -202 -2q-153 3 -188 26q-24 15 -19 37q45 219 52 402l1 4q7 24 30 35q11 4 44 11h3q37 8 108 4q110 -4 220 -4q208 0 416 16q15 2 15 -14q0 -11 -7.5 -23.5
t-15.5 -13.5q-33 -5 -67 -10q-42 -10 -57 -35q-78 -291 -103 -592q-6 -37 -58 -49q-14 -3 -80 -7q-18 -1 -49 0q-280 5 -510 -14q-15 -2 -16 12zM1012 489l9 -13q-209 -17 -418 -17q-111 0 -222 5q-48 2 -101 -4q-19 -3 -42 -14q-7 -183 -52 -402q8 -25 146 -29q82 1 164 1
l88 -1q17 0 14 -17q-9 -52 -26 -158q-2 -18 -20 -18q-139 0 -283 -5q-110 -4 -121 50h-8q-16 -55 -27 -86q1 -4 1 -7l-1 -2q0 3 -11 8.5t-6 5.5l13 2q223 18 501 12q121 -2 144 17q0 1 1 3q25 305 105 600l1 4q20 37 64 52q18 6 79 15l6 1l7 1zM606 239q14 82 31 167h-88
q-44 0 -88 1q-19 -154 -53 -334h84h84zM641 239l-33 -183q-3 -17 -20 -17q-34 0 -102 -1h-101q-18 0 -15 17q38 199 58 369q3 19 22 18q53 -2 105 -2h106q18 0 14 -17q-18 -93 -34 -184z" />
    <glyph glyph-name="h" unicode="h" 
d="M613 -3q-16 0 -14 16q15 133 62 404h-172q-30 -180 -78 -404q-4 -16 -20 -16q-177 -2 -357 -14q-15 -1 -15 14q0 12 7.5 24t16.5 13q97 11 124 51q76 270 102 578q-16 30 -72 37q-48 6 -47 29q1 30 22 28q187 -15 350 -15q17 0 14 -16q-15 -109 -32 -219q98 3 293 -4
q60 -6 71 -9q40 -11 46 -43q0 -3 -15 -93q-8 -48 -17 -96q-13 -88 -18 -177q9 -32 66 -43t57 -22q1 -39 -21 -37q-179 12 -353 14zM952 1q-109 14 -123 72l-1 5q9 154 50 364q-7 26 -143 30q-29 1 -163 0q-46 -1 -92 1q-17 0 -14 17q17 109 33 218q-156 0 -336 15l22 20v-4
l23 -3q31 -4 60 -20q39 -20 37 -45q-26 -316 -105 -593l-2 -5q-36 -58 -144 -72h-4l-9 -1l6 4l-9 13q173 12 342 14q47 223 77 403q3 17 21 17h207q17 0 14 -17q-24 -134 -63 -403q167 -2 338 -14l-22 -20v4z" />
    <glyph glyph-name="i" unicode="i" horiz-adv-x="654" 
d="M512 540q-28 -11 -66 -11q-70 0 -89 2q-60 6 -72 32q-5 12 -5 27q0 26 14 46t41 22q39 8 99 8q136 0 136 -51q0 -27 -21 -50q-12 -15 -37 -25zM519 580q14 9 14 26q0 7 -4 11q-20 15 -102 15q-36 0 -92 -8h-3q-17 -3 -17 -27q0 -21 15 -24q56 -12 84 -11l54 2q32 3 51 16
zM90 -17q-13 -2 -15 6q-2 4 1 19q4 21 21 27q19 3 37 6q65 11 86 44q30 145 61 333q-8 28 -62 36q-48 7 -46 22l3 17q4 19 22 17q127 -10 329 -6q7 1 11.5 -4.5t2.5 -12.5q-42 -215 -66 -402q9 -33 70 -44q17 -3 35 -6q15 -6 11 -27q-5 -28 -23 -25q-117 14 -237 14
q-119 0 -241 -14zM555 2l-22 4q-82 15 -93 69v5q23 181 63 389q-165 -3 -217 2q35 -23 31 -49q-32 -193 -63 -342l-3 -5q-30 -54 -117 -69l-38 -6l6 4l-10 13q124 15 246 15q121 0 240 -15l-23 -20v5z" />
    <glyph glyph-name="j" unicode="j" horiz-adv-x="604" 
d="M537 559q-47 -35 -147 -35q-42 0 -78.5 7t-36.5 45q0 7 2 15q6 50 57 59q92 17 154 17q50 0 66.5 -12t16.5 -33q0 -37 -34 -63zM518 586q17 12 17 30q0 17 -50 17q-73 0 -151 -17q-20 -3 -22 -25l-1 -3q-1 -4 -1 -6q0 -19 57 -23q106 -7 151 27zM395 -212
q-35 -24 -168 -18q-149 5 -300 -18q-17 -3 -17 16q0 -3 15 59q5 26 11 52q9 23 40.5 23t22.5 2q12 -2 11 -16q-4 -29 52 -29h32q34 2 69 2l97 553q-12 24 -65 31q-47 5 -44 21l1 8q5 27 22 25q166 -9 338 8q8 1 13 -4t3 -14q-78 -355 -113 -672l-1 -5q-6 -15 -19 -24z
M188 482q44 -5 63 -13q32 -12 44 -41v-9l-100 -575q-3 -17 -21 -17q-14 0 -42.5 -1.5t-42.5 -1.5h-2h-15q-10 1 -16 1q-75 0 -82 43l-5 -1q-6 -25 -19 -77q78 11 170 13q83 0 166 1q26 0 46 2q43 4 48 12q35 308 109 653q-164 -16 -323 -6l22 21v-4z" />
    <glyph glyph-name="k" unicode="k" 
d="M707 260l-12 15q71 -3 102 -14q53 -20 58 -70v-5q-3 -21 -5 -63q-1 -49 6 -56q30 -26 103 -33q14 -1 14 -26q0 -27 -22 -25q-174 12 -349 14q-16 0 -14 16q12 101 27 198q-85 1 -171 0q-19 -100 -40 -198q-4 -16 -20 -16q-177 -2 -359 -14q-15 -1 -15 14q0 12 7.5 24
t16.5 13q46 5 67 12q39 12 57 38q78 280 101 571q-7 32 -63 42.5t-56 22.5q-1 39 22 37q175 -15 353 -15q17 0 14 -16q-23 -178 -68 -425h169l14 84q9 51 19 102q5 26 88 26q29 0 65 -3t32 -4q82 1 164 3q8 1 12.5 -4.5t2.5 -12.5l-1 -8q-4 -23 -42 -29q-56 -7 -81 -23
q-8 -4 -17 -54q-10 -55 -25 -79q-21 -32 -72 -45q-34 -9 -100 -9zM937 1q-125 14 -123 77q0 35 6 105q-5 35 -44 46q-10 3 -70 10q-35 4 -32 19l1 4q3 17 20 17q131 0 146 55q6 19 10 44q9 47 15 60q12 22 51 38q27 11 75 16l15 1l-10 -7l10 -11q-82 -2 -312 -5
q-8 -43 -16 -85l-17 -101q-4 -17 -21 -17h-204q-18 0 -14 17q45 247 69 424q-171 0 -339 15l14 13l8 7v-5l25 -4q84 -13 95 -69v-4q-24 -297 -104 -584l-2 -5q-36 -58 -144 -71h-4l-9 -1l6 4l-9 13q175 12 344 14q20 98 40 197q3 17 20 17q51 1 103 1q51 0 103 -1
q16 0 14 -17q-16 -97 -28 -197q168 -2 334 -14l-22 -20v4z" />
    <glyph glyph-name="l" unicode="l" horiz-adv-x="654" 
d="M343 -2q-118 0 -239 -14q-13 -2 -15 6q-1 4 1 19q5 25 55 33q59 9 81 36q64 301 102 573q-7 32 -66 45q-54 11 -50 35q6 29 24 26q137 -22 350 -13q8 1 12.5 -4.5t3.5 -13.5q-78 -341 -117 -639q5 -31 65 -43q54 -11 50 -36q-5 -28 -23 -25q-116 15 -234 15zM564 3
q-54 12 -72 21q-38 18 -43 55v4q39 292 114 626q-204 -8 -338 14l23 20v-6q54 -12 72 -21q37 -19 44 -55v-5q-39 -277 -104 -584q-5 -24 -49 -45q-35 -17 -67 -21q-12 -1 -20 -3l-6 -1l-8 -1l6 4l-10 13q123 14 243 14q121 0 238 -15l-23 -20v6z" />
    <glyph glyph-name="m" unicode="m" horiz-adv-x="1491" 
d="M829 445q42 51 177 56h2q75 1 225 2q162 5 162 -47q0 -7 -3 -16q-79 -174 -72 -358q13 -30 71 -40.5t59 -18.5q5 -20 5 -23q0 -18 -21 -17q-181 6 -354 8q-18 0 -18 63q0 66 16 163.5t45 193.5q-57 0 -173 -1q-51 -232 -65 -398q-1 -19 -20 -19h-227q-19 0 -15 18
q50 220 73 399q-82 0 -180 1q-11 -207 -84 -406q-5 -14 -19 -14l-351 -8q-16 -1 -16 12q0 11 10.5 24.5t18.5 14.5q53 6 72 11q45 11 63 37q63 164 58 329q-13 30 -71 41t-59 18q-4 16 -4 23q0 19 21 18q188 -1 563 -14q89 -5 111 -52zM1330 21q-33 17 -44 47l-1 4
q-9 193 74 376v4q-11 21 -244 15q-56 -1 -113 -1q-78 -7 -88 -9q-55 -13 -70 -50q-6 -13 -20 -13h-9q-9 0 -16 23q-9 27 -43 37t-93 12q-172 2 -516 11l21 24l2 -8q112 -13 132 -68l1 -4q6 -175 -61 -349l-2 -3q-35 -54 -127 -65l-40 -4l2 1l-9 16q17 1 338 8q70 197 77 402
q1 20 21 19q110 -2 217 -2q17 0 15 -16q-23 -181 -72 -401h190q15 167 67 401q4 16 20 16q70 1 210 2q9 1 13 -5t2 -14q-71 -221 -64 -402q96 -1 164 -3z" />
    <glyph glyph-name="n" unicode="n" 
d="M788 -11l-177 4q-15 0 -14 16q17 187 66 402h-178q-28 -201 -75 -403q-4 -16 -20 -16q-156 0 -359 -9q-16 -1 -16 13q0 11 9.5 24t17.5 14q50 6 69 11q43 11 59 36q50 165 58 330q-11 31 -70 42q-54 10 -55 21q-1 39 21 37q305 -17 636 -10q169 4 169 -47q0 -5 -1 -11
l-1 -3q-63 -238 -69 -358q13 -32 72 -41q55 -8 54 -30q-1 -30 -21 -28q-88 5 -175 6zM948 1q-107 14 -124 68l-1 6q8 194 70 369q2 17 -63 21q-31 2 -75 2q-333 -8 -639 10l22 20v-4q107 -14 125 -69l1 -6q-8 -172 -61 -344l-2 -5q-32 -54 -122 -65l-39 -4l4 2l-9 15
q198 9 344 9q46 201 73 401q2 18 20 18q72 0 215 1q8 1 12.5 -4.5t2.5 -13.5q-50 -215 -68 -401q113 -2 337 -10l-21 -23q-1 4 -2 7z" />
    <glyph glyph-name="o" unicode="o" 
d="M833 12q-34 -29 -170 -25q-71 2 -169 2q-12 0 -135 -3q-81 -2 -133 2q-76 4 -76 42q0 5 2 11v3q50 200 71 401v3q6 56 136 56q-8 0 57 -2q73 -2 168 -2q9 0 70.5 2t101.5 2q110 0 141 -13q26 -11 26 -34q0 -6 -2 -13q-35 -104 -52 -200q-1 -5 -19 -200v-3q-2 -17 -17 -29
zM814 37v3q2 194 73 410v3q-15 20 -138 16q-82 -3 -171 -3q-3 0 -98 2q-80 2 -127 0q-67 -2 -85 -10q-8 -4 -9 -9q-7 -205 -72 -409q-2 -15 63 -19q32 -1 80 0q56 2 170 2q-7 0 99 -2q82 -2 131 0q69 4 84 16zM658 411q-91 -1 -181 0q-26 -185 -59 -333h179q22 166 61 333z
M630 61q-2 -19 -21 -18h-215q-8 -1 -12 4.5t-3 13.5q38 163 65 367q3 19 21 18q108 -1 217 0q8 1 12.5 -4.5t2.5 -13.5q-44 -184 -67 -367z" />
    <glyph glyph-name="p" unicode="p" 
d="M835 6q-38 -22 -198 -26q26 1 -206 1q-11 -62 -20 -124q7 -30 64 -36q53 -5 50 -21q0 -5 -2 -16q-3 -18 -20 -17q-286 2 -478 -15q-16 -2 -16 14q0 11 7.5 23.5t15.5 13.5q60 10 67 13q41 11 57 37q70 277 98 555q-9 31 -65 42.5t-56 22.5q-1 40 23 37q175 -16 377 -16
q119 0 253 5q47 2 45 2q35 0 45 -1h2q81 -8 81 -41q0 -6 -2 -12v-3q-51 -200 -52 -201q-27 -115 -40 -201q-3 -20 -30 -36zM169 491l24 -4q82 -13 96 -68v-6q-27 -282 -99 -565l-2 -5q-21 -37 -64 -54q-24 -9 -79 -18l-13 -2l5 4l-9 13q193 18 481 15l-12 -10l7 -8
q-56 3 -80 12q-42 15 -48 53v6q10 72 23 144q3 17 21 17l251 1q49 1 80 4q67 7 79 24q34 230 92 404q1 9 -55 18q-21 1 -42 1q2 0 -43 -2q-135 -6 -255 -6q-204 0 -381 17l23 20v-5zM689 408q-95 -2 -184 -2q-6 -42 -58 -333h175q30 179 67 335zM654 56q-2 -17 -20 -17h-210
q-18 0 -15 17q23 122 64 367q3 17 21 17q109 0 220 3q8 1 12 -4.5t2 -13.5q-41 -172 -74 -369z" />
    <glyph glyph-name="q" unicode="q" 
d="M541 -137q7 39 19 117l-72 1q-15 0 -46 -1h-45q-195 0 -230 25q-23 16 -19 37q19 91 52 403v2q3 27 30 38q4 2 49 13h3q62 2 164 -1q123 -3 163 -3q208 0 416 16q15 2 15 -14q0 -11 -7.5 -23.5t-15.5 -13.5q-58 -10 -69 -13q-44 -12 -59 -38q-73 -272 -99 -555
q7 -30 65 -42q55 -11 55 -22q1 -39 -22 -37q-203 17 -473 15q-7 -1 -11.5 4.5t-3.5 12.5q2 5 4 16q3 16 60.5 21.5t74.5 38.5zM1012 489l9 -13q-209 -17 -418 -17q-40 0 -162 3q-101 3 -162 2q-12 -3 -24 -5q-18 -4 -19 -11q-8 -183 -53 -404q9 -30 221 -30q15 0 45 1h45h90
q14 0 14 -23q0 -1 -11 -64q-4 -24 -19 -84q-31 -54 -148 -61l9 8l-8 10q271 3 476 -15l-22 -20l-1 5l-24 4q-85 13 -95 68v5q26 288 101 566l1 4q31 56 121 69l39 6zM606 239q14 82 31 167h-93q-46 0 -92 1q-16 -144 -52 -334h88.5h87.5zM641 239l-33 -183q-3 -17 -20 -17
q-35 0 -106 -1h-105q-18 0 -15 17q40 210 57 369q2 19 22 18q55 -2 109 -2h111q18 0 14 -17q-18 -93 -34 -184z" />
    <glyph glyph-name="r" unicode="r" horiz-adv-x="913" 
d="M915 363h-18q-10 0 -14.5 18.5t-28.5 25.5q-12 4 -62 7q-133 -3 -259 -3q-28 -164 -58 -328q7 -30 64 -36q53 -5 50 -21q0 -5 -2 -16q-3 -18 -20 -17q-268 2 -479 -10q-15 -1 -15 13q0 12 8.5 24.5t16.5 13.5q45 5 67 11q41 12 57 37q46 169 57 328q-9 32 -67 43
q-54 10 -55 21q-1 39 21 37q159 -11 314 -11q211 0 317 3q69 3 91 0h2q39 -4 54 -11q27 -13 21 -45v-3q-8 -23 -15 -46q-13 -33 -24.5 -34t-22.5 -1zM192 493q108 -14 123 -71v-5q-12 -166 -59 -342l-3 -5q-34 -56 -145 -69h-4l-8 -1l5 4l-9 13q213 13 481 10l-12 -10l6 -8
q-55 3 -79 12q-42 15 -48 53v6q31 174 61 348q3 17 21 17q139 0 277 4q53 -3 71 -8q40 -12 46 -44l9 1q0 1 18 50q1 11 -21 16q-16 2 -31 5q-12 0 -183 -3q-80 -1 -222 -1q-151 0 -316 12l22 20v-4z" />
    <glyph glyph-name="s" unicode="s" 
d="M822 16q-30 -29 -170 -25q-265 7 -506 -8q-15 -1 -15 14q0 11 9 33q5 14 11 28q20 64 22 65.5t48 6.5q11 2 17 -16q6 -21 29 -28q39 -10 100 -9l102 4q60 1 120 0q5 40 19 123q-34 0 -112 -1q-73 -1 -112 0q-62 1 -110 8q-74 9 -74 55q0 12 4 38q6 35 8 50q1 30 5 90v3
q5 57 130 57q-8 0 56 -2q274 -7 506 9q15 2 15 -13q0 -11 -9 -33q-6 -15 -11 -30q-17 -55 -18 -57q-10 -18 -37 -18q-9 0 -18.5 1.5t-15 19.5t-28.5 25q-12 3 -64 6q-159 -4 -251 -2q-6 -39 -19 -119h189q164 0 198 -28q13 -12 14 -31v-4q-17 -111 -17 -180l-1 -3
q-3 -17 -14 -29zM799 39q1 1 2 5q0 70 17 182q-3 31 -182 31h-206q-17 0 -14 17q8 51 23 153q2 19 21 18q101 -2 270 2q56 -3 72 -8q41 -11 48 -43h3h3q8 27 26 79q-223 -14 -486 -7q-138 3 -143 -20q-1 -72 -18 -182q9 -24 138 -28q14 0 152 1q53 1 107 -1q17 0 14 -17
q-9 -52 -23 -157q-2 -19 -21 -18q-56 1 -278 -1q-106 -2 -120 50h-6q-13 -43 -25 -76q232 13 486 6q123 -3 140 14z" />
    <glyph glyph-name="t" unicode="t" horiz-adv-x="787" 
d="M522 417q-31 -164 -56 -329q8 -29 66 -39q54 -9 51 -24l-2 -9q-4 -27 -22 -25q-96 7 -194 7q-141 0 -285 -15q-13 -2 -15 6q-2 4 1 19q4 25 63 36q64 12 80 41q37 167 64 333q-21 0 -102 3q-17 0 -14 17q1 9 3.5 28t4.5 28q3 18 36 18q10 0 26.5 -2t18.5 -2q21 -1 41 -1
q5 35 15 106q-8 32 -67 43q-53 11 -49 35q5 29 24 26q140 -19 349 -15q8 1 12.5 -4.5t2.5 -13.5q-11 -50 -20 -98l-16 -81q91 1 185 5q15 1 15 -15q0 2 -6 -30q-3 -21 -5 -27q-7 -17 -20 -17q-17 -1 -185 -4zM222 697q53 -11 72 -20q36 -18 43 -54v-5q-5 -43 -17 -128
q-3 -18 -21 -18q-40 0 -102 3l-1 -8q-1 -4 -2 -12q73 -3 103 -3q17 0 14 -17q-28 -176 -68 -354l-2 -4q-18 -37 -62 -54q-18 -7 -79 -20l-6 -2l-7 -1l5 4l-10 13q146 16 290 16q99 0 196 -8l-22 -21q-1 3 0 6q-52 8 -71 17q-37 16 -45 51v6q27 175 60 350q3 17 20 17
q62 1 186 4q0 2 1 10l2 10q-94 -5 -185 -5q-15 -1 -15 21q0 14 8 46q11 46 12 49q8 40 16 81q-200 -3 -336 16l23 20v-6z" />
    <glyph glyph-name="u" unicode="u" 
d="M645 -8q-207 2 -319 0q-58 -2 -89 2h-2q-78 8 -78 44q0 6 1 12l1 3q17 60 46 180q15 89 20 178q-11 31 -68 42q-53 10 -54 21q-1 39 21 37q88 -5 175 -7l177 -4q16 0 14 -16q-24 -201 -67 -403h178q25 202 76 404q4 16 20 16q178 0 359 10q16 1 16 -12q0 -12 -9.5 -25
t-17.5 -14q-49 -6 -70 -12q-42 -11 -61 -37q-50 -161 -59 -330q13 -33 74 -41q56 -6 55 -29q-1 -29 -21 -28q-159 8 -318 9zM948 0q-109 10 -128 68v6q8 176 61 344l3 6q38 56 151 69l12 1l-3 -2l8 -15q-177 -10 -344 -10q-50 -201 -74 -402q-2 -18 -20 -18q-72 0 -215 -1
q-8 -1 -12.5 4.5t-2.5 13.5q44 201 69 402l-161 4q-87 1 -176 7l22 20v-4q104 -13 122 -69l1 -6q-11 -195 -68 -369q-1 -11 53 -21q78 -3 202 -2q171 1 204 1q159 -2 319 -10l-21 -23z" />
    <glyph glyph-name="v" unicode="v" 
d="M993 454l-37 -10q-17 -6 -49 -22q-115 -156 -245 -418q-6 -13 -19 -12q-100 2 -302 0q-13 -1 -15 11q-32 170 -46 232q-43 184 -71 200q-2 2 -23 9q-41 16 -69 16q-17 0 -17 27q0 26 22 24q114 -7 305 -10q11 0 13 -10q36 -118 78 -331l100 168q58 96 107 164q7 9 17 9
l149 4q73 2 149 6q16 1 16 -13q0 -11 -9.5 -24.5t-18.5 -13.5q-18 -1 -35 -6zM1028 492l8 -15q-77 -5 -150 -6l-139 -4q-52 -72 -115 -179l-108 -182q-8 -13 -19 -13t-14 14q-46 236 -82 360q-184 2 -295 10l22 23q0 -3 1 -6q24 -2 66.5 -16.5t51.5 -36.5q35 -85 62 -203
q10 -43 42 -211q186 2 278 0q129 258 245 415l4 4q22 18 63 31l3 1l38 10q16 4 29 5l7 1h6z" />
    <glyph glyph-name="w" unicode="w" horiz-adv-x="1491" 
d="M761 47q-42 -50 -176 -55h-2q-75 0 -225 -2q-40 -2 -93 3l-22 4q-46 8 -46 39q0 7 3 16q77 182 70 359q-13 31 -70.5 42t-58.5 17q-4 16 -4 23q0 19 21 18q219 -7 348 -9q14 0 14 -14q3 -197 -59 -407q60 0 180 1q43 200 67 400q2 18 20 18h229q19 0 14 -18
q-50 -194 -76 -400q57 0 172 -1q9 211 87 408q5 13 19 13l179 4q86 2 179 5q15 1 15 -12q0 -11 -10.5 -25t-18.5 -14q-53 -6 -72 -11q-42 -11 -63 -38q-74 -189 -57 -357q7 -63 -131 -63q-258 0 -323 5q-89 6 -110 51zM1517 493l9 -16q-93 -4 -179 -5l-165 -4
q-75 -194 -80 -402q-1 -21 -21 -20q-70 0 -209 2q-16 0 -14 16q25 207 74 401h-191q-25 -200 -69 -401q-4 -16 -20 -16q-36 -1 -108.5 -1.5t-108.5 -0.5q-8 -1 -12 5t-2 14q64 208 64 403q-122 1 -335 9l21 24l2 -8q110 -12 131 -68l1 -4q4 -90 -23 -194q-25 -93 -50 -185
q5 -7 23 -11l21 -4q59 -5 156 -3q128 3 157 3q75 6 87 9q55 13 70 49q5 13 19 13h9q9 0 17 -23q8 -26 44 -37q47 -13 203 -12h81q63 -1 81 -1q83 0 90 19q-18 178 60 377l3 4q40 56 156 68l10 1z" />
    <glyph glyph-name="x" unicode="x" horiz-adv-x="1005" 
d="M728 256l-12 15q72 -3 101 -13q53 -19 56 -70v-4q-5 -27 -7 -103q2 -22 48 -36q33 -9 65 -11q17 0 17 -29q0 -24 -22 -22q-61 3 -351 10q-15 0 -14 15q6 84 25 199q-65 0 -195 -1q-25 -129 -42 -198q-4 -16 -20 -16q-154 0 -355 -9q-16 -1 -16 13q0 11 9.5 24.5
t18.5 13.5q32 2 69 11q49 14 59 34l15 52q4 18 13 53l1 2q15 54 78 73q31 9 110 12l-18 -15l12 -16q-77 3 -105 13q-57 19 -54 73v2q2 30 6 89q-7 34 -109 43q-15 1 -15 26q0 27 22 25q87 -5 174 -7l175 -4q16 0 14 -16q-11 -94 -26 -187q65 -1 195 0q17 94 43 189
q5 15 20 15q175 0 352 10q16 1 16 -12q0 -12 -9.5 -25.5t-17.5 -13.5q-110 -10 -126 -42q-2 -5 -29 -90v-2q-17 -53 -80 -72q-32 -10 -109 -13zM959 0q-123 10 -128 74q0 36 7 108q-3 34 -42 45q-10 2 -69 8q-35 3 -33 19l1 4q3 15 29 19q18 0 37 1q86 5 104 53q15 58 30 94
v2q22 54 149 66l13 1l-4 -2l8 -15q-173 -10 -338 -10q-25 -94 -41 -187q-3 -17 -20 -17q-77 0 -230 -1q-7 -1 -11 4.5t-3 12.5q14 93 26 187l-159 4q-87 2 -175 7l22 20v-4q115 -13 124 -66v-4q-1 -31 -6 -92q1 -35 40 -46q11 -3 71 -9q37 -3 34 -19l-1 -3q-2 -15 -29 -19
q-19 0 -37 -1q-85 -5 -104 -53q-5 -27 -13 -53l-16 -56q-23 -63 -152 -72h-7h-6l4 2l-8 15q196 9 340 9q16 65 42 197q3 17 20 17q38 1 114.5 1.5t114.5 0.5q8 1 12 -4.5t3 -12.5q-20 -116 -26 -198q112 -2 336 -10l-21 -23z" />
    <glyph glyph-name="y" unicode="y" 
d="M107 -230q-2 2 -2 8q0 16 13 61q8 27 17 54q3 15 24 17h31q8 1 13 -4t4 -13q-5 -24 53 -30l42 -3q149 4 264 1q4 32 9 63l10 65q-51 0 -250 -1q-173 -2 -164 57v3q14 90 29 180q17 107 22 180q-11 34 -68 43q-53 8 -52 31q1 30 23 28q137 -12 350 -15q16 0 14 -16
q-24 -186 -64 -403h172q38 228 79 403q4 16 20 16q159 2 360 15q15 1 15 -14q0 -12 -7.5 -24t-16.5 -13q-48 -6 -70 -12q-43 -12 -60 -39q-61 -220 -100 -580v-2q-5 -43 -81 -55q-29 -4 -105 -2q-253 5 -511 -5q-9 -1 -13 6zM1043 489l9 -13q-193 -13 -345 -15
q-40 -173 -78 -402q-3 -17 -21 -17h-207q-17 0 -14 17q40 217 65 402q-204 2 -337 15l23 20v-5l24 -4q81 -13 95 -67l1 -5q-12 -176 -52 -367q-1 -26 156 -26q33 0 73 1q20 0 40 1q66 1 133 -1q15 0 15 -22q0 8 -13 -76q-6 -40 -11 -81q-2 -19 -21 -18q-95 -2 -282 -1h-3
l-42 4q-71 6 -79 46h-7q-8 -27 -23 -80q1 -4 0 -9l-1 -3q0 4 -10 9.5t-6 5.5l15 1q248 9 498 4q138 -2 144 22q10 260 102 590l2 5q35 58 150 72h4l9 1z" />
    <glyph glyph-name="z" unicode="z" 
d="M469 83l76 -1q57 0 116 -1q47 3 58 5q38 8 48 33q6 14 37 14q34 0 33 -17q-5 -69 -2 -111q1 -9 -5.5 -15.5t-16.5 -5.5q-169 9 -342 9q-162 0 -346 -10q-19 -2 -19 12q0 9 11 18q93 73 231 196q191 171 226 201l-77 1q-57 0 -117 1q-47 -3 -58 -5q-38 -8 -48 -32
q-5 -13 -25 -14q26 2 -30 2q-15 0 -15 27q0 10 2 25.5t2 18.5q-1 23 -1 45q3 33 23 31q169 -10 342 -10q163 0 346 11q19 2 19 -12q0 -9 -12 -18q-96 -74 -231 -196q-112 -101 -225 -202zM864 474q-153 -9 -298 -9q-169 0 -322 9q-1 -50 -3 -77l4 -1h3q19 32 63 43
q20 5 75 8q59 -2 118 -2h119q17 0 17 -12q0 -9 -10 -17q-149 -135 -452 -396q154 8 299 8q169 0 321 -8q-1 43 1 77h-7q-30 -50 -136 -51h-2q-21 -1 -58 0q-41 2 -58 2h-117q-17 0 -17 12q0 9 10 17q147 136 450 397z" />
    <glyph glyph-name="braceleft" unicode="{" horiz-adv-x="787" 
d="M1237 363q40 -22 33 -62q-52 -292 -45 -305q13 -21 89 -33q71 -12 71 -26q0 -6 -1 -11q-5 -29 -23 -26q-122 18 -255 18q-68 0 -139 -4q-8 -1 -12.5 4.5t-3.5 13.5q41 183 74 364q-5 30 -57.5 36.5t-49.5 21.5l3 20q3 16 57.5 21t69.5 35q31 181 56 364q2 20 21 18
q73 -4 138 -4q139 0 261 20q14 3 16 -6q2 -4 -1 -20q-4 -22 -29 -28q-21 -2 -42 -5q-108 -15 -118 -48l-30 -147q-5 -24 -28 -148q-8 -40 -55 -63zM1349 -81q-90 17 -100 20q-67 22 -61 65q24 171 47 297q4 28 -61 45q-14 4 -14 15q0 15 20 19q71 16 77 46l28 148l30 149
q13 42 83 64q32 11 108 22l13 2l-5 -4l10 -13q-173 -29 -388 -18q-23 -175 -53 -349l-2 -5q-20 -45 -80 -59q55 -15 59 -59v-5q-31 -174 -70 -349q62 3 122 3q136 0 260 -19l-23 -20v5z" />
    <glyph glyph-name="bar" unicode="|" horiz-adv-x="787" 
d="M378 -88q-110 0 -222 -19q-9 -2 -14 3t-3 14q0 3 1.5 8.5t2.5 8.5q2 12 13 16q88 33 136 63q70 353 124 706q-20 16 -55 35q-55 28 -59 31q-9 4 -7 15q1 6 2 17q4 21 24 17q97 -20 206 -20t230 20q9 2 14 -3t3 -14q-1 -6 -3.5 -17.5t-38.5 -25.5l-48 -18q-36 -15 -56 -34
q-76 -373 -126 -711q15 -21 71 -45q47 -20 45 -32l-2 -8q-5 -30 -24 -26q-105 19 -214 19zM581 -85q-120 48 -115 82q51 344 129 725q6 32 143 83l11 4l-4 -5l12 -11q-125 -21 -238 -21q-76 0 -145 10l12 -6q70 -35 67 -55q-56 -362 -128 -724q-4 -20 -85 -55l-9 -4
q77 9 153 9q112 1 220 -20l-24 -20q0 4 1 8z" />
    <glyph glyph-name="braceright" unicode="}" horiz-adv-x="787" 
d="M1126 364q-40 24 -33 62q6 35 44 292q-9 28 -52 40q-37 7 -73 13.5t-33 22.5l1 8q5 30 24 26q113 -20 246 -20q69 0 144 5q8 1 13 -4.5t3 -13.5q-32 -139 -75 -365q6 -39 96 -39q18 0 14 -17l-3 -20q-3 -16 -56 -21q-57 -5 -74 -36q-37 -225 -54 -364q-3 -20 -22 -18
q-67 4 -130 4q-138 0 -266 -19q-9 -2 -14 3.5t-3 13.5q1 6 4 17q3 18 69 25q30 3 64 14q45 15 52 33l59 296q8 40 55 62zM1016 808q46 -10 93 -19q51 -16 64 -60q1 -4 -20 -144q-20 -127 -25 -159q-6 -30 60 -46q14 -3 14 -15q0 -15 -20 -19q-31 -7 -45 -13q-27 -13 -32 -33
q-17 -98 -59 -295v-2q-11 -43 -80 -64q-14 -4 -108 -20h-2l-11 -2l6 7l-10 10q181 27 384 17q16 132 52 349l2 6q20 38 65 53q27 9 82 12l-19 -17v3q-101 6 -107 66v5q41 217 71 349q-67 -4 -127 -4q-136 0 -252 21l24 20v-6z" />
    <glyph glyph-name="asciitilde" unicode="~" 
d="M846 554q-57 -59 -126 -59q-19 0 -82 8q-82 15 -249 34q-44 -2 -180 -37q-22 -6 -22 12q0 11 12 19l78 66q45 38 90 38q20 3 43 3q52 0 163 -20.5t161 -20.5q35 0 160 37q4 1 8 1q14 0 14 -13q0 -11 -12 -19q-32 -21 -58 -49zM822 576l3 3q-55 -16 -97 -16q-51 0 -185 21
q-124 21 -179 17h-2q-44 -4 -88 -49q72 18 121 20q51 -2 127 -14q105 -17 126 -20q55 -7 78 -7q37 0 54 11q24 16 42 34z" />
    <glyph glyph-name="nonbreakingspace" unicode="&#xa0;" horiz-adv-x="2592" 
d="M2254 791q39 -1 54 3q15 10 24 11q16 2 16 -12q0 -12 -12 -36q-6 -11 -18 -11q-27 -1 -55 -1q-6 0 -26 -1q-16 -1 -26 0h-3l-26 1q-14 3 -19 17q-4 9 33 100q9 22 61 24q25 1 76 2h3q7 -1 14 -1q29 0 29 -22q0 -1 -13 -33q-5 -11 -9 -22q-9 -16 -20 -16q-27 -1 -83 -2v-1
zM2321 779q4 -3 9 -8q-15 -14 -50 -16q-26 0 -53 1q-15 -1 -15 11q0 5 7 27q5 15 9 20q6 12 17 12q28 0 83 2l5 13q4 9 6 12h-12q-25 0 -75 -1q-11 -1 -25 -3q-12 -33 -31 -70q11 1 21 0q31 0 93 1h13zM2048 897l-8 1q-17 0 -14 17q1 5 4 10l-2 -6l18 17q27 0 81 2
q16 2 16 -11q0 -2 -12 -36l-2 -7h2q40 0 40 -10q0 -5 -3 -12q-5 -27 -49 -26h-10q-5 -18 -18 -56q22 -2 22 -15q0 -8 -8 -15.5t-15 -7.5h-52q-25 0 -51 -1q-7 -1 -11.5 4.5t-3.5 12.5l1 3q3 18 35 20q1 6 11 35q1 5 6 19h-6q-16 -2 -16 10q0 -3 4 20q3 19 35 18v0zM2140 868
l10 -17q-12 -1 -25 -1h-24q-15 0 -15 12q0 1 12 35l2 5q-19 1 -56 0l17 16q0 4 -11 10q-7 4 -4 4h16q25 0 25 -22q0 -4 -2 -9l-11 -28q-9 -24 -23 -24h-15q-5 0 -12 -1l7 7l-10 14q9 1 16 1h15q15 0 15 -13q0 -3 -15 -46l-14 -42q-6 -16 -19.5 -19t-27.5 -6l15 15l-14 16
q27 1 52 1h52l-17 -10l10 -21q-37 4 -35 28l1 5q8 27 27 80q6 13 20 13q41 0 33 0h3q4 0 9 1zM2435 558q-2 -6 -5 -14l-15 22q9 1 19 1h17q31 0 45 -11q5 -4 0 -29l-2 -15q-3 -17 -31 -24q-11 -3 -21 -2l-75 1q-17 0 -12 26l2 9q3 17 20 17h4q7 0 14 -7l2 -1h5q26 0 19 0h6
l1 6l1 3l14 -17q-6 0 -17 -1h-18h-4q-12 0 -23.5 1t-17.5 14q-2 4 1.5 19.5t3.5 18.5q0 9 8 15q19 15 42 12q13 0 39 1h39q20 0 11 -30q-6 -23 -22 -23h-7l-10 8q-4 1 -9 1zM2487 582l-4 -4l7 -9q-95 0 -79 -1h-2q-5 0 -6 -2t-2 -6l-1 -3q9 1 15 0.5t17.5 -0.5h16.5
q20 0 14 -22l-3 -11l-2 -10q-3 -17 -20 -17h-50q-14 0 -25 13l9 -4l13 11l7 5l-1 -1h60q6 0 10 1v5v5q-8 1 -16 1h-17q-33 0 -33 10q0 4 2 11.5t7 23t41 15.5h21q30 0 33 -21zM1923 741q-22 -2 -94 -2q-9 1 -21 1t-22 8t-7 20q11 44 31 97q16 14 57 15q29 1 36 1h46
q3 0 13 -1q15 -2 24 -13q5 -5 3 -12l-15 -47l-14 -43q-6 -22 -37 -24zM1951 846v0q-4 1 -8 1h-46q-56 0 -61 -3q-11 -37 -20 -70h21.5h34h35.5q17 0 21 2l12 37q5 16 11 33zM2343 524q21 -2 18 -18q-2 -8 -8 -14q1 6 6 11l-22 -17q-22 -1 -44 -1q-30 2 -24 20q2 8 3 16l1 1
q-8 1 -15 1l20 13q-4 -15 -7 -30q-5 -19 -20 -20q-10 -1 -29 -0.5t-28 0.5q-17 -2 -17 12q0 22 27 26q4 21 9 42l10 38h-3q-17 0 -14 17l1 3q2 16 32 19q22 0 44 -1q16 2 16 -16q0 -1 -9 -39q-2 -10 -5 -20h12l-18 -15q2 7 3 15q7 34 25 34q61 0 43 2q30 -2 27 -19v-3
q-3 -16 -26 -18q-9 -29 -35 -33h-2l-11 -1h-3l21 17q-5 6 -5 10q0 5 6 5q9 0 17.5 -8.5t5.5 -20.5zM2325 503q0 -3 11 -10q8 -4 4 -4q-38 0 -34 27l2 8q0 1 1 4q-9 9 -2 35l9 1l1 4q7 24 23 27l11 2l10 1l-17 -15l12 -16h-26h-13q-5 -29 -19 -34h-38q-20 0 -14 19q5 19 9 36
l5 19h-38l18 15l-13 16h5h2q14 0 24 -13q2 -3 2 -10q0 -4 -12 -52q-6 -24 -11 -47l-1 -5q-8 -17 -26 -20l-13 -2l14 10l-13 21q0 1 41 0q3 37 25 37q32 0 31 0q16 2 16 -13l-4 -24q33 1 39 0zM1753 778q27 -3 24 -19v-3q-3 -17 -21 -17l-138 -1q-18 -1 -32 4q-18 7 -14 24
q5 24 15 73q-27 2 -24 19v3q3 17 21 17h39h42q12 -2 12 -11q0 1 -12 -53q-3 -14 -7 -29h13q7 26 20 78q4 16 20 16h80q18 0 14 -17v-4q-2 -13 -13 -15t-22 -3q-5 -21 -17 -62zM1743 757l12 -15q-23 3 -27 4q-11 5 -12 22l1 5q9 38 23 82q17 25 53 20l-21 -15l13 -15l-64 -1
q-6 -25 -19 -77q-5 -16 -21 -16h-48q-19 0 -14 19q6 24 18 74h-20h-39l19 16l-11 15q22 -3 26 -5q12 -5 12 -22l-1 -4q-5 -23 -15 -71h13h2h139zM2166 522q12 -20 11 -25q-5 -10 -21 -11h-24.5h-26.5t-14 16q0 1 7 37l4 18h-1q-2 -10 -4 -19q-9 -53 -28 -53q-53 0 -52 0
q-8 -1 -12.5 4t-3.5 13l1 3q2 16 21 18q3 19 8 40q-14 11 -14 13q-3 23 21.5 23.5t48.5 0.5h50q28 0 38 -14q2 -3 -4 -41q-2 -11 -5 -23zM2148 510l12 -21h-2h-2q-18 1 -24 15q-3 4 4 41q3 19 6 20q-6 1 -11 1h-50q-24 0 -49 -1l19 21l-13 10h2h2q16 0 24 -16q3 -4 -4 -38
q-3 -13 -6 -27l-1 -3q-9 -24 -39 -24l19 15l-15 16q14 1 29 1h10q2 9 3 18q10 53 28 53q36 0 33 1q21 -3 18 -19q-3 -12 -8 -35l-4 -17h8q15 0 29 -1zM1972 574q-32 5 -29 26q1 6 10 15t16 10l10 2h4h4l10 -1l4 -1l8 -3q7 -3 8 -10l1 -6q2 -9 -5 -16q-18 -20 -41 -16z
M1984 598l7 -8l-6 2h-7h-2l-4 -4q9 9 6 12q-2 3 -2 8q-2 0 -4 2l12 -2h2t2 2zM1475 738v5h1q0 -1 4 -1q17 0 14 -17v-4q-3 -17 -21 -17h-41q-17 0 -14 17l3 17l-24 1h-3l-16 3q-13 3 -17 17v6l12 70l12 70q4 25 56 27h2h79q53 -3 47 -28q-8 -35 -30 -139q-5 -26 -57 -26z
M1532 896q-10 1 -19 1h-75q-9 0 -20 -1l-10 -61q-6 -30 -10 -60l7 -1l39 -1q18 0 15 -17l-3 -18h23l-18 -15l13 -15q-27 0 -33 19l-1 5q-1 20 26 41h22q10 0 18 1q8 41 26 122zM2002 522q-2 0 4 0q15 0 15 -12q0 -9 -7 -17t-16 -8h-75q-17 0 -14 17l1 3q2 16 21 18l3 20
l4 20q-12 15 -13 19q3 17 21 17h54q18 0 14 -18q-7 -30 -12 -59zM1988 509l12 -21q-40 0 -35 27q4 20 7 34l3 15l-35 1l18 15l-13 16h2l11 -1q9 0 14 -12q4 -4 -3 -40l-5 -28l-1 -3q-9 -24 -39 -24l19 15l-13 16h75zM2369 295h1l3 -1q15 0 15 -12q0 -9 -7 -17t-16 -8h-50
q-75 0 -86 15q-4 7 4 75q3 25 39 27q11 1 21 0h13v3q3 11 6.5 23.5t16.5 12.5q18 0 54 1q16 2 16 -17q0 -17 -17 -20l-6 -1q-3 -27 -7 -81zM2355 281l12 -21h-5l-11 1q-6 0 -12.5 8t-5.5 15q1 30 9 99q2 21 39 28l-16 -21l14 -10q-5 -1 -37 -1l-1 -4q-2 -12 -5 -24.5
t-18 -11.5q-10 -1 -30 0h-3q-19 0 -18 0q-1 -21 -6 -46q13 -2 60 -2h50zM1796 560l-2 1q-15 0 -15 17q0 19 19 20q34 0 102 1q28 1 37 -13q3 -5 2 -11l-2 -11q-3 -17 -21 -17h-5q-4 0 -14 9q-13 -1 -25 -1h-6l-2 -12q-2 -7 -4 -20v-1q13 -21 12 -26q-5 -11 -26 -12
q-15 1 -30 1h-38q-17 0 -14 17v2q3 16 24 18q3 19 8 38zM1902 564q-20 0 -59 1q-23 0 -48 -1l18 21l-13 10h4l11 -1q7 0 13.5 -9t4.5 -16l-12 -54v-3q-4 -15 -26 -23l-5 -1l-9 -1l17 16l-13 16h76l-18 -10l12 -21h-3h-3q-11 2 -16 4.5t-7 10.5l-3 12q2 10 6 29t6 29
q2 14 17 17h23.5h22.5q26 4 33 -18l-13 9h5l-17 -14q-1 -1 -4 -3v0zM2217 296q15 -16 15 -20q-3 -17 -20 -17h-76q-18 0 -15 17l1 3q2 15 23 18q1 19 4 38l5 42h-5q-15 0 -15 17q0 19 20 20q10 1 29 1h29q7 1 12 -4t4 -12q-5 -34 -11 -103zM2199 278l18 -16q-13 -3 -24.5 4
t-11.5 19q0 15 10 95h-41l19 22q-3 1 -12 10q20 4 29 -12q7 -12 4 -30l-6 -34q-3 -24 -4.5 -47.5t-30.5 -25.5q-5 0 -9 -1l15 15l-13 16h76zM1775 600l-9 -39q-4 -19 -8 -39q15 -17 16 -20q-3 -18 -21 -17q-38 -2 -112 0q-28 2 -24 24q2 11 6.5 32.5t6.5 32.5q3 21 38 24
q12 1 23 1h15v2q2 10 4 19q3 18 47 18h27q17 0 14 -17l-1 -3q-2 -17 -20 -17zM1740 503l14 -16q-13 0 -23.5 8t-8.5 20l10 48l11 49q6 23 40 23l-19 -16l13 -15l-35 -1l-1 -3q-3 -10 -4 -19q-3 -17 -21 -17h-16q-10 1 -15 1q-16 0 -22 -2q-4 -21 -13 -43q37 0 110 -1z
M1015 894q-13 1 -19 4.5t-7 14.5q-2 21 21 21h39q35 0 44 -2.5t9 -15.5q0 -2 -3 -37h33q16 0 15 -15l-1 -11q-2 -20 -21 -20l-29 -1l-2 -20q-1 -13 -4 -34q12 -2 17 -4.5t7 -11.5q3 -23 -20 -23q-17 -1 -51 0q-33 1 -50 1q-7 -1 -11.5 4.5t-3.5 12.5l1 3q2 15 18 17l9 2
q2 18 5 55h-11q-22 0 -13 26v-3l20 23h7q1 7 1 14zM1115 856l11 -11h-49q-15 0 -15 22q0 -8 4 32q-12 1 -23 1h-39l19 19l-11 11q21 -2 24 -3q11 -4 14 -18l1 -4q0 -11 -2 -23t-3 -23q-4 -13 -19 -13h-26l21 23l11 -1q15 0 15 -22q0 3 -4 -33q-2 -19 -3 -39l-1 -4
q-6 -22 -45 -27l17 15l-14 16q17 1 50 0q34 -1 51 -1l-19 -21l11 -10q-38 4 -37 26v3q3 26 8 77q2 19 21 19q37 0 32 -11zM2121 298q21 -6 19 -19l-1 -3q-3 -18 -21 -17q-26 1 -50 1h-54q-40 3 -36 25q1 17 5 51l-1 1h-2q-17 0 -14 17v3q4 17 21 17q58 0 42 2q29 -2 26 -19
q-4 -26 -7 -52h2q1 7 2 16l4 32q5 24 23 21q22 1 43 1q29 -2 26 -19v-3q-3 -17 -21 -17h-2q-1 -13 -4 -38zM2106 277l10 -15q-31 5 -31 29q0 7 2.5 24t4.5 32q4 11 22 21q6 2 9 2h10l-19 -16l11 -15q-2 0 -36 -1l-2 -15q-1 -16 -3 -33q-4 -20 -20 -20h-37q-18 0 -12 51
q1 10 3 19h-19h-18l19 15l-13 16h3l11 -1q7 0 14 -9.5t5 -16.5q-3 -13 -4 -27q-1 -21 -6 -21q7 -1 14 -1l50 -1q25 0 51 -1zM2530 35l-3 -4q-6 -9 -17 -9h-13h-3l-14 2q-15 2 -21 16q-3 7 1 15q11 20 38 20h5q10 -3 20 -5q10 -5 13 -16q1 -8 -6 -19zM2501 51q3 3 1 -12
q1 -1 2 -1l-14 2h-4q2 1 5 18l13 -2h12l-17 -9zM1933 262q-9 -2 -68 -2q-27 -2 -40 14q-4 5 -3 12q2 11 4 32t4 32q2 8 8 13q19 15 43 12h25q16 -1 25 -1q27 2 38 -12q4 -5 3 -12q-2 -11 -3.5 -32t-3.5 -32q-4 -21 -32 -24zM1936 339q-22 0 -62 2h-2q-6 0 -8 -1
q-2 -14 -6 -44q4 -1 10 -1h2q20 0 62 2q1 14 4 42zM963 780q10 -2 19 -4q11 -5 9 -16l-1 -3q-3 -17 -21 -17h-36q-23 1 -38 0.5t-16 25.5q1 -8 4 37q1 15 1 30q-5 0 -12 1h-2q-1 -12 -1 -27q-3 -47 -5 -54q-5 -13 -30 -13q-10 0 -28 1h-33q-21 3 -19 18l1 3q3 16 30 18
q-1 21 1 63q-32 3 -30 19l1 4q3 17 21 17q120 0 162 -4q28 -2 28 -31q0 -5 -1 -16.5t-1 -16.5q-1 -17 -3 -35zM957 758l13 -15q-36 0 -42 23v5q0 25 3 74q-41 4 -159 4l18 15l-11 15l18 -2q20 -2 24 -22v-4q0 -13 -0.5 -37.5t-1.5 -36.5v-4q-5 -17 -18 -23q-6 -2 -30 -5
l17 15l-14 16q-8 0 58 -1l1 28q1 25 1 45t29 22q20 -1 41 -2q16 2 17 -24q0 -1 -3 -38l-2 -30q11 0 30.5 -1t29.5 -1zM2351 26q-42 -3 -45 20t-7 68q-1 21 29 28q25 7 90 -2q17 -2 22 -12q2 -12 4.5 -24t2.5 -20q0 -19 -18 -22q1 1 -40 1h-36l21 21q0 -6 1 -12l1 -3h19h16
q17 9 25 9q15 0 16 -24v-21q-3 -10 -20 -9q-27 0 -81 2zM2429 44q-1 4 14 16q-3 -20 -23 -24l-9 -2h-4h-49q-12 -1 -17 25q-8 38 18 38h49q-1 7 -1 9q-23 0 -70 3h-1q0 -9 2 -19l3 -27q5 -3 14 -2h3q28 0 82 -3l-20 -26q-2 7 -5 23zM1451 490q-8 -4 -18 -6h-4h-62
q-28 0 -38 14q-3 5 -2 11l12 65q4 23 33 23h68q28 0 37 -11q4 -5 3 -12l-12 -65q-2 -11 -17 -19zM1445 562q-5 1 -11 1h-62q-7 -38 -10 -44q5 -1 11 -1h61l2 1q2 1 5 2l-8 -12q4 22 12 53zM1811 300l4 -1h2q17 0 14 -17v-3q-3 -17 -21 -17h-55q-14 -1 -16 13q-4 -12 -21 -14
q-13 1 -26 1h-30q-17 0 -14 17v3q3 15 24 18q5 39 12 77q-21 4 -19 18l1 3q3 17 20 17q28 2 58 0q17 0 11 -37v-3h33q30 0 30 -25q0 -10 -3 -25q-3 -18 -4 -25zM1797 281l14 -16h-4h-4q-6 1 -23 11q-8 7 -1 44q1 10 5 20l-2 1h-50q-18 0 -12 37l1 3h-40l18 15l-15 16
q19 2 33 -10q5 -6 4 -14q-8 -48 -15 -95l-2 -6q-8 -17 -26 -20l-13 -2l17 15l-14 16q7 0 20 1h20q2 17 7 52q3 17 21 17h34q14 0 14 -21q0 -6 -4 -31q-2 -9 -3 -17h20q13 -1 19 -1zM1319 522l1 -1h3q15 0 15 -12q0 -9 -7 -17t-16 -8h-57q-17 0 -14 17l9 54h-16l21 18
q-2 -12 -6.5 -35.5t-5.5 -35.5q-2 -18 -21 -18q-55 0 -54 0q-8 -1 -13 4t-3 13v3q3 15 23 19q6 25 14 77q-18 11 -18 14q-4 21 30 24q-11 -1 46 -1q18 0 15 -17q-1 -7 -2 -18l-1 -4h12h27q14 -2 23 -11q6 -6 -1 -43zM1305 508l12 -21h-5h-4q-11 2 -14 4q-6 3 -8 11l-3 12
l5 30q2 10 3 19h-1h-23l-29 1q-13 0 -14 12q1 -8 3 23v4h-11h-27l19 21l-15 10q12 2 24 -5t11 -18q-6 -32 -16 -96v-3q-5 -15 -15.5 -18.5t-19.5 -5.5l12 14l-15 16q14 1 30 1h9q4 17 9 52q2 18 21 18h34q17 0 14 -17l-9 -54h39zM2162 107q-26 7 -24 20v3q4 18 22 17
q32 0 98 -1q15 1 30.5 -5t15.5 -19q0 -31 -21 -31h-7q-8 0 -15 9l-3 1h-2h-22q0 -11 3 -32l2 -2l3 -1h3q16 0 16 -20q0 -17 -21 -17q-40 0 -80 2q-16 0 -16 20q0 17 21 17q-1 19 -3 39zM2172 129l-11 15q25 -3 33 -16l2 -5q2 -9 3 -28.5t3 -28.5v-6q-5 -26 -43 -26l18 25
l-10 6q40 -2 79 -2l-18 -25l11 -6h-5l-11 1q-15 1 -18.5 20.5t-8.5 59.5q-3 21 25 24q-8 -1 41 -2h4l11 -1q5 0 17 -14l-12 5h7l-21 -20v4q-4 2 -13 2h-3q-10 -1 -25 0q-18 1 -24 1q-26 0 -51 1zM2114 132q-5 -7 -13 -7l-11 -1h-5h-3q-15 1 -20 3q-9 3 -13 14q-3 9 4 17
q15 19 38 17h3q29 -2 32 -20q1 -9 -5 -16zM2093 159h3q-1 -3 -2 -7q-4 -8 -3 -9l2 -2l2 -2l-12 2q-2 -1 -3 -1l3 17q-1 1 -2 1.5t-2 1.5q9 -1 14 -1zM715 742q-31 1 -92 1h-4q-8 2 -18 2q-24 0 -29 23q-1 6 -1 44q-1 22 2 53q9 17 23.5 18.5t28.5 1.5h76h5q14 -3 29 -6
q18 -6 18 -20q-1 -29 -2 -88q0 -11 -12 -19.5t-24 -9.5zM607 850v-71q12 0 22 -1q24 -1 72 -2l15 1v35q1 23 1 35q-8 1 -22 3q-25 1 -74 1q-7 -1 -14 -1zM2149 60q-30 -28 -56 -28q-21 0 -41 1q-14 0 -14 18q0 17 17 19q0 14 -1 41q-7 1 -13 2q-10 3 -8 16l1 3q2 15 20 17
q-5 -1 28 -1h29q14 0 15 -13q2 -37 5 -65l2 -2q10 -4 16 -8zM2121 37q8 -5 15 -3q-25 -6 -38 18l-2 5q-2 20 -3 35l-2 22h-15q-15 0 -29 1l20 15l-16 16q28 4 37 -18l1 -4q0 -19 3 -56v-6v-4q-4 -22 -40 -22l20 21l-12 10q19 -1 40.5 -1t21.5 -17q0 -5 -1 -12zM1591 330v-4
l-15 14h34q33 0 45 -12q5 -5 4 -13l-5 -28q-3 -18 -30 -24q-18 -3 -48 -2q-41 1 -49 0.5t-12.5 5t-2.5 12.5l3 19q3 17 21 17h5q7 0 14 -8l2 -1h4q27 0 21 0h4l2 10l14 -20h-18h-19l-10 1q-40 0 -36 24l3 14q0 10 9 27q17 15 41 13q-1 0 79 0q18 0 15 -17q-1 -7 -5.5 -21.5
t-18.5 -14.5h-6q-8 0 -14 8h-3h-28zM1557 335l-1 -3q2 -1 5 -1h13l16 -1h18q21 0 14 -20l-3 -21q-3 -17 -20 -17h-51q-14 0 -25 14l11 -5q0 3 16 16q35 -2 76 2l-7 -12l2 18q-9 1 -17 1h-34q-19 0 -13 29zM486 827q2 -19 2 -38q8 -3 16.5 -6t9.5 -13q4 -23 -20 -23
q-18 0 -52.5 1t-50.5 1t-16 16q0 17 16 21l14 4q-5 44 -14 112q-10 4 -21 8.5t-9 17.5q4 -4 2 -10l19 29q44 -2 179 -5q17 0 17 -29t-22 -29h-9q-11 0 -14 9q-6 0 -16 3h-30h-7l2 -11l1 -10l20 -1q6 0 13 1l13 10h8q13 0 16 -19q0 -15 1 -29q4 -23 -21 -23h-8q-9 0 -13 8
q-6 1 -17 5h-9zM393 942q30 -8 33 -23q9 -58 11 -134q1 -21 -28 -29l-15 -4l15 21l-13 10q17 0 51.5 -1t52.5 -1l-20 -21l9 -10q-36 9 -36 27q-1 31 -4 62q-2 17 10.5 19t24.5 3q14 2 22 0h2q18 -4 22 -5q10 -4 15 -16l-8 5l-18 -20q0 13 -3 37l11 -8l16 12q-8 -26 -46 -26
h-17q-25 0 -30 9q-1 3 -4 32t-3 27q0 26 22 24q31 -2 60 -2h4q12 -2 22.5 -5t15.5 -16l-14 9h9l-21 -21l-1 11q-55 1 -166 5l19 29v0zM1932 150q0 11 8 28q17 15 72 11q17 -1 32.5 -1t15.5 -23q0 -28 -21 -28h-6q-4 0 -10 4.5t-10 5.5h-2h-10v-11l-15 13q9 0 15 1h3
q20 1 27.5 -2.5t7.5 -22.5q1 -16 -13 -19h-24q0 -29 1 -34q8 1 22 -11q3 -6 3 -11q0 -20 -63 -16q-19 1 -37.5 1t-18.5 19q0 16 23 19l-1 32l-8 1q-19 0 -15 22q1 -2 0 -3l21 25h3zM2024 154q-48 1 -53 1l-4 -1v-2q-2 -36 -22 -36h-23l18 22v0l2 3l1 -1h9q20 0 20 -46
q0 -45 -22 -52l-10 -3h-3l-11 -1l17 25l-11 6q8 0 40 -1h39l-17 -25l13 -6q-26 -4 -37 16l-1 4q-1 21 -3 61q-2 22 21 22q35 0 41 -1l-19 -16l7 -8q1 0 -36 0q-13 0 -14 17v28q-1 21 21 21h33q23 0 32 -17l-13 7h6l-21 -20v3zM1021 531q4 17 9 49q2 18 21 18h36q14 0 14 -19
q0 -3 -5 -33l-2 -18h12l-21 -18q2 12 6 35t6 35q2 18 21 18h58q17 0 14 -17l-1 -3q-3 -19 -33 -19q3 1 5 2t4 3l2 5q-3 -20 -10 -60q-2 -13 -20 -20q-14 -6 -28 -5l-38 1q-13 0 -21 4q-10 -4 -27 -5h-2q-6 -1 -16 0h-17q-15 -1 -28 4q-16 7 -14 21q3 17 8 52q-15 12 -15 14
q-4 23 21 23h55q14 0 14 -19q0 -4 -5 -33zM1156 580l13 -16l-40 -1q-3 -17 -8 -51q-2 -18 -21 -18h-30q-17 0 -14 17q2 17 6 52q-3 -17 -8 -51q-2 -16 -24 -19q2 1 -33 1q-17 0 -14 17l6 35q1 9 3 17l-39 1l20 21l-13 10h3l11 -1q9 0 14 -12q4 -5 3 -12q-3 -17 -8 -51h8h3
q6 1 17 0.5t15 -0.5q8 0 15 2q-1 -2 -4 -3q-2 -2 6.5 -7.5t16.5 -5.5q12 0 10 15q-1 0 -2 2q6 -2 13 -3h38h5q2 17 8 50l1 5q9 19 30 19q3 0 5 1zM1325 307q8 8 16 8h6q17 0 14 -17q-2 -6 -4 -19q-3 -17 -21 -17h-81q-26 0 -36 14q-2 3 4 42q2 18 14 45q19 15 41 12h52
q28 0 37 -14q3 -5 2 -11l-3 -18q-4 -22 -4 -23q-5 -12 -19 -12l-53 -1v-4l-15 14h44q1 1 2 1h4zM1333 289l5 -6l16 11q-10 -22 -41 -22h-44q-15 0 -15 14q2 9 5.5 27.5t36.5 20.5q17 -1 35 -2q0 2 2 8q-5 1 -9 1h-55q-5 0 -7 -1q-9 -43 -11 -43q5 -1 10 -1h81zM1755 74l2 -1
h2q16 0 16 -18t-22 -18h-60q-13 2 -13 23q0 -2 2 48l-1 -16q-1 -17 -2 -33q-3 -22 -21 -22h-58q-15 0 -15 18q0 19 21 19q1 14 3 40q-21 4 -18 18v3q3 17 21 17h100q15 1 28 -4q17 -6 16 -19q0 -18 -1 -55zM1740 47l13 -8h-4l-11 1q-6 0 -12.5 8.5t-6.5 15.5v52q-5 1 -10 1
h-4q-12 1 -99 1l19 15l-14 16q25 0 31 -15q3 -9 1 -37q-4 -34 -6 -40q-8 -17 -37 -17l19 21l-12 10l37 1q1 8 3 52q2 19 21 19h35q15 0 15 -28q0 -9 -1.5 -25t-1.5 -20q8 0 22 1h23zM790 521q17 0 14 -17v-3q-3 -15 -21 -17q5 1 -28 1h-27q-14 0 -14 19q0 4 5 33l-4 -32
q-6 -20 -22 -20h-54q-17 0 -14 17l1 3q3 17 20 17q3 22 5 41q-14 16 -15 20q3 17 21 17h49q33 -1 48 0t30 -5.5t13 -20.5q-2 -17 -7 -52v-1zM771 502l13 -15h-2h-5q-7 2 -22 16l3 39l2 22q-3 1 -8 1h-2q16 1 -99 1l19 15l-14 16h3l11 -1q6 0 12 -8.5t5 -15.5q-3 -28 -8 -57
l-1 -3q-9 -24 -38 -24l19 15l-13 16h35q3 18 7 53q2 19 21 19h18q12 -1 18 -1q14 0 14 -19q0 -4 -5 -34q-1 -9 -3 -18h11q14 0 29 -1zM1206 300l3 -1q15 0 15 -13q0 -24 -23 -24h-56q-17 0 -14 17t7 35v-1l-6 -31q-7 -20 -22 -20h-56q-15 0 -15 12q0 24 23 25l1 1q3 12 8 37
v1q-18 0 -15 17l1 3q3 17 20 17h98q16 1 28 -4q16 -7 13 -21q-3 -17 -10 -50zM1191 286l12 -21q-38 0 -33 26l6 30q4 19 6 19h-62q-24 1 -49 1l19 16l-13 15h3h2q19 -1 23 -14l3 -12q-4 -18 -11 -55q-5 -26 -41 -26l16 10l-12 21h40q1 9 3 17q9 55 29 52q-1 0 32 0
q15 0 15 -19q0 -4 -10 -50h38zM1014 350h-4q-18 4 -19 4q-9 4 -10 15q-2 7 3 14q16 23 42 18q18 -3 20 -4q9 -4 11 -15q1 -9 -6 -17q-15 -15 -37 -15zM1028 387q-2 -3 -3 -7q-5 -8 -3 -10q2 -1 3 -2.5t2 -2.5q-5 0 -15 2q5 13 4 14q-2 1 -3 2l-3 3q6 -1 11 -1t7 2zM1559 38
q-11 -2 -17 -1h-2q-11 1 -53 1q-30 0 -40 12q-4 4 5 77q2 19 30 25q9 1 19 1q49 0 56 -1h9h3q7 -1 23 -12q4 -4 1 -44q-3 -34 -4 -37q-6 -18 -30 -21zM1560 117l-2 1h-8h-3q-11 1 -52 1q-5 0 -9 -1l-6 -45q23 1 70 -1q5 -1 13 1l-8 -14q2 32 5 58zM1041 297q14 -14 15 -18
q-4 -18 -22 -17q-13 0 -38.5 -0.5t-38.5 0.5q-16 0 -13 17v2q3 15 27 19q-1 1 7 36l-2 1h-2q-17 0 -14 17v3q3 14 20 17q14 0 28 1q51 5 45 -18q-3 -20 -12 -60zM1023 281l16 -16q-25 -4 -34 18q0 2 7 41q1 8 3 17q-36 -2 -41 -1l20 16l-13 15h4h3q6 -1 22 -11q6 -5 5 -14
q-5 -18 -12 -55q-2 -21 -29 -25l-13 -2l17 16l-13 16q13 0 38.5 0.5t38.5 -0.5zM610 523q19 -4 17 -18l-1 -3q-3 -18 -21 -17q-33 -1 -99 0q-15 -1 -28 6t-10 21l3 17q2 10 4 19.5t13 14.5q19 10 47 8q30 0 31 -1l-11 -8l5 -5h-12h-4h-5h-21q-7 -1 -15 -1q4 3 9 3q0 3 3 6
l-24 -17q-18 4 -16 18l2 9q5 27 22 26q25 1 76 0q27 2 39 -13q4 -5 3 -12q-2 -18 -7 -53zM593 503l13 -15q-23 0 -32 16q1 0 4 39q1 12 2 23h-8h-3q-34 -2 -78 1l12 11l-2 2l-21 -15q5 25 29 25q2 0 8 2q5 1 7 0h38q20 -2 20 -18q0 1 -4 -21q-2 -13 -13 -14.5t-21 -2.5
q-6 0 -17 0.5t-18 -0.5l-2 -1l-1 -6q-1 -3 -2 -9h5h3h50q34 0 50 -1zM881 330v-5l-15 14h52q11 0 21 -6.5t8 -17.5q-2 -10 -6 -29t-31 -23q-32 -1 -96 -2q-9 -1 -13 4.5t-2 14.5l3 11q6 22 22 22h4q8 0 14 -7l3 -1h3h23h5l2 7l14 -17q-21 0 -37 1h-2h-23q-12 2 -19 13
q-3 5 -2 11q6 36 14 42q15 12 39 13q20 -1 40 -1h40q18 0 14 -17l-1 -9q-5 -26 -23 -26h-4q-4 0 -9.5 4t-9.5 4h-23h-5zM910 305h-50q-22 0 -12 32q2 6 3 11q3 17 20 17h43q23 0 32 -15l-10 5l-8 -6l8 -9h-81q-3 0 -5 -2t-3 -7q-4 0 15 -1q26 -1 36 -1q18 0 15 -17l-3 -15
l-3 -12q-4 -15 -20 -15h-23q-16 0 -22 1h-5l-11 1q-6 0 -15 12l9 -4l7 5l-9 10q46 0 95 3l-7 -12q2 9 3 16zM452 523q-2 0 2 0q18 0 15 -17l-1 -3q-3 -17 -20 -17h-55q-15 0 -15 23q0 5 8 50q3 19 5 39h-3q-8 1 -15 1l20 19q-4 -38 -13 -114q-2 -18 -20 -18q-32 0 -40 2
q-11 3 -11 16q0 -1 8 55q3 20 4 40l-3 1h-13l19 19q-5 -38 -14 -115q-2 -18 -20 -18h-27q-17 1 -26 1q-18 0 -15 17l1 3q2 15 17 17l6 1q5 41 9 82l-12 4t-8 11q-3 21 23 23q-9 -1 38 -1q40 0 48 -1q30 -4 30 -26l-14 14q-6 -2 -14 -9q6 16 27 20h3l11 1h16.5h16.5
q42 4 42 -31q0 5 -4 -44q-3 -22 -6 -45zM435 504l13 -15q-37 0 -33 27q5 25 7 49l4 42q-3 1 -9 1h-2q-6 -1 -16 0h-17h-7q-8 -11 -19 -11q-4 2 -14 10q-31 1 -93 4l20 21l-14 10q12 1 24.5 -6t11.5 -19q-5 -50 -11 -99l-2 -6q-8 -16 -37 -22l15 15l-13 16h27h7q4 31 11 94
q1 17 23 20q-10 -2 32 -2q15 0 14 -15q0 -15 -10 -97h2q10 -1 17 -1l-21 -18q5 37 13 112q1 19 21 19h17q11 -1 17 -1q15 0 15 -26q0 -10 -7 -47q-3 -19 -6 -39h39zM1210 108l-2 -10l-14 19h35q34 0 46 -10q6 -5 0 -44q-2 -12 -17 -19q-9 -4 -20 -6h-3h-92q-17 0 -15 16
l1 12l2 9q3 17 20 17h7q11 0 14 -9q3 -1 5 -2h29v9l15 -15h-38h-24q-12 1 -20 11q-4 4 0 27l3 15q2 9 9 14q21 14 42 11h80q18 0 14 -17q0 -7 -4.5 -21t-18.5 -14h-7l-11 7q-3 1 -7 1zM1266 133l-7 -5l8 -9h-83q-5 0 -9 -1l-1 -8h18l35 -1q21 0 12 -32q-1 -7 -2 -13
q-3 -17 -21 -17h-45q-26 0 -33 20l10 -7l18 15l-1 -3h74l4 1l4 2l-7 -12q0 4 3 16l1 3h-2q-5 1 -19 1h-35q-13 0 -14 10q0 -1 2 19q0 6 2 14q3 17 20 17h47q26 0 32 -17zM757 262q-16 -2 -44 -2h-26q-28 -4 -39 14q-2 3 6 44q4 18 5 24q6 17 13 21q17 11 39 11q54 0 53 0
q30 2 37 -16q0 1 -6 -40q-4 -27 -8 -36q-9 -17 -30 -20zM767 339h-36q-12 1 -26 1q-6 0 -11 -2q-3 -15 -11 -44h6h3h27q38 0 41 3l-7 -10q5 15 7 29q3 20 7 23zM1051 108q-1 -6 -4 -13l-13 22h37h24q12 -2 20 -12q4 -5 3 -12l-3 -15q-4 -25 -20 -34q-10 -5 -21 -7h-4h-91
q-17 0 -14 17q1 8 5.5 22.5t18.5 14.5h7q11 0 14 -9q1 -1 4 -2h31l2 11l14 -17h-40h-24q-13 2 -20 13q-4 5 1.5 26t11.5 26q19 16 42 13h40q20 0 40 1q8 1 12.5 -4.5t2.5 -12.5l-1 -9q-5 -26 -23 -26h-6l-10 6q-4 1 -9 1h-27zM1081 82q-10 0 -19 1h-34q-24 0 -13 22
q1 7 5.5 22t19.5 15h44q27 0 33 -16l-11 7l-7 -5l9 -9q-21 -1 -42 -1h-43q-5 0 -8 -1l-2 -8q10 0 17 -1h37q18 0 15 -17l-3 -14q-5 -31 -24 -31h-47q-25 0 -32 20l10 -7l6 4l-6 8l93 1q1 3 1 6zM947 131q-5 -3 -24 -4q-28 -2 -32 20q-2 8 4 15q15 20 40 16q17 -2 21 -4
q9 -5 10 -17q2 -12 -9 -19zM935 162l5 4q-2 -4 -4 -7q-7 -10 -5 -12q2 -1 3 -2l3 -3q-21 2 -16 2q9 11 4 15q-1 2 -2 3q2 0 3 -1zM524 336h-1q-17 0 -14 17v3q3 17 21 17h99q40 0 40 -22q0 -30 -23 -30h-6q-9 0 -13 7l-3 1h-32q-2 -11 -7 -32q18 3 18 -11q0 -25 -21 -26
t-40 -1h-38q-16 0 -16 12q0 23 26 26q4 13 10 39zM635 342q1 -1 1 -4q-7 1 -13 1h-99l19 15l-14 16h4h2q16 0 25 -16q1 -6 1 -10q-2 -10 -7 -28.5t-7 -28.5l-2 -6q-7 -13 -36 -19l13 10l-12 21h38q18 0 37 1l-15 -10l15 -21q-25 -6 -36 15q-1 2 5 39q9 46 28 46h51l11 -1
q7 0 15 -14l-13 7h6zM946 74h1q18 0 15 -17l-1 -3q-3 -17 -20 -17h-81q-17 0 -14 17v2q3 15 30 19q0 3 4 21l5 17q-20 4 -17 18v3q3 17 21 17h57q19 0 14 -19t-14 -58zM928 56l13 -16h-14q-8 0 -14.5 10t-3.5 18q3 16 11 49h-37l18 15l-13 16q23 0 32 -14q4 -5 -5 -41
q-4 -15 -8 -29l-2 -5q-10 -15 -41 -20l16 16l-13 16h79zM424 292q-2 -3 -2 -8l-15 17q5 0 23 1q14 1 23 1q2 0 9 4t11 4h6q14 0 14 -12q0 -41 -26 -41h-92q-10 0 -18.5 8.5t-4.5 18.5q5 21 17 64q4 12 22 19q15 5 28 4q17 1 50 1h15q11 0 18 -8t4 -19q-4 -17 -7.5 -35
t-20.5 -18zM466 286l5 -8l9 4q-15 -13 -31 -14h-3q11 -1 -45 -1q-18 0 -14 17q0 5 3 13.5t4 12.5q3 17 21 17h52v3q1 6 2 8h-3h-4q-17 -1 -52 0q-4 0 -9 -2q-4 -19 -13 -44h86zM328 295l1 -1q17 0 14 -17v-3q-3 -16 -33 -19q-21 0 -43 1q-15 -2 -15 11l6 25q2 11 6 22
l11 -21h-12l-4 -1l-1 -3q-6 -18 -8 -21q-6 -12 -17 -12q-18 0 -56 -1q-8 -1 -12.5 4t-3.5 13q2 8 9 14q-1 -5 -5 -9l16 15l8 2q1 4 21 82q-8 -1 -13 4t-3 13v3q3 17 21 17h55q7 1 12 -4t3 -13q-5 -28 -19 -79l-12 19h13l3 1q2 9 4 17q3 17 21 17q9 0 27 1h28q17 0 14 -17v-3
q-3 -16 -25 -18l-2 -6l-2 -6q-2 -5 -6 -9q1 -3 1 -6v-4zM310 276l13 -16q-26 0 -32 17q-1 3 2 16q0 1 1 4q-5 5 -13 31q5 5 23 7l1 3q1 4 1 6l2 6q7 13 38 19l-16 -15l14 -16q-14 0 -27 -1q-4 -1 -12 -2q-8 -36 -27 -33h-31q-20 2 -15 19l15 57h-19q-13 1 -19 1l18 15
l-15 16q14 2 26 -6.5t9 -21.5q-7 -34 -26 -99l-1 -3q-6 -17 -40 -22l18 17q-1 3 -11.5 8.5t-5.5 5.5q14 1 42 1l1 4q12 35 27 34t29 0q19 -2 19 -13q0 5 -7 -24h9h26zM718 112v1q-18 0 -15 17l1 3q3 18 21.5 17.5t50.5 0.5h51h12h3l9 -2l5 -2q13 -9 13 -20q0 -1 -11 -36
q-3 -18 -17 -44q-16 -12 -35 -12l-39 -1l-1 -2q-9 5 -2 5l2 -1h2q16 0 13 -17l-1 -3q-3 -17 -20 -17q-8 0 -41 -2q-26 0 -42 0.5t-13 17.5l1 3q2 11 10.5 13.5t17.5 4.5l14 41q7 18 11 35zM831 117h-10q-11 0 -52 -1q-32 -1 -51 0l19 16l-13 15q39 0 32 -27
q-23 -87 -35 -102q-8 -11 -26 -16h-3l-11 -1l17 15l-12 16h40q32 1 40 1l-19 -16l13 -15h-3h-2q-18 1 -23 14l-2 15q13 38 28 38h54q3 0 5 1zM530 148q30 0 30 -11q0 -7 -5 -19q-6 -15 -38 -15l-3 -1q-5 -11 -13 -33q17 -1 13 -18v-3q-3 -18 -21 -17q-14 0 -41 -1
q-26 -1 -40 0q-16 0 -13 17v3q3 17 21 17q3 0 6 1q5 11 10 25l5 12l-10 23q-1 -3 -2 -4q4 23 23 22h4l4 7v4l1 -7h1h-3q-7 -1 -11 4.5t-3 12.5v2q3 15 20 17h28q15 1 30 1q14 0 14 -13q0 -8 -7 -26zM529 130l12 -16q-10 -1 -20 -1h-18q-15 0 -15 12q0 6 8 27h-7
q-16 -1 -31 0l21 16l-13 16h3h3q16 -4 22 -18q1 -5 1 -9l-1 -6l-1 -5l-5 -10q-11 -24 -23 -24h-19l11 5l-9 20h10q6 -1 9 -1q14 0 14 -13q0 -5 -11.5 -36.5t-18.5 -39.5q-12 -14 -37 -14l19 16l-13 15q13 0 40 1t40 0l-19 -15l15 -16q-12 -2 -23 4.5t-11 17.5q0 7 10 32
q12 31 13 34q5 15 20 15h18q8 0 16 1zM347 27h-28h-27q-8 -1 -17 -1q-25 0 -25 21q0 4 2 8q14 35 38 76q16 12 40 13h2q37 3 55 1h2q20 -1 21 -1q10 -3 14 -14q1 -3 -14 -46q-6 -19 -21 -44q-19 -15 -42 -13zM387 110h-8h-25.5h-26.5l-15 -3q-9 -21 -23 -46h5h3h28
q13 0 27 1h3q6 0 11 2q7 20 21 46zM242 58q10 -17 9 -21q-6 -12 -47 -12q-36 0 -26 -1q-17 1 -17 12q0 4 2 9q8 18 25 52h-2q-10 -21 -29 -61q-6 -14 -47 -14q-33 0 -28 -1q-17 2 -15 17q2 8 8 14q-1 -6 -6 -11l20 17q3 1 7 2q5 10 12 26l11 23q-8 10 -8 15l17 15q50 2 99 2
q12 3 26.5 -2.5t14.5 -17.5q0 -3 -15 -39q-5 -12 -11 -24zM222 50l12 -21h-3l-11 1q-8 0 -12.5 11t-0.5 19q7 16 21 47h-5q-50 0 -100 -2l20 17q0 3 -10.5 7.5t-10.5 5.5t2 1q12 2 22 -4.5t10 -16.5q0 -5 -3 -10l-13 -28q-13 -29 -20 -37q-14 -16 -37 -16l21 17
q-1 3 -11.5 8.5t-5.5 5.5q14 1 43 2q11 20 30 61q6 13 19 13h39q13 -2 13 -12q0 -9 -25 -60h4q15 1 27 1zM2273 840h14l2 5q4 9 7 17l13 -21h-25q-11 0 -11 -1zM2321 835q-15 -32 -28 -30h-48q-15 0 -15 11q0 7 9 27q6 16 8 19q7 12 17 12q14 1 26 1h25q15 0 15 -12
q0 -7 -9 -28zM1892 812l7 22l-6 1q-5 0 -10 -1q-5 -16 -15 -49h16q4 14 8 27zM1926 808q-7 -21 -12 -42q-5 -15 -21 -15q-8 0 -25 -1h-26q-19 0 -14 19q4 14 12.5 42t13 43t45.5 15h26q15 0 15 -15q0 -3 -14 -46zM1471 780l-15 -12l24 118h-14q-3 -15 -5 -29l-5 -27l19 -1
q18 0 15 -17q-2 -16 -9 -47zM1505 834l-10 -54q-8 -30 -25 -30h-9q-14 0 -14 14q2 13 4 25l1 6h-20q-17 0 -14 17l8 45q4 23 9 47q4 16 20 16h49q15 0 15 -18q0 1 -14 -68zM1436 776l-10 -9q2 8 5 23l-3 1h4l20 17q-3 -14 -8 -41zM1464 779q-2 -5 -3 -12q-3 -17 -21 -17h-17
q-17 0 -14 17q1 7 4 20.5t4 20.5q3 17 21 17h2h5q14 -5 21 -19q4 -9 -2 -27zM2301 329h-16l20 18l-4 -31q0 -6 -1 -14q10 1 20 -1l-23 -19q2 16 4 47zM2333 286q-1 -22 -23 -19q-15 1 -30 0q-7 -1 -12 3.5t-5 11.5q1 17 2.5 31.5t3.5 28.5q5 21 20 21q17 2 35 0q14 0 14 -15
q-1 -10 -3 -30.5t-2 -31.5zM1695 542l2 13h-2l-4 -27q1 5 4 14zM1724 511q-3 -17 -21 -17h-36q-17 0 -14 17l10 61q3 17 21 17h37q17 0 14 -17q-1 -10 -5.5 -30.5t-5.5 -30.5zM2370 98l-5 1h-17l21 22q1 -5 2 -12v-2l4 -1q10 0 20 -1l-23 -22zM2407 93q1 -11 -5.5 -17.5
t-16.5 -4.5q-8 1 -16 1h-17q-16 0 -15 15q0 -4 -3 24q-3 22 21 22h17q10 0 20.5 -1t11.5 -12zM1898 319l-2 -14h2h15l-19 -19q1 16 4 33zM1898 319q1 6 1 11q0 -3 -1 -11zM1933 318q-3 -14 -3 -28q-1 -17 -23 -20q1 1 -33 1q-14 0 -15 18q0 -1 3 28q2 15 5 31.5t20 16.5h34
q20 0 12 -47zM1407 555h-2l-3 -27zM1445 572l-10 -61q-3 -17 -21 -17h-36q-17 0 -14 17q3 20 9 61q3 17 21 17h37q17 0 14 -17zM669 810l-1 27q-6 0 -12 1q0 -8 -1 -24.5t-1 -24.5h14q1 10 1 21zM704 816q0 -22 -1.5 -42t-20.5 -20h-25q-16 1 -24 1q-14 0 -15 14q1 28 0 83
q-1 20 28 22q21 -1 41 -2q16 2 18 -24q0 -16 -1 -32zM1298 340l17 -1l-21 -17l1 4q2 7 4 20v-1zM1329 322q-3 -17 -20 -17h-33q-15 0 -15 15q0 8 2 15l2 13q3 17 20 17h34q16 0 15 -15q0 -1 -5 -28zM1520 94q1 3 1 14l-3 -27zM1552 67q-5 -20 -21 -20h-35q-18 0 -11 47
q2 15 2 30q1 19 21 19h35q16 0 15 -15q-1 -17 -2.5 -31.5t-3.5 -29.5zM539 513v-1l-15 17h37zM550 495q1 0 -32 0q-17 0 -14 17l2 15q2 7 2 14q1 19 21 19h36q15 -2 12 -17q-1 -10 -4.5 -30.5t-22.5 -17.5zM727 330h-16l21 16l-10 -41l16 -1l-21 -17q1 3 10 43zM752 287
q-3 -17 -20 -17h-34q-15 0 -15 17q0 1 14 61q4 16 20 16h34q18 0 15 -17q-5 -20 -14 -60zM436 337q8 0 15 -1l-22 -17l6 24l2 2q0 -4 -1 -8zM441 302q-5 0 -16 -0.5t-16 0.5q-15 2 -12 17q1 4 3 13t2 13q4 20 23 17q-9 1 31 1q18 0 15 -17q-3 -9 -7 -28t-23 -16zM786 94
l3 13h-14l20 15l-13 -43l15 -1l-20 -15q3 12 9 31zM811 59q-5 -15 -20 -15h-35q-15 0 -15 14q0 4 10 37q4 13 8 27q8 19 22 19h34q20 0 14 -19q-3 -11 -9 -32t-9 -31zM333 71q-5 -11 -9 -22l-14 21zM333 71h2q4 8 8 18l3 10v0q-4 -9 -9 -19zM376 83q-8 -21 -11 -28
q-10 -17 -21 -18t-21 -1h-19q-22 0 -13 21q10 21 27 63q4 11 15 12.5t21 2t21 0.5q22 0 13 -21q-7 -16 -12 -31z" />
    <glyph glyph-name="exclamdown" unicode="&#xa1;" horiz-adv-x="490" 
d="M494 528q-31 -44 -139 -44q-60 0 -89 11q-44 19 -41 69q3 60 100 60q12 0 31 -1t25 -1q73 1 93 0q40 3 40 -39q0 -10 -3 -19q-5 -18 -17 -36zM466 545q6 9 11 22v3q2 6 1 11q-1 6 -7 6h-4q-20 1 -181 0q-24 -1 -25 -19q-2 -34 34 -44q19 -6 66 -6q87 0 105 27zM137 -134
q-10 -2 -15 3t-3 15q48 210 101 538q3 20 23 17q87 -12 206 -1q8 1 12.5 -4t3.5 -13q-58 -302 -89 -537q-3 -23 -24 -18q-52 11 -106 11q-53 0 -109 -11zM159 -96q47 8 93 8q47 0 92 -8q29 218 82 498q-100 -8 -174 0q-50 -303 -93 -498z" />
    <glyph glyph-name="cent" unicode="&#xa2;" 
d="M520 500q-17 16 -71 28q-45 10 -44 22v11q5 25 23 24q186 -7 375 3q12 1 14 -7q1 -4 -1 -19q-4 -21 -19 -25q-55 -13 -65 -17q-38 -12 -60 -32l-1 -5q24 16 113 22q61 3 122 5q15 2 15 -17q0 -4 -14 -58q-5 -21 -10 -41q-9 -30 -25 -30q-6 0 -18 -1h-19q-12 0 -14 18.5
t-23 25.5q-11 3 -58 6q-70 -2 -139 -2h-119q-25 -165 -58 -329q116 3 266 -1q37 2 48 5q31 8 36 29q4 16 20 16h19q12 -1 18 -1q14 0 14 -24q0 -10 -2.5 -28t-2.5 -20q-2 -22 -3 -44q-5 -33 -24 -31q-81 6 -204 9q22 -13 86 -29q14 -3 11 -25q-5 -27 -23 -26q-92 5 -186 5
q-93 0 -188 -3q-12 -1 -14 7q-1 4 2 18l1 8q3 14 28 20q19 3 37 6q34 8 57 19h-29q-6 0 -41 -1.5t-58 -1.5q-105 0 -127 27q-9 12 -7 27l1 3q15 67 43 200q17 99 27 200l1 3q15 54 130 54q3 0 54 -2q43 -1 106 -1zM790 567l9 -13q-111 -7 -220 -7q-80 0 -159 4l22 17l-1 -1
l23 -4q32 -6 63 -23q42 -22 38 -46l-3 -12q-3 -17 -20 -17q1 0 -80 1q-69 2 -110 1q-59 -2 -74 -9q-11 -5 -14 -11q-19 -201 -70 -402q-1 -19 93 -20q-26 0 110 2h68q17 0 14 -17l-1 -6l-2 -6q-25 -47 -146 -66l-5 -1l-10 -1l7 6l-8 12q95 3 189 3q95 0 188 -5l-21 -20v6
l-22 6q-69 17 -94 54l-2 11v-2q-1 10 5 18.5t16 7.5q143 -2 228 -8q2 26 7 77h-6q-24 -48 -117 -50h-1q-94 1 -283 1q-8 -1 -12.5 4.5t-2.5 12.5q37 182 64 365q3 18 21 17q69 -1 137 -1q20 0 68 2q45 2 69 1h2q102 -1 109 -50h6q7 25 20 76q-88 -6 -232 -8q-8 -1 -12 5
t-2 14l3 12q10 37 143 71l12 3z" />
    <glyph glyph-name="sterling" unicode="&#xa3;" 
d="M1015 608h-20q-8 0 -15.5 20.5t-45.5 24.5q-15 2 -28 2q-85 -3 -168 -3l-151 -1q-10 -58 -31 -175q190 -2 232 12q27 9 42 30q11 15 38 15h18q15 0 15 -20q0 -19 -13 -54q-5 -27 -10 -56q-4 -17 -21 -17l-316 -1q-2 -8 -6 -23h150q83 0 168 -1q17 0 14 -17l-9 -57t-9 -56
t-21 -18h-10h-12q-8 1 -12 1q-9 0 -14 11q-6 17 -14 24q-16 14 -48 18q-27 3 -32 3h-84q-52 1 -83 1q-11 -61 -35 -183q162 0 290 -4q51 3 59 4q39 8 47 32q4 13 25 14q-35 -2 31 -2q11 0 14 -12.5t1 -32.5q-2 -27 -2 -26q0 -63 1 -46q-2 -33 -23 -31q-207 14 -415 14
t-420 -15q-15 -2 -15 14q0 30 20 37q48 15 69 23q38 15 65 32q17 62 43 183q-97 16 -99 63v4l11 62q3 17 21 17q51 0 49 -16q-2 -23 34 -33h2q32 184 40 295q2 28 23.5 47.5t50.5 22.5q35 7 70 7q403 0 598 16q15 2 15 -15q0 -2 -19 -61l-14 -52q-10 -19 -41 -21zM218 383
l-7 -42q1 -12 40 -24q31 -10 48 -11.5t13 -18.5q-12 -58 -25 -117q-22 -97 -33 -104q-36 -25 -76 -39l-13 -5q178 10 353 10q198 0 395 -12v35q0 22 2 43h-4h-5q-28 -48 -136 -49h-2q-56 -1 -154 1q-109 4 -154 4q-17 0 -14 17q7 36 20.5 108.5t20.5 108.5q4 17 20 17
q36 1 93 0q73 -1 92 -1q104 0 120 -56h5q4 26 12 79q-76 1 -150 1h-167q-14 0 -14 18q0 11 5 31.5t5 23.5q2 18 21 18l317 1q4 22 8 40l8 39l-5 -1q-29 -43 -111 -53q-5 -1 -122 -3q-46 -2 -93 0q-17 0 -14 17q7 35 19.5 105t19.5 105q3 17 20 17h168q25 0 84 3q54 2 84 1h2
q89 -1 100 -47h5h4l14 43q4 15 11 35q-186 -14 -578 -14q-20 0 -64 -7h-2q-35 -6 -37 -32q-8 -120 -43 -321q-3 -17 -25 -17q-23 0 -48.5 16.5t-28.5 36.5h-4z" />
    <glyph glyph-name="yen" unicode="&#xa5;" 
d="M378 87q-92 0 -200 -3q-14 -1 -14 13q0 1 7 33q4 13 7 26q7 17 20 17l108 2q47 1 90 1q5 23 9 45q-87 0 -193 -1q-14 -1 -14 15q0 -2 5 29q8 45 27 45q33 0 96 1h96l4 23h-41q-48 2 -95 5q-54 9 -67 49q0 -1 19 142q8 64 13 129q-9 31 -64 43t-56 23q-1 40 23 37
q148 -13 349 -16q16 0 14 -16q-25 -180 -47 -308h173q19 103 62 308q4 16 20 16q213 5 360 16q15 2 15 -14q0 -11 -7.5 -23.5t-15.5 -13.5q-62 -10 -70 -12q-43 -12 -59 -38q-26 -88 -60 -257q-14 -73 -182 -70h-2q-3 0 -38 -1l-3 -21q-20 -1 196 -1q17 0 14 -17l-10 -62
q-5 -13 -29 -13q-8 0 -37 1q-32 2 -59 3h-90q-1 -15 -5 -44q15 0 199 -4q14 0 14 -25q0 -9 -2 -25.5t-2 -20.5q-1 -20 -22 -19q-104 3 -200 4q8 -28 62.5 -37t55.5 -19q0 -10 -1 -20q-4 -18 -21 -17q-121 3 -241 3t-241 -4q-13 -1 -15 9q-1 6 3 20v4q3 15 29 19q19 2 37 4
q67 9 76 37zM1076 740l9 -13q-142 -11 -345 -16q-17 -73 -61 -307q-4 -17 -21 -17h-208q-17 0 -14 17q22 128 47 307q-192 2 -334 16l22 20v-5l25 -4q81 -15 94 -68l1 -5q-8 -111 -33 -265q10 -25 59 -30l76 -2l57 -1q17 0 14 -17l-10 -57q-3 -17 -20 -17q-34 0 -97 -1h-97
q0 -1 -2 -11l-2 -9q97 1 193 1q18 0 15 -17l-10 -56q-10 -41 -27 -41q-53 0 -107 -1l-91 -2l-5 -20q99 3 199 3q17 0 14 -17l-2 -11q-12 -70 -149 -83l-14 -1l9 7l-9 11q123 6 243 5q121 -1 242 -4l-15 -11l8 -7q-119 7 -132 67v6l2 10q5 28 22 28q100 0 200 -3q0 7 2 21
q-167 3 -201 3q-14 -1 -14 18q0 7 2.5 20.5t2.5 16.5q2 25 5 34q6 24 22 24q54 1 196 -1q1 7 2 21h-195q-7 -1 -11.5 4.5t-3.5 12.5q2 10 5 28.5t4 28.5q4 22 78 18q52 2 77 6q61 9 65 29q34 172 61 263l2 4q20 37 66 54q23 9 82 18l12 2z" />
    <glyph glyph-name="brokenbar" unicode="&#xa6;" 
d="M559 389q-103 -2 -206 4q-16 0 -13 17l3 17q2 13 34 23q24 6 47 13q27 8 51 23q13 72 36 216q-22 17 -112 65q-9 5 -7 16q0 3 0.5 8.5t1.5 8.5q3 21 24 17q96 -20 205 -20t230 20q9 2 14 -3t4 -14q-2 -6 -4.5 -18t-55.5 -31q-64 -22 -88 -46q-12 -56 -44 -222
q12 -18 66 -31q46 -11 44 -25l-3 -17q-3 -17 -20 -17zM698 426q-56 20 -56 59q0 15 8 46q12 47 15 64q10 59 30 128q27 28 68 46q13 6 76 28l7 2l-5 -5l12 -11q-124 -21 -236 -21q-113 0 -212 21l24 17q-1 -4 -1 -6q122 -64 119 -82q-8 -60 -19 -118q-5 -34 -10 -69
q-9 -56 -19 -62q-38 -25 -82 -38q82 -2 281 1zM477 -79q-110 0 -221 -18q-9 -2 -14 3t-4 14q2 6 4.5 17.5t38.5 27.5q25 9 49 18q31 13 59 31q14 73 41 217q-26 20 -102 45q-11 4 -9 17l3 17q3 17 21 17h411q17 0 14 -17l-3 -17q-2 -13 -36 -22q-23 -5 -47 -10
q-32 -12 -47 -27q-20 -110 -36 -222q16 -19 51 -35q30 -12 59 -24q10 -4 8 -16l-1 -8q-5 -30 -24 -26q-105 18 -215 18zM680 -75q-121 50 -117 79q17 119 38 236q5 29 75 54q-56 0 -141 -1h-142l12 -5q66 -25 62 -48q-12 -59 -22 -118q-6 -34 -11 -68q-11 -57 -21 -63
q-36 -23 -74 -39l-11 -5q78 9 155 9q113 1 221 -19l-24 -20v8z" />
    <glyph glyph-name="section" unicode="&#xa7;" 
d="M830 -10q-11 -8 -64 -21h-4q-117 2 -354 2q-126 -2 -255 -13q-15 -2 -15 15q0 3 17 60l18 60q9 13 54 13q9 0 15 -17q6 -20 35 -27q33 -8 100 -6q50 2 99 4q62 1 123 0l6 46l7 47q-223 1 -407 -5q-8 -1 -12.5 4.5t-2.5 13.5q30 138 65 444v2q7 55 126 55q9 0 61 -3
q252 -11 509 12q15 2 15 -15q0 -11 -8 -33l-10 -28q-17 -59 -20 -64q-9 -10 -53 -10q-10 0 -15 16q-6 20 -30 27q-8 2 -65 5q-113 -4 -255 -3l-7 -44q-3 -24 -7 -47q45 -1 89 -1q213 0 313 6q8 1 12.5 -4.5t2.5 -13.5q-33 -151 -66 -445v-2q-2 -18 -17 -30zM811 16q0 2 1 3
q8 178 62 430q-63 0 -189 -2q-74 -2 -107 -2q-52 0 -106 1q-17 0 -14 17q6 31 10 62q3 27 7.5 54.5t22.5 26.5q91 3 273 3h2q50 0 72 -6q40 -10 49 -42h8l12 43q5 17 11 36q-248 -22 -491 -10q-138 6 -143 -17q-10 -187 -62 -430q183 7 406 4q15 0 15 -21q0 6 -10 -59
l-6 -54q-6 -29 -24 -28q-87 2 -280 -2q-108 -3 -122 48h-7q-8 -29 -23 -77q255 20 490 9q41 -1 97 0q17 2 46 13zM653 389h-172q-8 -49 -26 -147q192 0 172 0q8 49 26 147zM659 224q-3 -18 -21 -17h-208q-18 0 -14 18q11 61 33 182q4 18 21 17h208q18 0 14 -18
q-5 -22 -33 -182z" />
    <glyph glyph-name="dieresis" unicode="&#xa8;" horiz-adv-x="859" 
d="M818 641q-27 -34 -83 -34q-14 0 -49 4q-68 7 -68 50q0 8 2 17q10 59 91 67l39 4q23 2 53 -6l4 -1q30 -17 24 -52q-1 -12 -3 -25t-10 -24zM791 659l5 31q2 13 -9 19q-20 5 -42 5l-36 -3q-27 -3 -35 -6q-15 -7 -19 -27q-4 -22 9 -26q50 -15 91 -10q26 4 36 17zM484 636
q-35 -30 -108 -30q-26 0 -62 10l-4 2q-14 9 -14 26q0 -15 4 31v3l6 24q6 23 26 33l2 1q31 15 75 15q100 0 100 -62q0 -5 -1 -11v-2q-4 -23 -24 -40zM464 661q6 5 9 16q3 34 -79 38q-24 0 -49 -10q-3 -2 -4 -6l-6 -22l-3 -28q34 -9 82 -5q33 3 50 17z" />
    <glyph glyph-name="copyright" unicode="&#xa9;" horiz-adv-x="1507" 
d="M1356 18q-30 -33 -169 -27q-188 7 -426 7q-88 0 -238 -4q-160 -4 -238 -4q-120 0 -120 44q0 6 2 13v1q36 112 50 161q26 89 38 161q28 162 26 322v3q5 29 30 40q3 1 48 12h4q31 2 55 2q21 0 48 -1q205 -7 426 -7q271 0 472 9q121 6 121 -44q0 -6 -2 -13l-1 -1
q-105 -329 -114 -643v-2q-1 -17 -12 -29zM1331 39q1 1 1 4q-9 319 117 654v3q-16 18 -133 15q-244 -9 -430 -9q-230 0 -428 8q-26 1 -46 1q-23 0 -52 -2l-24 -4q-18 -4 -20 -13q5 -332 -115 -653q0 -2 -1 -3q14 -16 91 -16q78 0 238 5q150 4 238 4q230 0 427 -8
q121 -4 137 14zM1219 657q-180 -5 -344 -5q-189 0 -343 4q-18 -282 -100 -572q172 4 344 4q171 0 341 -4q15 276 102 573zM1151 68q-1 -20 -21 -19q-180 4 -361 4q-180 0 -362 -4q-8 -1 -12.5 5t-1.5 14q88 306 105 604q1 20 21 19q176 -4 362 -4q162 0 364 5q8 1 12.5 -5
t1.5 -14q-95 -314 -108 -605zM848 94q-78 -2 -234 0l-46 2l-54 14q-30 12 -25 40l1 3q42 254 76 433v3q5 25 32 38q10 4 50 14h3q85 6 106 5q158 -2 379 2q14 1 14 -17q0 3 -13 -55q-4 -21 -8 -41q-9 -29 -25 -29h-36q-11 0 -14 17q-3 21 -23 27q-14 5 -58 8h-85l-67 -1
q-26 -164 -67 -375h160q44 6 49 7q31 9 37 30q5 15 20 15q32 0 41 -2t9 -14q0 11 -7 -54q0 -19 -1 -38q-5 -35 -25 -34q-95 2 -189 2zM1032 200h-4q-15 -29 -52 -41q-15 -5 -64 -12h-4q1 0 -178 0q-18 0 -15 17q46 231 74 411q3 17 20 17h85q44 0 86 1q48 -3 67 -9
q37 -12 41 -44h5q10 46 18 73q-86 -1 -170 -1h-190q-21 0 -102 -5q-13 -3 -27 -6q-18 -6 -21 -15q-24 -217 -77 -434q0 -9 24 -15q16 -3 33 -7l41 -2q78 1 232 1q85 0 171 -2q2 24 7 73z" />
    <glyph glyph-name="ordfeminine" unicode="&#xaa;" 
d="M390 477h-31q-86 0 -86 31q0 4 2 9l1 3q12 34 29 102q4 30 93 38q55 2 110 3h117l3 16l3 15h-86q-52 0 -103 1h-25q-38 0 -45 -15q-7 -11 -19 -11h-14q-8 1 -13 1q-13 0 -17 29q-1 20 -2 41q-2 10 4.5 16.5t16.5 5.5q112 -5 372 -5q16 2 41 0q33 -3 41 -3t16 -2
q39 -9 34 -33l-1 -3q-34 -96 -34 -181q12 -14 56 -14q36 -1 40 -24q2 -10 -4.5 -17t-16.5 -6q-234 8 -482 3zM381 725q-18 0 -36 1q1 -11 1 -22h2q12 14 33 21zM767 512l-3 3q-5 6 -5 24q0 72 36 176q-3 1 -12 3l-3 1q-2 1 -5 1q-9 0 -39 1q-23 2 -38 1h-3q-83 -6 -314 3
q15 4 65 5h2q20 1 52 0q37 -2 51 -2h104q13 0 13 -20q0 6 -12 -62q-3 -17 -20 -17h-132q-42 -1 -84 -1q-52 -1 -81 -15q-8 -45 -29 -95q40 -7 55 -7q417 0 402 1zM607 570l5 29h-118q-6 -29 -13 -58h60l62 1q1 14 4 28zM642 570q-4 -22 -6 -42.5t-21 -20.5h-80q-38 0 -78 -1
q-9 -1 -13 4.5t-2 14.5q12 45 20 92q3 17 21 17h153q17 0 14 -17z" />
    <glyph glyph-name="guillemotleft" unicode="&#xab;" 
d="M763 272l-164 74q-11 5 -11 14q0 12 17 18q127 49 382 144q7 3 11 3q10 0 10 -10q0 -12 -13 -39q-15 -32 -16 -33q-3 -10 -41 -30q-25 -12 -50 -25t-51 -26q35 -23 106 -68q3 -1 14 -70q4 -24 -18 -24q-4 0 -8 2q-86 33 -168 70zM916 247q-2 10 -2 21q-30 18 -124 79
q-8 5 -8 13q0 10 14 17q51 27 152 79q4 10 9 20q-81 -29 -154 -57l-148 -57q86 -40 261 -115zM285 346q-10 5 -10 14q0 11 16 18q186 76 356 138q10 4 16.5 -0.5t4.5 -15.5q-2 -10 -6 -29t-6 -29.5t-39 -30.5q-24 -12 -47.5 -24.5t-47.5 -24.5l39 -25l40 -24q30 -20 28 -31
q-3 -19 -9 -58q-4 -25 -27 -16q-170 68 -308 138zM589 250v2q2 10 3 20l-117 75q-8 5 -8 13q0 10 14 17q47 25 142 75q2 10 5 22q-139 -51 -290 -112q112 -56 251 -112z" />
    <glyph glyph-name="logicalnot" unicode="&#xac;" horiz-adv-x="940" 
d="M840 253q-27 0 -41 17q-24 30 -29 33q-25 17 -76 17q-82 -1 -244 -1h-244q-10 0 -15 23q-7 30 -15 40q-4 6 -4 12q0 18 23 17q173 -2 346 -2t347 2q17 1 17 -8q0 -6 -18 -31.5t-21 -40.5t5 -37q9 -25 9 -29q0 -12 -20 -12h-20zM846 287h20l-18 -30q-19 21 -19 54
q0 31 18 61l2 4q-325 -5 -627 0q4 -11 5 -22h472q96 2 137 -66q5 -1 10 -1z" />
    <glyph glyph-name="minus" unicode="&#xad;" horiz-adv-x="2115" 
d="M1822 363q26 -7 65 -12q14 -1 14 -14q0 -21 -22 -20h-1526q-17 -1 -17 14q0 17 21 20t65 11q-23 4 -67 13q-13 3 -13 15q0 20 23 19h1534q17 1 17 -14q0 -17 -20 -20q-25 -3 -74 -12zM1771 374h-1304q5 -8 5 -15q0 -21 -50 -32l-66 -10l3 34h1526l-8 -34q-47 5 -86 17
l-4 2q-17 13 -17 31q0 4 1 7z" />
    <glyph glyph-name="minus" unicode="&#x2212;" horiz-adv-x="2115" 
d="M1822 363q26 -7 65 -12q14 -1 14 -14q0 -21 -22 -20h-1526q-17 -1 -17 14q0 17 21 20t65 11q-23 4 -67 13q-13 3 -13 15q0 20 23 19h1534q17 1 17 -14q0 -17 -20 -20q-25 -3 -74 -12zM1771 374h-1304q5 -8 5 -15q0 -21 -50 -32l-66 -10l3 34h1526l-8 -34q-47 5 -86 17
l-4 2q-17 13 -17 31q0 4 1 7z" />
    <glyph glyph-name="registered" unicode="&#xae;" horiz-adv-x="1498" 
d="M1356 18q-30 -33 -169 -27q-188 7 -426 7q-88 0 -238 -4q-160 -4 -238 -4q-120 0 -120 44q0 6 2 13v1q36 112 50 161q26 89 38 161q28 162 26 322v3q5 29 30 40q3 1 48 12h4q31 2 55 2q21 0 48 -1q205 -7 426 -7q271 0 472 9q121 6 121 -44q0 -6 -2 -13l-1 -1
q-105 -329 -114 -643v-2q-1 -17 -12 -29zM1331 39q1 1 1 4q-9 319 117 654v3q-16 18 -133 15q-244 -9 -430 -9q-230 0 -428 8q-26 1 -46 1q-23 0 -52 -2l-24 -4q-18 -4 -20 -13q5 -332 -115 -653q0 -2 -1 -3q14 -16 91 -16q78 0 238 5q150 4 238 4q230 0 427 -8
q121 -4 137 14zM877 487q7 35 13 70h-70q-5 -35 -12 -70l-12 -70h69zM912 487l-15 -87q-3 -17 -21 -17h-104q-17 0 -14 17l15 87q8 44 15 88q3 17 20 17h106q18 0 15 -17q-9 -44 -17 -88zM942 360l-9 22q70 -3 100 -14q54 -19 57 -69v-4q-7 -36 -12 -112q1 -23 40 -32l3 -1
q26 266 98 507q-180 -5 -344 -5q-189 0 -342 4l-1 -2v-4q109 -3 217 -3l233 -1q48 5 90 -3h3q40 -7 51 -13q27 -12 22 -41v-3q-13 -57 -36 -171l-2 -5q-27 -56 -180 -56zM1054 293q-3 33 -40 44q-13 4 -67 8q-35 3 -35 16q0 7 7 17t18 10q34 0 76 7q56 8 64 23q15 84 36 169
q0 9 -21 15q-16 4 -31 7q-57 5 -83 3h-235q-116 1 -233 4q-14 0 -14 22q1 16 2 33q0 9 6 15t15 5q176 -4 362 -4q162 0 364 5q8 1 12.5 -5t1.5 -14q-79 -258 -105 -542q-1 -19 -29 -19t-54 18q-30 19 -29 46v2q1 47 12 115zM572 560q-1 22 -41 31l-3 1q-21 -226 -77 -441h2
q43 9 53 31q43 189 66 378zM579 371q-10 -64 -39 -192l-1 -3q-8 -26 -45 -46q-32 -18 -61 -18q-27 0 -22 19q62 234 83 480q2 19 25 19q19 0 45 -11.5t33 -20.5q12 -14 11 -33v-2q-2 -40 -29 -192zM1117 86v6q-142 4 -285 4q-17 0 -15 17q10 58 20 115l17 98h-74
q-12 -72 -39 -214q-3 -16 -20 -16q-142 0 -286 -4q-1 -4 -2 -7q323 8 684 -1v2zM1152 89q-2 -25 -2 -26q-4 -15 -20 -14q-180 4 -361 4q-180 0 -362 -4q-14 -1 -14 14q0 9 5 26.5t6 19.5q3 17 20 17q147 4 286 4q12 71 38 213q3 17 21 17h109q17 0 14 -17l-20 -115
q-9 -48 -17 -98q135 0 284 -4q16 0 13 -37z" />
    <glyph glyph-name="degree" unicode="&#xb0;" horiz-adv-x="2250" 
 />
    <glyph glyph-name="plusminus" unicode="&#xb1;" horiz-adv-x="1275" 
d="M924 202q62 0 184 -4q12 0 17 -28l4 -40q3 -10 -3.5 -17t-17.5 -6q-448 16 -903 0q-13 -1 -13 12q0 12 11 35q7 15 14 31q6 13 20.5 13.5t185.5 3.5l1 3q4 11 39 21q22 7 45 13q28 9 55 26q6 27 10 51h-141q-79 0 -159 1q-18 0 -15 17q3 22 5 45q6 30 23 29q101 0 301 -2
l6 36q-30 23 -114 48q-14 4 -9 33q3 18 21 17q122 -2 243 -2t244 3q14 1 15 -10q0 -7 -5 -21q-6 -17 -39 -26q-26 -6 -51 -12q-36 -12 -54 -27q-4 -13 -10 -39q62 0 298 2q14 1 14 -17q0 -11 -6 -31q-6 -25 -7 -26q-3 -17 -20 -17l-296 -1q-2 -18 -8 -54q15 -20 68 -35
q47 -12 47 -22v-3zM888 187q-46 10 -64 18q-34 15 -50 40q-1 7 -1 11l6 39l6 39q4 18 21 17h296q2 11 5 22q-218 -2 -297 -2q-17 0 -14 17q11 61 22 77q16 21 74 41q22 5 65 16l4 1l7 2l-5 -4l10 -14q-124 -3 -245 -3q-87 0 -175 1l8 -3q71 -26 68 -50q-2 -16 -4.5 -32
t-4.5 -31q-5 -19 -21 -18l-159 1q-70 0 -141 1q-1 -11 -3 -22q71 -1 142 -1h159q17 0 14 -17q-12 -72 -18 -82q-15 -24 -79 -45q-30 -10 -60 -18q-5 -20 -21 -20q-63 -1 -188 -4q-4 -9 -7 -16l-3 -6q216 8 429 8q214 0 426 -8q-2 11 -3 22q-61 1 -185 4q-15 0 -14 19z" />
    <glyph glyph-name="twosuperior" unicode="&#xb2;" horiz-adv-x="2250" 
 />
    <glyph glyph-name="threesuperior" unicode="&#xb3;" horiz-adv-x="2250" 
 />
    <glyph glyph-name="acute" unicode="&#xb4;" horiz-adv-x="490" 
d="M462 675q-120 -75 -131 -75q-22 0 -66 -2t-66 -2q-18 0 -18 13q0 12 15 19q45 23 122 70q84 52 121 72q6 2 9 2q22 0 65.5 2t65.5 2q18 0 18 -13q0 -12 -15 -19q-62 -32 -120 -69zM505 739q-29 -1 -58 -1q-58 -36 -175 -105q30 1 60 1q57 36 173 105z" />
    <glyph glyph-name="mu" unicode="&#xb5;" horiz-adv-x="5062" 
 />
    <glyph glyph-name="mu" unicode="&#x3bc;" horiz-adv-x="5062" 
 />
    <glyph glyph-name="paragraph" unicode="&#xb6;" horiz-adv-x="1156" 
d="M774 -54q-16 0 -14 16q36 335 121 684q-19 16 -43 29q-15 -5 -30 -11q-18 -7 -27 -17q-73 -383 -117 -680q-4 -23 -62 -23q-13 0 -40 1.5t-38 1.5q-59 -1 -119 -3q-8 -1 -12.5 4.5t-2.5 12.5q1 5 3 16q3 15 60 22q61 8 78 38q18 95 53 286h-98q-49 0 -66 1l-65 4
q-60 7 -70 10q-38 12 -47 44q2 -6 20 159q8 70 11 151q1 45 80 54q68 3 108 0q216 -11 454 -3q8 1 12.5 -4.5t3.5 -12.5q60 17 236 31q16 2 16 -14q0 -30 -21 -37q-34 -10 -69 -20q-40 -14 -63 -34q-84 -312 -109 -614q19 -28 77 -44q36 -10 37 -11q7 -5 8 -30
q0 -9 -6.5 -15t-15.5 -5q-103 8 -243 13zM1003 -47l-24 7q-30 9 -60 26q-40 23 -38 43q13 158 41 316q54 304 77 325q27 26 68 43q11 4 75 23l11 4l-3 -3l10 -14q-161 -13 -268 3l15 -17q-240 -9 -458 3q-39 2 -103 0q-16 -2 -24 -5q-18 -4 -18 -11q-5 -132 -30 -303
q6 -17 40 -24q26 -3 52 -7l63 -4q15 -1 63 -1h115q17 0 14 -17q-19 -102 -56 -306l-1 -6q-32 -61 -155 -68l10 8l-9 10q61 3 119 3l102 2q44 293 117 669q3 17 40.5 38t57.5 21q4 0 7 -1q70 -36 65 -57q-85 -344 -121 -673q131 -5 229 -13l-23 -20v6z" />
    <glyph glyph-name="periodcentered" unicode="&#xb7;" horiz-adv-x="1102" 
d="M852 293q-27 -21 -125 -26h-133q-102 0 -202 7q-22 -1 -38 11t-16 33q0 7 3 15q-1 27 21.5 44.5t49.5 16.5q104 7 205 7q137 0 213 -10q48 0 48 -41q0 -8 -3 -17q-2 -24 -23 -40zM833 319q7 5 7 13l1 6q2 3 2 5q0 12 -20 14h-2q-151 10 -210 10q-36 0 -102 -4
q-70 -4 -101 -4h-3q-31 -1 -31 -31q0 -10 3 -13q8 -7 19 -6h3q100 -8 201 -8q210 0 233 18z" />
    <glyph glyph-name="periodcentered" unicode="&#x2219;" horiz-adv-x="1102" 
d="M852 293q-27 -21 -125 -26h-133q-102 0 -202 7q-22 -1 -38 11t-16 33q0 7 3 15q-1 27 21.5 44.5t49.5 16.5q104 7 205 7q137 0 213 -10q48 0 48 -41q0 -8 -3 -17q-2 -24 -23 -40zM833 319q7 5 7 13l1 6q2 3 2 5q0 12 -20 14h-2q-151 10 -210 10q-36 0 -102 -4
q-70 -4 -101 -4h-3q-31 -1 -31 -31q0 -10 3 -13q8 -7 19 -6h3q100 -8 201 -8q210 0 233 18z" />
    <glyph glyph-name="cedilla" unicode="&#xb8;" 
d="M633 -169q-13 -2 -27 -2h-23q-14 1 -22 1h-3q-97 0 -291 -2q-15 -1 -15 10q0 1 17 40q5 13 19 13q3 0 10 1h11q5 0 10.5 -5.5t10.5 -5.5q16 1 30 -1h148q3 27 10 55h-54q-16 -1 -36 -1q-7 0 -16.5 -5.5t-13.5 -5.5h-21q-15 0 -15 29q0 33 22 32h202q106 0 106 -22
q0 -5 -3 -11q-13 -21 -15.5 -44t-2.5 -48q-4 -20 -38 -28zM398 -42q13 9 68 12h3h74q19 0 14 -19q-13 -44 -16 -87q-1 -19 -20 -19h-168h-3q-15 0 -31 1t-24 10l-1 1h-12l19 13l-3 -7q153 4 267 2q8 0 23.5 -1t23.5 -1q11 0 19 3h4q-3 43 15 82q-6 2 -70 2h-203l21 22
q1 -7 0 -14z" />
    <glyph glyph-name="onesuperior" unicode="&#xb9;" horiz-adv-x="2250" 
 />
    <glyph glyph-name="ordmasculine" unicode="&#xba;" horiz-adv-x="859" 
d="M824 623q-15 -16 -62 -27h-3q-61 -4 -102 -4h-180q-70 0 -97 3h-2q-68 7 -68 43q0 -10 9 41q8 43 13 53q11 19 46 27q8 2 21 3q41 6 110 6h180q64 0 91 -3h2q67 -7 67 -44q0 11 -10 -42q-1 -14 -3 -30t-12 -26zM800 645q1 13 4 34q5 13 9 36q-5 9 -42 16q-65 3 -89 3
h-180q-32 0 -105 -6h-3q-24 -2 -36 -15q-1 -14 -4 -34q0 -3 -4.5 -16.5t-3.5 -17.5q5 -8 43 -16q68 -3 94 -3h180q40 0 98 4q15 2 39 15zM640 698h-110l-3 -18q-1 -8 -3 -19h109q4 22 7 37zM671 680l-4 -32q-6 -21 -22 -21h-147q-14 0 -14 15q0 -12 8 38l4 32q5 21 21 21
h148q14 0 14 -15q0 7 -8 -38z" />
    <glyph glyph-name="guillemotright" unicode="&#xbb;" 
d="M588 208q-11 -4 -17 0.5t-4 15.5l10 58q2 11 39 31q25 12 49 24l48 25l-102 65q-8 5 -7 15l11 58q4 26 26 16q56 -23 308 -138q11 -5 11 -14q0 -11 -16 -18q-221 -90 -356 -138zM895 362q-82 38 -250 112l-4 -22l118 -75q8 -5 8 -13q0 -10 -13 -17l-144 -75l-4 -23
q111 40 289 113zM249 202q-7 -3 -11 -3q-9 0 -9 11q0 12 12 40l16 32q3 10 63 41q39 19 78 39q-36 23 -108 68q-4 3 -8 32q-2 19 -3 38q-4 24 17 24q5 0 10 -2l164 -71q86 -37 164 -73q11 -5 11 -14q0 -12 -16 -18q-179 -71 -380 -144zM319 476q1 -10 0 -20q31 -18 124 -79
q8 -5 8 -13q0 -10 -12 -17q-51 -26 -152 -79q-4 -10 -9 -20q160 58 302 114q-61 27 -129 56z" />
    <glyph glyph-name="onequarter" unicode="&#xbc;" horiz-adv-x="2250" 
 />
    <glyph glyph-name="onehalf" unicode="&#xbd;" horiz-adv-x="2250" 
 />
    <glyph glyph-name="threequarters" unicode="&#xbe;" horiz-adv-x="2250" 
 />
    <glyph glyph-name="questiondown" unicode="&#xbf;" 
d="M794 495q-49 -12 -98 -12h-38q-98 0 -94 67q2 48 63 63q2 0 96 9q60 0 81 -3q51 -10 51 -44q0 -9 -4 -21q-10 -52 -57 -59zM817 556l1 4q1 4 1 7q0 17 -55 20h-46q-33 -2 -67 -4q-51 -6 -52 -29q-2 -37 65 -37h38q29 0 90 12h2q18 4 23 27zM786 362q-1 -1 -1 -2
q-5 -31 -17 -93l-1 -2q-18 -79 -140 -79q-26 0 -72 -1q-49 -1 -71 -1q-4 -28 -41 -217q193 2 276 -3q38 2 49 5q32 7 37 27q2 11 14 15q8 3 23 1q22 -2 20 -2q15 0 15 -26q0 -10 -2.5 -26.5t-2.5 -18.5v-46q-3 -32 -24 -30q-240 22 -505 11q-69 -4 -105 4h-2q-32 7 -40 11
q-20 11 -19 34l1 4q20 95 67 284l1 3q16 59 160 59l120 1q4 29 14 87q-6 28 -58.5 34.5t-51.5 20.5l1 12q2 25 22 24q112 -1 224 -1t225 5q7 1 11.5 -4.5t3.5 -12.5q-2 -6 -4 -17q-3 -15 -48 -21q-53 -7 -73 -24q-1 -5 -6 -15zM756 375q21 54 110 62l16 1l15 1l-9 -8l9 -9
q-113 -5 -226 -6t-225 2l21 17v-1q48 -5 69 -14q34 -15 40 -50v-6l-9 -54t-9 -53.5t-21 -17.5h-137q-108 0 -121 -30q-30 -157 -66 -285q2 -2 37 -12q51 -6 98 -4q256 12 487 -9q1 41 5 78h-7q-24 -48 -118 -48h-3q-97 2 -293 3q-7 -1 -11.5 4.5t-2.5 12.5q17 84 47 252
q3 17 21 17q26 0 79.5 1t80.5 1q86 0 100 48l18 96q0 1 1 4t4 7z" />
    <glyph glyph-name="Agrave" unicode="&#xc0;" 
d="M728 753q-32 -2 -71 1q-33 24 -97 71.5t-96 70.5q-9 6 -9 14q0 18 24 18q132 0 140 -5q62 -46 188 -137q8 -6 8 -14q0 -17 -22 -18q-33 -3 -65 -1zM735 787h4q-46 35 -140 103q-31 0 -62 2h-2q47 -36 141 -105q29 1 59 0zM773 -5q-88 4 -178 6q-16 0 -14 16q10 88 24 174
l26 156q13 0 -167 0q-14 -78 -30 -156l-34 -173q-4 -17 -21 -17q-219 -5 -353 -17q-16 -2 -16 14q0 11 7.5 23t16.5 13q43 5 62 11q36 10 56 32q31 119 64 305q46 261 55 306v3q13 60 186 54q129 -3 322 0q73 2 103 -3q70 -10 63 -51v-3q-2 -10 -53 -302q-33 -181 -43 -301
q10 -35 67 -42q54 -7 56 -38l-3 8q-75 -24 -196 -18zM936 1q-108 15 -122 73v5q25 298 96 609q0 17 -62 21q-30 2 -74 2q-195 -4 -324 0q-136 3 -144 -23q-14 -106 -55 -327q-50 -274 -70 -299q-39 -49 -136 -61l-13 -1l6 4l-9 14q130 12 339 17l31 156q18 87 34 173
q3 17 20 17h202q17 0 14 -17l-29 -173q-13 -77 -22 -156q158 -4 171 -5q112 -9 151 -41q-3 5 -4 8v4zM666 550l20 106h-168q-8 -53 -18 -106l-18 -106h166zM701 550l-21 -123q-3 -17 -21 -17h-201q-17 0 -14 17l21 123q11 62 20 123q3 19 21 18h204q18 0 14 -17
q-12 -62 -23 -124z" />
    <glyph glyph-name="Aacute" unicode="&#xc1;" 
d="M713 826q-128 -75 -133 -74q-42 -1 -127 1q-17 0 -17 13q0 11 14 19q242 140 248 140q65 0 131 4q19 2 19 -12q0 -11 -14 -20q-61 -36 -121 -71zM761 892q-33 -1 -64 -1l-179 -104h5h59zM773 -5q-88 4 -178 6q-16 0 -14 16q10 88 24 174l26 156q13 0 -167 0
q-14 -78 -30 -156l-34 -173q-4 -17 -21 -17q-219 -5 -353 -17q-16 -2 -16 14q0 11 7.5 23t16.5 13q43 5 62 11q36 10 56 32q31 119 64 305q46 261 55 306v3q13 60 186 54q129 -3 322 0q73 2 103 -3q70 -10 63 -51v-3q-2 -10 -53 -302q-33 -181 -43 -301q10 -35 67 -42
q54 -7 56 -38l-3 8q-75 -24 -196 -18zM936 1q-108 15 -122 73v5q25 298 96 609q0 17 -62 21q-30 2 -74 2q-195 -4 -324 0q-136 3 -144 -23q-14 -106 -55 -327q-50 -274 -70 -299q-39 -49 -136 -61l-13 -1l6 4l-9 14q130 12 339 17l31 156q18 87 34 173q3 17 20 17h202
q17 0 14 -17l-29 -173q-13 -77 -22 -156q158 -4 171 -5q112 -9 151 -41q-3 5 -4 8v4zM666 550l20 106h-168q-8 -53 -18 -106l-18 -106h166zM701 550l-21 -123q-3 -17 -21 -17h-201q-17 0 -14 17l21 123q11 62 20 123q3 19 21 18h204q18 0 14 -17q-12 -62 -23 -124z" />
    <glyph glyph-name="Acircumflex" unicode="&#xc2;" 
d="M870 759q-21 0 -40.5 -1t-23.5 -1q-13 0 -28 7q-33 14 -66 29l-76 33q-187 -69 -194 -69q-66 0 -130 4q-17 1 -17 13q0 13 17 20q56 23 167.5 68.5t167.5 68.5q8 3 14 0q97 -45 289 -136q11 -5 11 -15q0 -17 -23 -18q-34 -2 -68 -3zM394 792h51q196 72 203 69l162 -69
q44 1 132 4l-11 -33l-283 133q-85 -35 -254 -104zM595 1q-16 0 -14 16q10 88 24 173l26 157q13 0 -167 0q-14 -78 -30 -156l-34 -173q-4 -17 -21 -17q-219 -5 -353 -17q-16 -2 -16 14q0 11 7.5 23t16.5 13q43 5 62 11q37 10 56 33q31 118 64 304q45 260 55 305v3
q12 60 187 54q114 -3 321 0q174 3 165 -54v-3q-5 -34 -53 -300q-32 -183 -42 -301q9 -34 67 -42q54 -8 56 -39l-3 8q-107 -15 -374 -12zM936 2l-25 4q-84 13 -97 70v4q20 261 95 607q1 24 -163 24q-37 0 -84 -2q-25 0 -50 -1q2 0 -84 2q-74 1 -120 0q-66 -3 -90 -12
q-10 -4 -12 -11q-14 -105 -55 -325q-49 -272 -70 -299q-38 -50 -136 -62l-13 -1l6 4l-9 14q130 12 339 17l31 156q18 87 34 173q3 17 20 17h202q17 0 14 -17l-29 -173q-13 -77 -22 -156q218 -3 322 -46q-4 4 -4 13zM666 550q10 52 20 105h-168q-8 -53 -18 -105l-18 -106h166
zM701 550l-21 -123q-3 -17 -21 -17h-201q-17 0 -14 17l21 123q11 61 21 123q3 18 21 17h203q18 0 14 -17q-12 -62 -23 -123z" />
    <glyph glyph-name="Atilde" unicode="&#xc3;" 
d="M901 797.5q-47 -25.5 -90 -26.5q-57 -2 -172 19q-119 21 -174 21q-47 0 -164 -30q-6 -1 -10 -1q-10 0 -10 9q0 17 23 43q65 73 148 78h4q9 1 29 1q40 -2 263 -34q40 -5 69 -5q58 0 165 41q6 2 11 2q13 0 13 -11q0 -7 -29 -44t-76 -62.5zM343 826l42 10q35 9 80 9
q57 0 171.5 -19.5t159.5 -19.5q48 0 78 14q35 17 56 37q11 10 43 49l17 -25q-114 -44 -187 -44q-39 0 -151 18q-163 26 -186 21q-9 -2 -19 -1q-57 -4 -99 -45zM773 -5q-88 4 -178 6q-16 0 -14 16q10 89 24 174l26 157h-166q-39 -204 -65 -331q-4 -16 -21 -16
q-220 -5 -353 -17q-16 -2 -16 14q0 11 7.5 23t16.5 13q45 6 62 10q36 10 56 33q32 119 64 306q46 263 55 306l1 3q12 59 185 53q108 -3 322 1q70 2 100 -3q67 -11 67 -50v-4q-74 -323 -98 -604q10 -32 66.5 -43t57.5 -21v-16l-3 8q-75 -24 -196 -18zM936 1q-109 15 -123 73
v5q23 283 98 610q-2 25 -137 23q-215 -5 -324 -1q-135 3 -144 -22q-15 -111 -54 -327q-50 -274 -71 -300q-39 -49 -136 -61l-13 -1l6 4l-9 14q129 12 339 17q26 125 65 330q3 17 20 17h201q18 0 15 -17l-29 -173q-12 -77 -22 -157q158 -4 171 -5q112 -9 151 -41q-3 5 -4 8v4
zM666 550q10 53 21 106q-85 -1 -169 0q-12 -70 -36 -212h166zM701 550l-21 -123q-3 -17 -21 -17h-201q-17 0 -14 17q7 41 21 123.5t21 123.5q3 18 21 17q102 -1 204 0q7 1 11.5 -4.5t2.5 -13.5q-13 -61 -24 -123z" />
    <glyph glyph-name="Adieresis" unicode="&#xc4;" 
d="M792 777q-96 0 -96 50q0 8 2 18q9 37 29 52q15 11 56 17q25 4 49 4q89 0 89 -51q0 -9 -3 -18q-19 -72 -126 -72zM885 857q0 15 -15 21q-46 17 -121 -6q-17 -5 -17 -38q0 -12 6 -14q23 -9 60 -9q23 0 42 6q45 12 45 40zM557 805q-32 -28 -100 -28q-83 0 -94 38
q-3 13 -3 25q0 78 114 78q115 0 104 -74q-3 -23 -21 -39zM536 829q17 15 4 33q-15 21 -73 21q-30 0 -49 -6q-30 -11 -20 -47q5 -19 65 -19q53 0 73 18zM773 -5q-88 4 -178 6q-17 0 -14 16q21 166 50 330h-167q-38 -203 -64 -330q-4 -16 -21 -16q-220 -5 -353 -17
q-16 -2 -16 14q0 11 7.5 23t16.5 13q43 5 62 11q39 10 56 32q31 120 64 305q46 266 54 305v3q6 27 31 38q13 6 49 12h3q31 6 104 4q184 -3 323 0q165 4 165 -53v-4q-75 -335 -96 -601q8 -35 64.5 -42t58.5 -39l-3 8q-75 -24 -196 -18zM936 2q-54 9 -76 19q-39 17 -46 55v4
q21 269 95 607q-1 25 -135 23q-123 1 -371 -1q-23 0 -52 -3q-12 -3 -25 -5q-18 -5 -21 -14q-40 -315 -120 -617q-7 -25 -50 -45q-35 -16 -67 -21q-13 -2 -23 -3l-13 -1l6 4l-9 14q129 12 339 17q26 124 65 329q3 17 20 17h201q18 0 15 -17q-29 -164 -51 -329q158 -4 171 -5
q112 -9 151 -41q-4 4 -4 13zM666 550q10 52 20 105q-85 -1 -169 0q-17 -106 -35 -211h166zM701 550l-21 -123q-3 -17 -21 -17h-201q-17 0 -14 17q21 122 41 246q3 18 21 17q101 -1 203 0q8 1 12.5 -4.5t2.5 -12.5q-12 -62 -23 -123z" />
    <glyph glyph-name="Aring" unicode="&#xc5;" 
d="M852 754q-41 -17 -100 -17q-17 0 -66 -2q-41 -1 -65 0q-29 -1 -86 0h-3q-50 2 -99 4q-55 9 -74 51q-5 11 5 62v3q8 41 84 52h2q57 9 146 7q128 -2 146 -2h45q138 0 128 -57v-2q-8 -45 -14 -58q-13 -26 -49 -41zM868 805l12 49q1 24 -99 24q-25 0 -113 -1q-69 -1 -112 0
q-55 0 -107 -4l-28 -6q-19 -5 -22 -14l-5 -48q14 -27 66 -32q41 -2 82 -3q57 -2 171 -1q28 1 84 5q51 7 71 31zM773 -5q-88 4 -178 6q-16 0 -14 16q10 89 24 174l26 157h-166q-15 -77 -31 -157l-34 -173q-4 -17 -21 -17q-220 -5 -353 -17q-16 -2 -16 14q0 11 7.5 23t16.5 13
q43 5 62 11q39 10 56 32q31 120 64 305q46 267 54 306v3q12 60 187 54q123 2 367 1q129 -3 121 -55v-3q-7 -43 -53 -301q-33 -184 -43 -301q8 -35 64.5 -42t58.5 -39l-3 8q-75 -24 -196 -18zM936 2q-54 9 -76 19q-39 17 -46 55v4q21 270 96 608q0 17 -62 21q-28 2 -74 2
q-195 -4 -324 0q-136 3 -145 -23q-40 -315 -120 -618q-7 -25 -50 -45q-35 -16 -67 -21q-13 -2 -23 -3l-13 -1l6 4l-9 14q129 12 339 17l31 157q18 88 34 173q3 17 20 17h201q18 0 15 -17l-29 -173q-12 -77 -22 -157q158 -4 171 -5q112 -9 151 -41q-4 4 -4 13zM696 841h-115
l-6 -35q39 -1 115 0q2 11 6 35zM728 825q-3 -27 -5 -32q-7 -21 -21 -21q-50 0 -150 -1q-7 -1 -11.5 4.5t-3.5 12.5q4 23 12 70q3 17 20 17q50 0 152 1q15 1 15 -15q0 -7 -4 -19q-3 -16 -4 -17zM666 550q10 53 21 106h-169q-12 -70 -36 -212h166zM701 550l-21 -123
q-3 -17 -21 -17h-201q-17 0 -14 17q7 41 21 123.5t21 123.5q3 18 21 17h204q18 0 14 -18q-13 -61 -24 -123z" />
    <glyph glyph-name="AE" unicode="&#xc6;" horiz-adv-x="1359" 
d="M1356 608h-21q-12 2 -12 12q0 3 1 7q5 18 -34 26q-27 5 -55 5q-180 -6 -293 -6q-24 -106 -45 -213q28 0 78 1q54 1 78 1q89 0 111 44q7 13 39 13q34 0 30 -19q-24 -106 -32 -169q-2 -20 -37 -20q-33 0 -34 14q-5 44 -94 44l-155 -1q-25 -142 -38 -260q125 -1 288 -6
q89 -2 100 36q5 16 38 16t34 -15l2 -58q0 -4 2.5 -21t2.5 -27q0 -31 -22 -29q-336 17 -708 15q-8 -1 -12 4.5t-3 12.5q33 166 62 329h-83q-42 0 -84 -1q-31 -173 -78 -333q-4 -15 -20 -15l-177 -4q-87 -2 -177 -7q-15 -1 -15 13q0 12 8.5 24.5t17.5 12.5q90 5 124 42
q97 291 104 610q0 29 29 42q8 4 51 14h3q60 4 103 3q556 -12 994 12q14 1 14 -13q0 -11 -10 -35l-14 -30q-9 -26 -18 -51q-12 -22 -43 -20zM21 4l-9 14q91 6 179 7l161 4q46 159 76 331q3 17 20 17q52 1 102 1h101q17 0 14 -17q-29 -163 -61 -328q351 1 667 -14l-2 34l-1 44
h-9q-28 -54 -135 -50q-173 5 -304 6q-16 0 -14 16q14 134 43 296q3 17 20 17h173q103 0 121 -55h5q9 59 25 135h-5q-37 -55 -141 -55q-22 0 -87 -2q-55 -1 -87 0q-17 0 -14 17q24 125 53 248q4 16 20 16q120 0 309 6q113 4 119 -49h7l17 44q6 16 14 34q-427 -23 -972 -10
q-41 0 -99 -3q-12 -3 -25 -5q-20 -5 -20 -11q-6 -327 -107 -626q-8 -24 -54 -44q-34 -14 -68 -19q-13 -2 -25 -3h-4h-9zM679 652h-88q-65 1 -88 1q-10 -105 -27 -212q-13 0 167 0q19 104 36 211zM675 423q-3 -17 -20 -17h-202q-7 -1 -11.5 4.5t-3.5 12.5q20 124 32 247
q1 18 20 18q36 0 106.5 -1t105.5 -1q17 0 15 -17q-20 -124 -42 -246z" />
    <glyph glyph-name="Ccedilla" unicode="&#xc7;" 
d="M564 -4q-52 0 -144 -2q-103 -2 -143 -2q-122 0 -122 44q0 5 1 10q79 360 102 649q7 39 60 48q17 3 80 3q40 0 150 -3q94 -3 152 -2q126 3 256 19q16 2 16 -16q0 -4 -16 -59l-10 -42q-9 -30 -25 -30q-3 0 -15 -2t-18 -2q-21 0 -20 16q1 23 -31 29q-25 1 -51 2
q-127 -8 -269 -5q-46 -304 -97 -567q98 2 265 -2q34 2 48 6q30 8 36 29q5 14 38 14q35 0 35 -23q0 5 -9 -51l-4 -44q-6 -31 -24 -29q-120 10 -241 12zM571 30q112 -1 222 -10q4 26 11 76l-7 1q-27 -48 -116 -50h-2q-94 2 -283 2q-7 -1 -11.5 4.5t-3.5 12.5q55 279 103 603
q3 18 22 17q52 -1 142 2q103 3 143 3h2q104 0 111 -46q3 1 7 1q5 20 11 42l10 35q-158 -18 -324 -18q-84 0 -169 5q-37 2 -48 2q-94 0 -98 -15q-22 -291 -103 -653q0 -1 1 -3q13 -15 92 -15q40 0 144 3q91 2 144 1zM610 -156q-60 4 -194 3q-73 -1 -147 -6q-15 -1 -15 19
q0 39 22 43q7 1 15 1q11 0 21.5 -5t15.5 -5q6 0 16.5 -0.5t15.5 0.5q52 1 154 1q3 19 8 58q-10 0 -27 -1h-27q-9 -1 -19 -1q-20 0 -34.5 -7t-15.5 -7h-11q-28 0 -25 16l3 14q5 31 23 31q256 8 295 -14q8 -5 6 -30q-3 -17 -5 -34t-3 -35q-4 -25 -15 -31q-27 -13 -57 -10z
M402 -25q14 8 68 11h3q91 6 87 -17t-13 -91q-3 -19 -22 -18q-57 -1 -170 -1h-2h-33q-19 2 -29 11q-5 0 -14 -1l17 15q-1 -4 -2 -7q106 6 277 2q66 -1 77 2q4 40 8 76q-33 13 -254 7h-16l20 15z" />
    <glyph glyph-name="Egrave" unicode="&#xc8;" 
d="M728 752q-32 -2 -72 2q-63 48 -192 143q-8 6 -8 14q0 20 24 18q65 -4 130 -4q9 0 198 -140q8 -6 8 -14q0 -17 -22 -18q-33 -3 -66 -1zM736 786h6q-48 35 -143 105q-28 0 -63 1q47 -36 141 -105q27 0 59 -1zM971 610q-31 0 -34 17q-4 21 -39 28q-31 6 -103 4
q-49 -1 -98 -3h-132q-8 -54 -18 -107l-18 -106q181 -2 224 11q24 8 38 28q13 17 22 17h35q18 0 14 -17q-9 -57 -29 -171q-3 -18 -36 -18q-32 0 -34 14q-4 44 -93 44l-158 -1q-15 -86 -47 -258q150 1 289 -7q27 -1 63 5q16 4 24 8q17 8 17 16q0 16 14 19h25q35 0 35 -28
q0 -7 -2 -21q-3 -18 -3 -25q0 -23 -1 -46q-3 -32 -24 -30q-204 19 -412 19t-419 -19q-13 -2 -15 6q-2 5 1 19q4 21 17 25q48 17 68 25q38 16 66 33q66 264 109 561q-36 28 -105 55q-12 4 -9 24q5 28 23 26q195 -13 396 -13q190 0 400 13q15 1 15 -17q0 -11 -6 -31
q-3 -13 -7 -26q-4 -21 -8 -43q-9 -30 -26 -30h-19zM239 736q118 -48 114 -74q-17 -119 -53 -314q-49 -267 -69 -280q-37 -25 -76 -40l-13 -5q178 14 354 14q198 0 394 -18q1 27 4 79l-6 1q-15 -31 -68 -43h-2q-36 -8 -80 -8q-27 0 -73 3q-51 4 -71 5q-75 1 -153 1
q-7 -1 -11.5 4.5t-2.5 12.5q17 98 53 294q4 17 21 17h175q105 0 120 -56h5q7 45 23 136h-5q-27 -43 -107 -53q-59 -1 -119 -3q-44 -2 -88 0q-17 0 -14 17l21 123q11 62 21 124q3 17 21 17q162 0 298 3q105 3 120 -49h8q6 26 18 77q-196 -12 -382 -12q-207 0 -399 14l22 20
v-7z" />
    <glyph glyph-name="Eacute" unicode="&#xc9;" 
d="M713 826q-125 -75 -133 -74q-42 -1 -126 1q-17 1 -17 13q0 11 14 19l130 76q110 64 117 64q22 0 66.5 2t66.5 2q18 0 18 -13q0 -11 -14 -19q-61 -35 -122 -71zM762 893h-3q-32 -2 -62 -2q-59 -35 -178 -105h4q31 1 59 1q60 35 180 106zM971 610q-31 0 -34 17
q-4 21 -39 28q-31 6 -103 4q-49 -1 -98 -3h-132q-8 -54 -18 -107l-18 -106q181 -2 224 11q24 8 38 28q13 17 22 17h35q18 0 14 -17q-9 -57 -29 -171q-3 -18 -36 -18q-32 0 -34 14q-4 44 -93 44l-158 -1q-15 -86 -47 -258q150 1 289 -7q27 -1 63 5q16 4 24 8q17 8 17 16
q0 16 14 19h25q35 0 35 -28q0 -7 -2 -21q-3 -18 -3 -25q0 -23 -1 -46q-3 -32 -24 -30q-204 19 -412 19t-419 -19q-13 -2 -15 6q-2 5 1 19q4 21 17 25q48 17 68 25q38 16 66 33q66 264 109 561q-36 28 -105 55q-12 4 -9 24q5 28 23 26q195 -13 396 -13q190 0 400 13
q15 1 15 -17q0 -11 -6 -31q-3 -13 -7 -26q-4 -21 -8 -43q-9 -30 -26 -30h-19zM239 736q118 -48 114 -74q-17 -119 -53 -314q-49 -267 -69 -280q-37 -25 -76 -40l-13 -5q178 14 354 14q198 0 394 -18q1 27 4 79l-6 1q-15 -31 -68 -43h-2q-36 -8 -80 -8q-27 0 -73 3
q-51 4 -71 5q-75 1 -153 1q-7 -1 -11.5 4.5t-2.5 12.5q17 98 53 294q4 17 21 17h175q105 0 120 -56h5q7 45 23 136h-5q-27 -43 -107 -53q-59 -1 -119 -3q-44 -2 -88 0q-17 0 -14 17l21 123q11 62 21 124q3 17 21 17q162 0 298 3q105 3 120 -49h8q6 26 18 77
q-196 -12 -382 -12q-207 0 -399 14l22 20v-7z" />
    <glyph glyph-name="Ecircumflex" unicode="&#xca;" 
d="M870 759q-46 -2 -55 -2q-22 0 -40 7q-32 14 -64 29l-78 33q-196 -69 -193 -69q-68 2 -130 6q-16 1 -16 13q0 13 16 20q112 44 334 135q8 3 14 0q98 -44 291 -135q11 -5 11 -15q0 -17 -22 -18zM392 794q26 -2 52 -2l106 40q88 33 95 29q108 -46 166 -69q66 2 131 5
l-12 -33q-96 43 -285 132q-46 -20 -253 -102zM971 609q-32 0 -34 17q-2 21 -36 27.5t-104 5.5l-100 -4h-132q-8 -54 -18 -106l-18 -106q183 -2 223 10q27 8 41 31q11 17 39 15q10 0 21.5 -2t8.5 -15l-15 -86q-7 -42 -12 -83q-3 -18 -21 -18h-35q-8 0 -13 12q-8 17 -16 24
q-15 14 -48 18q-19 2 -190 2q-15 -86 -47 -259q152 0 289 -6q91 -4 106 35q5 12 38 12q34 0 34 -26q0 -6 -2.5 -22t-2.5 -26q8 -80 -25 -76q-203 19 -412 19q-202 0 -419 -19q-13 -2 -15 6q-2 5 1 19q4 21 17 25q91 32 134 59q66 263 109 560q-33 26 -106 54q-10 4 -8 16
q0 3 0.5 8.5t1.5 8.5q3 19 22 17q194 -13 394 -13q190 0 400 12q15 1 15 -18q0 1 -13 -56l-8 -42q-8 -30 -25 -30h-19zM239 735q118 -48 114 -73q-17 -118 -53 -314q-49 -266 -68 -279q-38 -25 -76 -40l-15 -6q180 14 355 14q204 0 394 -18l1 36q1 22 3 43q-1 0 -8 1
q-32 -52 -140 -47q-136 6 -305 6q-18 0 -14 17q17 98 53 293q4 17 21 17q5 0 81 3q57 1 92 -1q50 -3 76 -12q38 -15 47 -46h5q1 11 10 67l11 68h-4q-27 -43 -107 -53q-60 -1 -119 -2q-44 -2 -88 0q-17 0 -14 17l21 123q11 61 21 123q3 17 21 17q162 0 298 3q107 3 120 -49h8
q8 38 17 76q-195 -11 -382 -11q-206 0 -397 14l14 11l8 6q-1 -3 -1 -4z" />
    <glyph glyph-name="Edieresis" unicode="&#xcb;" 
d="M897 810q-38 -33 -106 -33q-36 0 -69 9q-26 10 -26 44q0 24 14 46.5t35 29.5q44 13 91 13q87 0 87 -52q0 -33 -26 -57zM875 835q12 10 12 22q0 15 -15 21t-40 6q-44 0 -82 -12q-18 -5 -18 -38q0 -12 6 -14q27 -8 59 -8q54 0 78 23zM557 805q-32 -29 -90 -29q-41 0 -78 13
q-30 11 -30 51q0 29 20 50q24 25 68 27q56 4 90 -8q48 -17 41 -65q-3 -23 -21 -39zM536 829q17 15 4 33q-18 25 -97 21q-45 -3 -47 -31q-2 -25 10 -29q32 -12 69 -12q41 0 61 18zM972 608q-30 2 -31 9q-4 17 -10 22q-17 15 -85 19q-99 -3 -281 -3q-8 -54 -18 -106l-18 -106
q29 0 78 1h79q89 0 108 42q6 14 38 14q34 0 30 -19q-9 -57 -29 -170q-3 -18 -36 -18q-32 0 -34 14q-4 44 -93 44h-158q-15 -86 -47 -258q150 1 289 -7q27 -1 63 5q15 4 24 8q16 8 17 16q1 15 15 18h24q35 0 35 -28q0 -7 -2 -21q-3 -18 -3 -25q0 -23 -1 -46q-3 -32 -24 -30
q-203 19 -412 19q-202 0 -419 -19q-13 -2 -15 6q-2 5 1 19q4 21 17 25q51 18 68 25q39 16 66 33q66 262 109 560q-28 21 -107 55q-10 4 -8 16q0 6 2 17q3 19 22 17q195 -13 395 -13q190 0 401 12q15 1 15 -18q0 -7 -13 -57q-7 -27 -12 -54q-4 -20 -40 -18zM238 734
q118 -51 115 -73q-17 -118 -53 -313q-49 -267 -68 -280q-37 -25 -76 -40l-14 -5q180 14 354 14q203 0 394 -17q1 26 4 78l-4 1h-2q-16 -30 -68 -42h-2q-35 -8 -80 -8q-27 0 -72 3q-52 4 -71 5q-76 1 -154 1q-7 -1 -11.5 4.5t-2.5 12.5q17 98 53 293q4 17 21 17h175
q104 0 120 -56h5q7 45 23 134h-5q-35 -53 -139 -53q-17 0 -88 -1q-54 -1 -87 0q-17 0 -14 17l21 123q11 61 21 123q3 17 21 17q42 0 149 3q95 2 149 1h1q104 -1 119 -50h8q6 25 18 76q-196 -11 -383 -11q-206 0 -398 14l22 17q-1 -3 -1 -5z" />
    <glyph glyph-name="Igrave" unicode="&#xcc;" horiz-adv-x="654" 
d="M564 755h-72q-92 66 -190 149q-7 6 -7 14q0 21 26 17q56 -9 94 -9h9.5h7.5q16 0 33 -10q42 -30 83 -60q46 -33 94 -65q9 -6 9 -14q0 -16 -21 -18q-34 -4 -66 -4zM570 789l7 1q-42 28 -143 101q-29 2 -61 3q72 -58 139 -106q25 1 58 1zM325 3q-120 0 -243 -20q-9 -2 -14 3
t-3 14q1 6 3.5 17.5t37.5 26.5q25 10 50 19q32 13 62 32q56 278 101 555q-18 16 -107 57q-10 4 -8 16l1 8q5 29 24 26q104 -12 218 -12t241 12q8 1 12.5 -4t3.5 -13q-2 -6 -4 -18t-37 -24q-23 -7 -47 -15q-33 -12 -49 -30q-61 -320 -96 -561q15 -20 71 -43q48 -19 45 -32
l-1 -9q-5 -28 -24 -25q-116 20 -237 20zM550 5q-56 23 -70 30q-48 26 -45 49q35 247 98 575q6 33 135 77l4 1l7 2l-4 -5l10 -11q-128 -13 -244 -13q-117 0 -223 13l23 20v-8q118 -54 115 -76q-47 -286 -105 -573q-4 -20 -86 -55l-8 -3q88 9 175 9q123 0 242 -20l-24 -20v8z
" />
    <glyph glyph-name="Iacute" unicode="&#xcd;" horiz-adv-x="654" 
d="M550 828q-125 -77 -135 -76q-42 -1 -125 5q-15 2 -15 13t14 19q96 51 234 135q6 2 10 2q60 0 131 11q20 3 20 -12q0 -10 -13 -19q-60 -41 -121 -78zM595 895q-31 -3 -62 -3q-106 -64 -178 -104h5q32 0 58 -1q101 58 177 108zM325 3q-120 0 -243 -20q-9 -2 -14 3t-3 14
q1 6 3.5 17.5t37.5 26.5q25 10 50 19q32 13 62 32q56 278 101 555q-18 16 -107 57q-10 4 -8 16l1 8q5 29 24 26q104 -12 218 -12t241 12q8 1 12.5 -4t3.5 -13q-2 -6 -4 -18t-37 -24q-23 -7 -47 -15q-33 -12 -49 -30q-61 -320 -96 -561q15 -20 71 -43q48 -19 45 -32l-1 -9
q-5 -28 -24 -25q-116 20 -237 20zM550 5q-56 23 -70 30q-48 26 -45 49q35 247 98 575q6 33 135 77l4 1l7 2l-4 -5l10 -11q-128 -13 -244 -13q-117 0 -223 13l23 20v-8q118 -54 115 -76q-47 -286 -105 -573q-4 -20 -86 -55l-8 -3q88 9 175 9q123 0 242 -20l-24 -20v8z" />
    <glyph glyph-name="Icircumflex" unicode="&#xce;" horiz-adv-x="654" 
d="M705 763q-56 -4 -62 -4q-18 0 -35 7q-31 14 -61 28q-38 15 -77 32q-184 -68 -195 -67l-64 4q-33 2 -65 7q-15 2 -15 14q0 13 17 19q190 68 333 128q8 3 14 0q21 -10 289 -129q11 -5 11 -14q0 -17 -21 -19q-35 -4 -69 -6zM228 797l51 -3q64 22 190 67q6 2 96 -35
q39 -16 80 -32l64 3q33 2 67 6l-11 -33q-95 40 -283 126q-112 -47 -254 -99zM325 2q-121 0 -244 -10q-13 -2 -15 9q-1 6 2 20l1 5q2 13 15 17q83 24 134 54q55 276 100 551q-16 13 -108 52q-10 4 -8 16q0 6 2 17q3 19 22 17q113 -7 229 -7t232 6q8 1 12.5 -4.5t3.5 -12.5
q-1 -3 -2.5 -8.5t-1.5 -8.5q-3 -13 -37 -24l-48 -12q-32 -11 -49 -28q-56 -297 -93 -556q20 -26 74 -42q30 -9 32 -10q11 -6 11 -20q0 -6 -2 -14q-3 -19 -22 -17q-119 10 -240 10zM673 726l10 -11q-118 -6 -234 -7q-117 -1 -232 8l22 17q-1 -3 -1 -5q68 -28 69 -28
q50 -25 47 -43q-46 -284 -103 -569q-4 -21 -85 -53l-11 -4q89 6 176 6q153 1 221 -27v2l-22 7q-29 9 -57 26q-40 23 -37 42q15 106 48 306q43 263 52 274q23 26 62 41q11 4 69 20l3 1l9 3z" />
    <glyph glyph-name="Idieresis" unicode="&#xcf;" horiz-adv-x="654" 
d="M735 822q-38 -39 -105 -40q-92 -10 -95 35q-1 19 0 28l1 2q8 48 45 60l2 1q54 18 104 18q72 0 72 -46q0 -33 -24 -58zM712 844q5 5 9.5 17.5t0.5 16.5q-9 12 -39 12q-38 0 -95 -15q-11 -5 -17 -29q-2 -22 4 -24q28 -9 59 -6q52 1 78 28zM394 806q-38 -35 -101 -25
q-29 1 -55 12q-32 13 -37 35q-3 14 -3 26q0 70 93 70q12 0 26 -2q99 -11 99 -64q0 -32 -22 -52zM372 830q6 5 7 15q8 41 -99 44q-45 1 -46 -25q-1 -24 8 -31q3 -3 32 -13q7 -2 27 -5h3q48 -5 68 15zM326 2q-122 0 -244 -16q-13 -2 -16 6q-1 4 1 19q4 20 17 25q53 20 68 26
q38 16 66 34q56 276 101 552q-14 12 -109 55q-10 4 -8 16l3 17q4 19 23 17q113 -10 228 -10t233 9q8 1 12.5 -4t3.5 -13q0 -3 -1.5 -8t-2.5 -8q-2 -12 -36 -24q-23 -7 -47 -14q-34 -14 -51 -29q-60 -319 -94 -558q16 -23 73 -44q46 -16 41 -39q-4 -28 -23 -25
q-117 16 -238 16zM552 7l-22 8q-98 36 -93 71q34 246 97 572q3 19 49 42q33 17 64 26l35 10l-7 -7l11 -11q-119 -9 -236 -10q-87 0 -172 6l13 -6q68 -28 64 -51q-46 -285 -104 -570q-5 -22 -85 -54l-11 -5q89 9 177 9q124 1 243 -17l-23 -20v7z" />
    <glyph glyph-name="Eth" unicode="&#xd0;" 
d="M902 15q-34 -27 -170 -21q-341 13 -652 -11q-15 -2 -15 14q0 29 20 36q34 12 69 24q40 15 67 32q29 114 51 228h-32h-49q-18 0 -15 17l10 57q4 17 21 17h41q26 -1 40 -1q16 96 32 243q-44 33 -116 61q-9 3 -9 23q0 30 23 27q183 -17 396 -17q137 0 297 7q126 6 126 -43
q0 -5 -1 -10l-1 -2q-31 -108 -81 -325q-11 -65 -20 -161q-7 -81 -14 -163l-1 -2q-1 -18 -17 -30zM231 740q128 -51 125 -79q-17 -164 -36 -271q-3 -18 -45 -19q46 1 -57 2l-4 -22h32q73 0 40 2q28 -1 25 -18q-19 -97 -28 -139q-27 -122 -39 -130q-37 -25 -77 -39l-14 -5
q281 18 587 6q121 -4 143 13q1 2 1 3q12 324 117 655q1 14 -64 17q-34 1 -76 0q-139 -6 -262 -6q-208 0 -390 17l22 20v-7zM751 657q-70 -2 -179 -2q-9 -63 -20 -124l-22 -124h98q17 0 14 -17q-2 -18 -8 -55q-4 -17 -21 -17l-99 -1l-19 -110q-10 -54 -20 -109q163 0 177 -1
q30 255 99 560zM685 80q-3 -19 -22 -18q-26 1 -212 1q-18 0 -14 17q12 64 23 127l23 128q3 17 20 17h98l3 20l-97 1q-18 0 -15 17l25 141q12 70 23 141q3 17 21 17q133 0 214 3q8 1 12.5 -4.5t2.5 -13.5q-74 -323 -105 -594z" />
    <glyph glyph-name="Ntilde" unicode="&#xd1;" 
d="M977 860q-70 -90 -193 -90q-46 0 -145 19q-116 22 -165 22q-67 0 -172 -30q-7 -2 -12 -2q-10 0 -10 8q0 13 19 38q17 22 27 30q53 51 126 55h4q9 1 29 1q54 -3 132 -14q128 -20 131 -20q40 -5 68 -5q59 0 166 41q6 2 11 2q13 0 13 -12q0 -6 -29 -43zM343 827
q75 18 137 18q54 0 171 -22q98 -18 138 -18q104 0 161 73q11 14 23 28l17 -25q-114 -44 -189 -44q-44 0 -149 18q-158 27 -186 21q-9 -2 -19 -1q-59 -4 -99 -44l-3 -3zM604 1q-17 0 -14 16q30 242 106 642q-88 -1 -175 0q-48 -300 -118 -642q-4 -16 -21 -16
q-179 -3 -360 -18q-15 -2 -15 14q0 11 7.5 23.5t15.5 13.5q59 10 68 13q42 11 59 37q72 268 112 577q-5 31 -63 41q-53 10 -50 24q0 6 2 17q3 19 21 17q260 -18 608 -11q53 2 85 -2h1q88 -9 81 -54l-1 -3q-5 -30 -54 -303q-34 -183 -44 -302q11 -34 69 -43q53 -8 52 -31
q-1 -30 -23 -28q-146 13 -349 18zM940 2l-24 4q-82 13 -96 67l-1 5q25 285 99 612q1 14 -55 23q-74 3 -194 2q-157 -2 -194 -2q-153 2 -304 13l22 17l-1 -2q105 -14 113 -72v-4q-41 -314 -115 -587l-2 -5q-32 -54 -119 -67l-39 -6l5 4l-9 13q173 15 345 18q70 342 118 642
q3 18 21 17q104 -1 209 0q7 1 11.5 -4.5t3.5 -12.5q-76 -403 -107 -642q195 -5 336 -18l-23 -20v5z" />
    <glyph glyph-name="Ograve" unicode="&#xd2;" 
d="M728 753q-32 -2 -72 1q-64 48 -192 145q-8 5 -8 13q0 19 24 18q13 0 65 -3q40 -2 65 -2q12 0 197 -138q8 -6 8 -14q0 -17 -22 -18q-33 -3 -65 -2zM735 788h6q-47 34 -142 103q-31 0 -62 2h-3q22 -17 50 -38l92 -68q29 1 59 1zM830 16q-30 -26 -169 -18q-180 10 -337 0
q-32 -2 -47 -2q-66 0 -80 2q-51 9 -48 45l1 4q34 126 68 323q49 276 59 324v3q11 52 131 52q7 0 54 -2q180 -6 323 0q51 3 88 0q43 -7 51 -11q27 -11 23 -39v-3q-37 -215 -100 -647l-1 -2q-2 -17 -16 -29zM810 41q1 1 1 3q17 257 101 650q0 10 -49 19q-46 3 -123 0
q-98 -3 -123 -3l-152 4q-112 1 -141 -10q-10 -4 -12 -10q-46 -347 -127 -649q0 -15 98 -15q35 0 107 3.5t109 3.5q27 0 135 -5q82 -3 135 -1q15 0 41 10zM695 656q-119 -2 -178 0q-46 -283 -102 -566q46 1 91 1q46 0 93 -1q35 244 96 566zM631 73q-2 -19 -21 -18
q-55 2 -110 2q-54 0 -109 -2q-7 -1 -11.5 4.5t-3.5 12.5q60 301 109 602q3 18 22 17q70 -2 212 0q7 1 11.5 -4.5t2.5 -12.5q-65 -343 -102 -601z" />
    <glyph glyph-name="Oacute" unicode="&#xd3;" 
d="M713 826q-126 -75 -133 -74q-43 -1 -127 2q-17 1 -17 13q0 11 14 19q240 139 248 139q25 0 66 3q50 3 67 3q18 1 18 -13q0 -10 -14 -19zM699 856l63 37q-34 -2 -65 -2q-60 -35 -180 -104h6h59q63 36 117 69zM830 16q-30 -26 -169 -18q-180 10 -337 0q-32 -2 -47 -2
q-66 0 -80 2q-51 9 -48 45l1 4q34 126 68 323q49 276 59 324v3q11 52 131 52q7 0 54 -2q180 -6 323 0q51 3 88 0q43 -7 51 -11q27 -11 23 -39v-3q-37 -215 -100 -647l-1 -2q-2 -17 -16 -29zM810 41q1 1 1 3q17 257 101 650q0 10 -49 19q-46 3 -123 0q-98 -3 -123 -3l-152 4
q-112 1 -141 -10q-10 -4 -12 -10q-46 -347 -127 -649q0 -15 98 -15q35 0 107 3.5t109 3.5q27 0 135 -5q82 -3 135 -1q15 0 41 10zM695 656q-119 -2 -178 0q-46 -283 -102 -566q46 1 91 1q46 0 93 -1q35 244 96 566zM631 73q-2 -19 -21 -18q-55 2 -110 2q-54 0 -109 -2
q-7 -1 -11.5 4.5t-3.5 12.5q60 301 109 602q3 18 22 17q70 -2 212 0q7 1 11.5 -4.5t2.5 -12.5q-65 -343 -102 -601z" />
    <glyph glyph-name="Ocircumflex" unicode="&#xd4;" 
d="M803 759q-3 -1 -170 67q-184 -68 -193 -67q-43 2 -127 9q-16 1 -16 14t17 19l166 64q83 31 164 66q8 3 14 0q59 -29 291 -130q11 -5 11 -14q0 -17 -22 -19q-68 -6 -135 -9zM395 797l49 -3q63 22 188 67q6 2 179 -67q27 1 55 3l-82 35q-72 31 -139 64q-78 -33 -158 -64z
M830 16q-17 -14 -65 -19q-91 3 -272 5q-35 0 -107 -3t-109 -3q-66 0 -80 2q-51 9 -48 45l1 3q33 126 68 324q48 273 59 323v3q11 52 126 52q1 0 60 -3q51 -2 160 -2q34 0 102.5 2t102.5 2q127 0 119 -51v-3q-37 -215 -100 -646l-1 -2q-2 -18 -16 -29zM810 41q1 2 1 3
q19 268 101 649q0 20 -90 20q-34 0 -102.5 -2t-102.5 -2q-10 0 -130 3q-79 2 -132 -2q-39 -4 -43 -17q-44 -331 -127 -648q0 -15 98 -15q37 0 109 3.5t107 3.5q89 -4 269 -6q16 1 42 10zM644 373l51 283q-119 -2 -177 0q-42 -262 -103 -565q46 1 92 1t92 -1q21 142 45 282z
M679 373q-26 -149 -48 -299q-2 -19 -21 -18q-54 2 -109 2t-110 -2q-7 -1 -11.5 4.5t-3.5 12.5q66 322 109 601q3 18 22 17q70 -2 212 0q7 1 11.5 -4.5t2.5 -12.5z" />
    <glyph glyph-name="Otilde" unicode="&#xd5;" 
d="M980 870q-75 -99 -201 -99q-47 0 -139 18q-124 23 -179 23q-67 0 -157 -23q-6 -1 -10 -1q-10 0 -10 9q0 17 22 43q67 75 147 73h16q49 0 161.5 -19t168.5 -19q62 0 109 17q39 14 77 31q6 2 12 2q13 0 13 -12q0 -4 -30 -43zM344 833q63 13 121 13q53 0 130 -13
q112 -19 139 -23q31 -3 54 -3q103 0 165 80q11 16 24 30l18 -26q-121 -53 -200 -53q-42 0 -143 17q-147 24 -189 24q6 0 -13 -1h-3q-59 -3 -97 -40zM829 16q-20 -16 -63 -19h-2q-12 -1 -56 -1q-37 0 -107 3q-74 3 -108 3q-44 0 -215 -7q-52 -3 -80 3q-52 10 -49 45l1 4
q34 126 68 323q49 282 58 323v3q8 36 59 47q23 4 79 4q351 0 371 1q30 2 46 2q117 0 117 -47q0 -4 -1 -9q-47 -212 -101 -647l-1 -2q-2 -18 -16 -29zM809 41q1 2 1 3q21 286 102 652q3 13 -58 17q-39 2 -73 1q-22 -1 -373 -1q-91 0 -97 -20q-43 -337 -126 -648
q0 -22 143 -13q159 11 341 0q35 -2 45 -2q24 0 54 1q15 1 41 10zM695 657q-118 -2 -176 0q-47 -283 -104 -567q47 1 92 1t92 -1q35 253 96 567zM631 73q-2 -19 -21 -18q-55 2 -109 2t-110 -2q-7 -1 -11.5 4.5t-3.5 12.5q61 302 110 603q3 18 22 17q69 -2 211 0
q7 1 11.5 -4.5t2.5 -12.5q-65 -334 -102 -602z" />
    <glyph glyph-name="Odieresis" unicode="&#xd6;" 
d="M784 779q-34 0 -61 8q-33 10 -25 58q8 44 47 61q22 9 78 14q99 10 99 -49q0 -8 -2 -17q-19 -75 -136 -75zM875 838q12 12 12 24q0 24 -50 24q-75 0 -93 -17q-8 -8 -11 -24q-3 -21 6 -24q22 -7 52 -7q59 0 84 24zM557 806q-31 -28 -88 -28q-43 0 -81 15q-28 11 -28 51
q0 33 26 54q32 26 92 21q110 -8 101 -74q-4 -23 -22 -39zM540 862q-18 26 -97 23q-47 -1 -47 -35q0 -23 20 -29q33 -10 75 -8q25 2 42 14q21 16 7 35zM830 16q-30 -26 -170 -18.5t-382 -2.5q-133 -6 -129 48l1 4q34 126 68 323q49 282 58 323v3q11 52 126 52q1 0 60 -3
q117 -4 366 2q49 1 77 -6q48 -12 43 -46v-3q-38 -215 -101 -645l-1 -2q-2 -17 -16 -29zM810 41q1 1 1 3q21 291 102 648q0 16 -60 19q-33 2 -73 1q-176 -7 -325 -1q-137 5 -144 -18q-43 -337 -126 -648q0 -22 143 -13q159 11 341 0q123 -6 141 9zM695 656h-89h-89
q-46 -283 -102 -565q47 1 92 1q46 0 92 -1q35 243 96 565zM631 74q-2 -19 -21 -18q-55 2 -109 2t-110 -2q-7 -1 -11.5 4.5t-3.5 12.5q60 300 109 600q3 17 21 17h106q53 0 107 1q7 1 11.5 -4.5t2.5 -12.5q-65 -343 -102 -600z" />
    <glyph glyph-name="multiply" unicode="&#xd7;" horiz-adv-x="2250" 
 />
    <glyph glyph-name="Oslash" unicode="&#xd8;" 
d="M829 16q-32 -29 -169 -22q-178 8 -337 1q-44 -2 -46 -2q-59 0 -80 4q-50 11 -47 46l1 4q92 328 113 646v4q8 27 34 37q13 6 49 10q53 2 138 0q107 -3 138 -3q106 0 214 5q124 6 124 -42q0 -4 -1 -9v-2q-28 -108 -76 -323q-11 -65 -22 -161q-9 -81 -17 -162l-1 -2
q-2 -17 -15 -29zM808 41q1 1 1 3q22 321 116 652v3q-14 16 -137 12q-109 -4 -171 -4q-32 0 -137 2q-84 2 -137 1q-12 -2 -24 -3q-17 -4 -20 -12q-21 -320 -113 -650q-1 -18 97 -18q37 0 107 3q74 3 108 3q9 0 81.5 -2.5t116.5 -2.5q98 0 112 13zM699 653q-47 -1 -93 -1h-93
q-43 -296 -98 -564h92t91 -1q38 271 101 566zM631 70q-3 -19 -22 -18q-54 2 -109 2q-54 0 -109 -1q-8 -1 -12.5 4.5t-2.5 13.5q60 284 105 598q2 19 21 18q55 -1 110 -1t111 2q8 1 12 -4.5t3 -13.5q-68 -313 -107 -600z" />
    <glyph glyph-name="Ugrave" unicode="&#xd9;" 
d="M728 753q-32 -2 -72 1l-192 142q-9 6 -9 14q0 18 24 18q132 0 140 -5q32 -23 94 -69t94 -68q8 -6 8 -14q0 -17 -22 -18q-33 -3 -65 -1zM735 787h5q-47 35 -141 103q-31 0 -64 2l141 -105q29 1 59 0zM638 0q-71 2 -183 0q-150 -1 -182 -1q-137 0 -127 54v3q14 73 64 303
q42 189 57 303q-6 30 -62 40q-51 10 -48 24l1 8q5 28 22 26q135 -9 334 -12q17 0 14 -17q-48 -320 -114 -641h182q40 284 109 641q4 17 21 17q170 1 342 12q8 1 12.5 -4t3.5 -13q-2 -6 -4 -17q-3 -15 -58 -23q-61 -9 -80 -41q-69 -327 -89 -577q9 -32 66 -43t57 -22
q1 -39 -23 -37q-158 14 -315 17zM940 1q-108 15 -122 73v5q20 255 90 588l2 5q32 56 116 67l37 4l-8 -7l9 -10q-165 -11 -327 -12q-69 -357 -109 -641q-2 -19 -21 -18h-217q-8 -1 -12 4.5t-3 13.5q67 321 116 641q-190 2 -319 12l22 20v-5q100 -14 109 -70v-5
q-44 -322 -122 -612q0 -2 1 -5q16 -16 97 -16q32 0 183 2q112 2 183 0q158 -4 318 -18l-23 -20v4z" />
    <glyph glyph-name="Uacute" unicode="&#xda;" 
d="M713 826q-128 -75 -133 -74q-42 -1 -127 1q-17 0 -17 13q0 11 14 19q242 140 248 140q65 0 131 4q19 2 19 -12q0 -11 -14 -20q-61 -36 -121 -71zM761 892q-33 -1 -64 -1l-179 -104h5h59zM638 0q-71 2 -183 0q-150 -1 -182 -1q-137 0 -127 54v3q14 73 64 303
q42 189 57 303q-6 30 -62 40q-51 10 -48 24l1 8q5 28 22 26q135 -9 334 -12q17 0 14 -17q-48 -320 -114 -641h182q40 284 109 641q4 17 21 17q170 1 342 12q8 1 12.5 -4t3.5 -13q-2 -6 -4 -17q-3 -15 -58 -23q-61 -9 -80 -41q-69 -327 -89 -577q9 -32 66 -43t57 -22
q1 -39 -23 -37q-158 14 -315 17zM940 1q-108 15 -122 73v5q20 255 90 588l2 5q32 56 116 67l37 4l-8 -7l9 -10q-165 -11 -327 -12q-69 -357 -109 -641q-2 -19 -21 -18h-217q-8 -1 -12 4.5t-3 13.5q67 321 116 641q-190 2 -319 12l22 20v-5q100 -14 109 -70v-5
q-44 -322 -122 -612q0 -2 1 -5q16 -16 97 -16q32 0 183 2q112 2 183 0q158 -4 318 -18l-23 -20v4z" />
    <glyph glyph-name="Ucircumflex" unicode="&#xdb;" 
d="M869 759q-70 -3 -84 2q-37 16 -75 32t-77 33q-187 -69 -193 -69q-66 0 -130 4q-17 1 -17 13q0 13 17 20q55 23 166.5 68.5t167.5 68.5q8 3 14 0q97 -45 290 -136q11 -5 11 -15q0 -17 -23 -18q-34 -2 -67 -3zM392 792h51q195 72 202 69l165 -69l64 1q33 1 66 3l-11 -33
q-95 44 -284 133q-85 -35 -253 -104zM638 1q-69 0 -183 -1q-138 -1 -182 -1q-137 0 -127 54v3q14 78 64 302q42 190 58 303q-6 29 -62 39q-51 10 -49 25q1 6 2 17q4 19 22 17l16 -1q145 -9 318 -12q17 0 14 -17q-64 -388 -115 -638q122 2 182 0q52 355 109 638q4 17 20 17
q169 2 343 12q12 1 14 -7q1 -4 -1 -19q-5 -24 -60 -31q-61 -8 -78 -39q-69 -317 -90 -576q8 -28 40 -38q28 -5 55.5 -10.5t27.5 -26.5q-1 -31 -23 -28q-157 16 -315 18zM940 2l-25 4q-84 13 -97 70v4q21 264 91 586l2 5q28 55 114 66l37 4l-7 -5l9 -12q-167 -10 -327 -12
q-57 -283 -109 -638q-2 -19 -21 -18q-72 2 -217 0q-7 -1 -11.5 4.5t-3.5 13.5q53 252 116 638q-174 2 -318 13l21 17v-2q49 -9 69 -18q35 -17 41 -52v-5q-48 -329 -123 -611q0 -2 1 -5q16 -16 97 -16q44 0 183 2q114 1 182 0q160 -2 319 -18l-23 -20v5z" />
    <glyph glyph-name="Udieresis" unicode="&#xdc;" 
d="M792 777q-96 0 -96 50q0 8 2 18q9 37 29 52q15 11 56 17q24 4 48 4q90 0 90 -52q0 -8 -3 -17q-19 -72 -126 -72zM885 857q0 14 -16 21q-46 17 -120 -6q-17 -5 -17 -38q0 -12 6 -14q23 -9 60 -9q23 0 42 6q45 12 45 40zM557 805q-32 -28 -100 -28q-86 0 -94 39
q-3 13 -3 24q0 42 37 62q31 17 80 15q112 -4 101 -73q-3 -23 -21 -39zM536 829q17 15 4 33q-15 21 -73 21q-37 0 -54 -9q-23 -11 -16 -45q4 -18 66 -18q53 0 73 18zM638 0q-182 4 -320 0q-67 -3 -89 0h-2q-39 4 -55 10q-29 13 -26 42v4q77 286 121 604q-6 30 -63 40
q-51 9 -47 33q5 28 22 26q166 -12 335 -12q17 0 14 -17q-48 -319 -114 -639h182q40 284 109 638q3 17 21 17q170 1 343 12q7 1 12 -4t3 -13q0 -3 -1.5 -8.5t-2.5 -8.5q-2 -15 -58 -24q-62 -10 -80 -40q-71 -337 -89 -574q8 -32 65.5 -43.5t57.5 -22.5q1 -39 -23 -37
q-158 14 -315 17zM940 1q-111 15 -122 75v4q18 242 90 585l2 5q32 56 140 70l14 1l-8 -7l9 -10q-165 -11 -328 -12q-69 -354 -109 -638q-2 -19 -20 -18h-218q-7 -1 -11.5 4.5t-3.5 13.5q67 319 116 639q-153 0 -320 12l22 20v-5q48 -9 69 -19q35 -17 40 -52l1 -5
q-44 -321 -122 -610q0 -11 57 -20q35 -1 86 0q89 3 178 3q234 0 461 -20l-23 -20v4z" />
    <glyph glyph-name="Yacute" unicode="&#xdd;" 
d="M713 826q-128 -75 -133 -74q-42 -1 -127 1q-17 0 -17 13q0 11 14 19q242 140 248 140q65 0 131 4q19 2 19 -12q0 -11 -14 -20q-61 -36 -121 -71zM761 892q-33 -1 -64 -1l-179 -104h5h59zM1024 704q-61 -8 -82 -42q-19 -86 -49 -257q-12 -68 -181 -68q-12 -1 -40 0
q-12 -82 -34 -245q7 -30 63 -39q53 -8 53 -20q0 -11 -1 -19q-3 -18 -21 -17q-120 5 -240 5q-119 0 -241 -4q-13 -1 -14 10q-2 7 2 20l1 1q6 19 22 19q37 0 83 17q15 7 34 25q26 124 48 246h-10q-1 -1 -30 0q-42 0 -84 4q-41 8 -52 13q-28 13 -28 41l1 3q26 133 43 265
q-6 30 -62 40q-51 10 -48 24l1 8q5 28 22 26q135 -9 334 -12q17 0 14 -17q-24 -153 -50 -306h171q27 153 56 306q4 17 21 17q170 1 342 12q8 1 12.5 -4t3.5 -13q-2 -6 -4 -17q-3 -14 -24 -18zM1055 736l9 -10q-165 -11 -327 -12q-30 -154 -57 -306q-3 -17 -20 -17h-206
q-18 0 -15 17q27 152 52 306q-190 2 -319 12l22 20v-5q100 -14 109 -70v-5q-18 -134 -44 -267q1 -14 56 -25q35 -3 78 -4q10 0 29 1h29q17 0 14 -17q-14 -89 -51 -267l-1 -1q-4 -19 -21 -30t-34 -21l-4 -2q-54 -19 -99 -19l10 7l-9 11q122 4 242 4q97 0 148 -6
q-36 17 -44 52v5q4 35 38 266q2 18 34 20l44 -2q48 1 76 5q60 8 64 29q30 173 50 262l2 5q32 56 116 67l37 4z" />
    <glyph glyph-name="Thorn" unicode="&#xde;" horiz-adv-x="1030" 
d="M321 551q0 4 2 7q4 32 10 96q-7 32 -63.5 43t-56.5 23q-1 40 22 37q131 -13 352 -16q17 0 14 -17q-10 -59 -19 -119q162 0 252 2q174 6 164 -54l-1 -3q-21 -131 -57 -304v-2q-8 -36 -59 -48q-15 -4 -79 -8q-19 -1 -46 0q-111 2 -247 2q-6 -33 -19 -101q6 -31 63 -37
q54 -5 51 -21q0 -5 -2 -16q-3 -18 -21 -17q-286 2 -477 -15q-16 -2 -16 14q0 11 7.5 23.5t15.5 13.5q31 5 63 10q40 10 56 31q12 40 21 80l18 82q-1 9 -1 12q27 123 51 297zM248 738l25 -4q85 -15 96 -70v-4q-4 -34 -11 -103l-3 -7l1 1q-1 -3 -2 -7q-24 -171 -50 -293
q3 -19 -5 -50q-7 -24 -13 -47q-19 -82 -26 -92q-22 -32 -63 -45q-18 -6 -74 -15l-5 -1l-7 -1l5 4l-10 13q194 18 482 15l-12 -10l6 -8q-55 3 -80 12q-42 15 -47 55v5q3 20 11 61t11 61q3 17 21 17q149 0 265 -3q133 -3 142 25q26 174 58 304q0 16 -61 20q-33 3 -73 2
q-91 -3 -271 -3q-14 0 -14 23q0 -2 11 62l8 52q-210 3 -337 16l14 13l8 7v-5zM741 517q-17 -1 -174 -1l-20 -118l-21 -119h86h86q16 104 43 238zM731 262q-3 -19 -21 -18q-52 1 -104 1h-104q-17 0 -14 17l24 136q12 68 23 136q2 17 20 17q183 0 210 1q7 1 11.5 -4.5
t3.5 -13.5q-32 -153 -49 -272z" />
    <glyph glyph-name="germandbls" unicode="&#xdf;" 
d="M858 -91q-37 -20 -111 -20q-24 0 -66.5 3t-57.5 3q-46 0 -92 1q-42 -2 -63 -7q-40 -11 -52 -36q-7 -12 -57 -12q-14 0 -14 19q0 -2 11 53q3 21 7 41q8 30 24 30q67 1 133 1q57 0 115 -1q21 162 63 387q-32 -7 -48.5 -25.5t-22.5 -18.5h-36q-14 0 -14 19q0 -9 9 51l6 42
q8 29 25.5 29t49.5 1h50q17 91 38 181q-105 -4 -180 -3q-26 -155 -53 -308l-59 -326q-3 -17 -20 -17q-219 -6 -337 -12q-7 -1 -12 4t-3 13q1 6 3.5 18.5t51.5 20.5q57 9 79 34q33 155 49 256q-18 -8 -28 -25q-8 -13 -19 -13h-17q-34 0 -31 18q10 55 18 110q2 18 28 19l38 -2
h28q18 131 28 215q-8 33 -67 45q-54 11 -50 34q5 28 24 26q170 -19 372 -19q119 0 259 6q73 4 107 -4h2q38 -9 41 -10q21 -10 19 -35l-1 -4q-24 -79 -54 -208l-2 -5q-22 -42 -74 -55l-92 -12l6 34l86 -8q48 -12 53 -55v-5q-49 -253 -60 -421q-2 -32 -30 -47zM238 738
q105 -20 116 -76v-5q-10 -92 -31 -238q-2 -18 -28 -19l-38 2h-28l-12 -76h3q8 15 34.5 30.5t44.5 15.5q17 0 14 -17q-7 -48 -27 -154q-24 -132 -31 -141q-42 -53 -145 -59l9 7l-9 10q114 7 321 12l56 309q29 162 56 326q3 18 21 17q89 -1 215 3q8 1 12.5 -4.5t2.5 -13.5
q-25 -108 -46 -215q-3 -17 -21 -17t-49 -1h-51q-4 -24 -12 -73h5q11 18 42.5 33t54.5 15t20 -17q-46 -248 -69 -425q-3 -19 -22 -18q-66 2 -132 2q-57 0 -116 -1l-15 -75h2h6q37 56 145 56h2q16 1 46 0q31 -2 46 -2q-1 0 41.5 -2.5t73.5 -2.5q105 0 107 28q11 169 60 423
q-3 25 -47 31q-33 2 -67 5q-15 1 -15 14q0 17 21 20q35 4 71 8q47 8 62 34q29 128 53 206q0 5 -17 9q-10 2 -21 4q-42 6 -99 4q-141 -7 -261 -7q-204 0 -377 20l23 20v-5z" />
    <glyph glyph-name="agrave" unicode="&#xe0;" 
d="M620 508q-32 -2 -71 2q-86 66 -195 145q-8 6 -8 14q0 20 24 18q81 -5 129 -5q4 0 199 -142q8 -6 8 -14q0 -18 -23 -18q-33 -2 -63 0zM427 649q80 -58 143 -106q29 0 57 -1h3l-142 106q-28 0 -61 1zM567 -3q-179 1 -325 -5q-154 -7 -154 47q0 4 1 9l1 2q20 70 54 208l2 6
q17 30 53 41q32 6 63 11h3q40 7 152 7q15 0 45 1h43h71l16 91l-253 1q-90 1 -105 -39q-6 -13 -20 -13h-33q-14 0 -14 23q0 3 7 50q2 22 5 44q6 31 24 30q98 -4 259 -5q201 -1 259 -2q123 -3 123 -56v-4q-40 -182 -55 -366q11 -30 68 -39q52 -7 53 -19q1 -39 -22 -37
q-161 13 -321 14zM874 1q-102 8 -120 64q-1 4 -1 13q0 44 24 190q20 121 32 176q-3 26 -137 26q-285 -3 -457 6q-4 -26 -11 -77h4q32 53 138 51h269q18 0 15 -17l-22 -126q-3 -17 -21 -17h-88q-14 0 -44 -1h-44q-89 0 -147 -7q-23 -4 -46 -7q-30 -6 -40 -21
q-21 -103 -54 -207q-2 -13 55 -18q41 -4 68 -3q137 6 264 6q203 0 385 -15l-22 -20v4zM560 232h-86.5h-86.5q-11 -61 -31 -147q135 2 180 2q11 72 24 145zM598 250q-16 -91 -29 -180q-3 -19 -21 -18q-54 0 -217 -2q-8 -1 -12 4.5t-2 13.5q25 107 38 181q3 17 21 17
q34 0 104 1h103q18 0 15 -17z" />
    <glyph glyph-name="aacute" unicode="&#xe1;" 
d="M604 581q-125 -73 -131 -72q-42 -1 -125 1q-17 1 -17 13q0 10 14 19q233 140 244 139q24 0 65 1q49 1 66 1t17 -13q0 -11 -14 -19zM648 647q-31 -1 -61 -1q-59 -34 -176 -103h6q31 1 58 1zM567 -3q-179 1 -325 -5q-154 -7 -154 47q0 4 1 9l1 2q20 70 54 208l2 6
q17 30 53 41q32 6 63 11h3q40 7 152 7q15 0 45 1h43h71l16 91l-253 1q-90 1 -105 -39q-6 -13 -20 -13h-33q-14 0 -14 23q0 3 7 50q2 22 5 44q6 31 24 30q98 -4 259 -5q201 -1 259 -2q123 -3 123 -56v-4q-40 -182 -55 -366q11 -30 68 -39q52 -7 53 -19q1 -39 -22 -37
q-161 13 -321 14zM874 1q-102 8 -120 64q-1 4 -1 13q0 44 24 190q20 121 32 176q-3 26 -137 26q-285 -3 -457 6q-4 -26 -11 -77h4q32 53 138 51h269q18 0 15 -17l-22 -126q-3 -17 -21 -17h-88q-14 0 -44 -1h-44q-89 0 -147 -7q-23 -4 -46 -7q-30 -6 -40 -21
q-21 -103 -54 -207q-2 -13 55 -18q41 -4 68 -3q137 6 264 6q203 0 385 -15l-22 -20v4zM560 232h-86.5h-86.5q-11 -61 -31 -147q135 2 180 2q11 72 24 145zM598 250q-16 -91 -29 -180q-3 -19 -21 -18q-54 0 -217 -2q-8 -1 -12 4.5t-2 13.5q25 107 38 181q3 17 21 17
q34 0 104 1h103q18 0 15 -17z" />
    <glyph glyph-name="acircumflex" unicode="&#xe2;" 
d="M760 513q-71 0 -77.5 1.5t-78.5 34.5q-38 17 -76 33q-191 -68 -192 -67l-63 2q-31 1 -63 3q-17 1 -17 13q0 14 17 20q55 21 164 67t163 67q10 4 79 -29q39 -20 79 -40l145 -70q10 -5 10 -15q0 -17 -22 -18q-34 -2 -68 -2zM294 551l46 -1q53 19 106 39q87 31 94 28
q54 -24 163 -70q43 0 129 2l-12 -33l-282 136q-82 -34 -244 -101zM567 -3q-179 1 -325 -5q-154 -7 -154 47q0 4 1 9l1 2q20 70 54 208l2 6q17 30 53 40q32 6 63 11h3q40 7 152 7q15 0 44 1h44h71l16 92l-253 1q-90 1 -105 -39q-6 -13 -20 -13h-33q-14 0 -14 22q0 -1 8 51
q2 22 4 45q6 30 24 29q98 -4 259 -5q201 -1 259 -2q122 -3 122 -55v-3q-41 -209 -54 -368q11 -30 68 -39q52 -7 53 -19q1 -39 -22 -37q-161 13 -321 14zM874 1q-102 8 -120 64q-1 3 -1 12q0 88 55 367q-2 26 -136 26q-285 -3 -457 6q-1 -10 -11 -77h4q32 53 138 51h269
q18 0 15 -17l-23 -127q-3 -17 -20 -17h-88q-14 0 -44 -1h-44q-89 0 -147 -7q-23 -4 -46 -7q-31 -6 -40 -20q-21 -103 -54 -207q-2 -13 55 -18q41 -4 68 -3q137 6 264 6q203 0 385 -15l-22 -20v4zM560 232h-86.5h-86.5q-11 -61 -31 -147q135 2 180 2q8 48 24 145zM569 69
q-3 -18 -21 -17q-54 0 -217 -2q-8 -1 -12 4.5t-2 13.5q25 107 38 181q3 17 21 17q34 0 104 1h103q17 0 15 -17q-10 -60 -29 -181z" />
    <glyph glyph-name="atilde" unicode="&#xe3;" 
d="M866 612q-74 -89 -190 -89q-47 0 -147 21q-112 23 -170 23q-71 0 -161 -28q-7 -2 -11 -2q-10 0 -10 10q0 19 21 43q70 74 143 77q23 1 17 1q50 0 169 -21t177 -21q62 0 169 39q5 2 10 2q13 0 13 -12q0 -8 -30 -43zM238 585q64 16 126 16q59 0 167.5 -21.5t174.5 -21.5
q76 1 157 100l17 -25q-116 -42 -184 -42q-37 0 -155 19q-147 24 -189 24q-6 0 -14 -1q-58 -2 -96 -44zM567 -3q-159 1 -325 -5q-63 -3 -100 6h-2q-52 12 -52 41q0 4 1 10l1 3q20 69 54 207q5 22 39 38q27 12 55 15q114 12 179 11h159l16 93q-84 -2 -252 -1q-42 -2 -59 -6
q-38 -9 -48 -33q-5 -13 -19 -13h-17q-11 1 -17 1q-17 0 -14 17q9 54 15 112q3 19 22 18q244 -10 475 -7q73 2 100 -3q66 -11 66 -53v-4q-44 -212 -55 -366q12 -31 67 -39q52 -7 53 -19q1 -39 -21 -37q-161 12 -321 14zM874 0q-102 9 -120 65l-1 6q11 157 56 372
q-2 28 -137 27q-221 -4 -457 6q-6 -52 -11 -78h4q28 45 137 52q90 1 271 0q17 0 14 -17l-23 -127q-3 -17 -20 -17h-176q-207 0 -233 -35q-26 -120 -54 -206v-2q5 -6 30 -14q45 -8 93 -6q338 15 649 -9l-22 -20v3zM560 232h-86.5h-86.5q-18 -91 -31 -147q112 2 180 1
q11 73 24 146zM598 250q-17 -92 -29 -181q-3 -19 -21 -18q-81 1 -217 -1q-8 -1 -12 4.5t-2 13.5q16 70 38 181q4 17 21 17q34 0 104 1h103q18 0 15 -17z" />
    <glyph glyph-name="adieresis" unicode="&#xe4;" 
d="M728 535q-19 -4 -44 -4q-92 0 -96 38q-7 75 46 91q40 11 79 11q98 0 98 -52q0 -9 -3 -18q-13 -52 -80 -66zM764 587q11 10 11 22q0 15 -15 21.5t-53 6.5q-68 0 -77 -18q-5 -10 -7 -25q-2 -18 6 -20q23 -9 61 -9q50 0 74 22zM449 562q-30 -29 -87 -29q-41 0 -79 13
q-31 11 -31 55q0 34 25 54q32 25 91 20q109 -8 102 -72l-1 -2q-2 -22 -20 -39zM427 585q5 5 7 15q2 35 -74 41q-50 3 -68 -15q-7 -7 -4 -25t12 -21q33 -12 70 -12q39 0 57 17zM567 -3q-172 2 -325 -5q-154 -8 -154 46q0 5 1 10l1 3q19 69 54 208l2 5q17 30 53 40q32 6 63 11
h3q40 7 152 7q15 0 44 1h44h71l16 92l-253 1q-90 1 -105 -39q-6 -13 -20 -13h-33q-15 0 -15 24q0 18 9 49l4 44q6 31 24 30q197 -9 476 -8q69 1 99 -4q66 -12 66 -52v-4q-44 -211 -55 -365q12 -31 68 -39q52 -7 53 -19q1 -39 -22 -37q-161 12 -321 14zM874 1q-102 8 -120 64
l-1 6q11 157 55 371q-2 27 -135 27q-269 -2 -458 7q-3 -20 -5 -38l-6 -39h4q32 53 138 51h269q18 0 15 -17l-23 -127q-3 -17 -20 -17h-88q-14 0 -44 -1h-44q-89 0 -147 -7q-23 -4 -46 -7q-31 -6 -40 -20q-26 -121 -54 -207q-2 -12 52 -18q41 -4 71 -3q125 6 250 6
q200 0 399 -15l-22 -20v4zM559 232h-172q-10 -49 -31 -147q135 2 180 2q11 72 23 145zM597 249q-15 -90 -28 -179q-3 -19 -21 -18q-54 0 -217 -2q-8 -1 -12 4.5t-2 13.5q12 61 39 182q3 16 20 16h207q17 0 14 -17z" />
    <glyph glyph-name="aring" unicode="&#xe5;" 
d="M744 517q-28 -12 -70 -14q-36 -2 -72 -3h-88q-182 0 -225 22q-33 17 -33 45q0 5 1.5 22.5t1.5 28.5v4q7 40 78 53h2q41 8 102 6q110 -5 101 -5h91q81 0 106 -3q76 -12 68 -55v-2q-8 -46 -14 -58q-12 -25 -49 -41zM760 568l6 24l6 25q1 25 -145 25h-91q8 0 -98 2
q-60 2 -100 -3q-15 -2 -43 -15v-2q0 -10 -2 -26q-2 -19 -2 -25q12 -25 64 -33q10 -1 80 -5q21 0 85 -1h86q21 2 46 2q81 0 108 32zM567 -3q-172 2 -325 -5q-154 -8 -154 46q0 5 1 10l1 3q19 69 54 208l2 5q17 30 53 40q32 6 63 11h3q45 8 152 8l159 1l16 91l-253 1
q-90 1 -105 -39q-6 -13 -20 -13h-33q-15 0 -15 24q0 18 9 49l4 44q6 31 24 30q175 -8 476 -7q40 1 86 -3q37 -6 52 -13q27 -13 27 -40v-4q-42 -199 -55 -366q12 -31 68 -39q52 -7 53 -19q1 -39 -22 -37q-161 12 -321 14zM874 1q-102 8 -120 64q-1 4 -1 13q0 41 24 189
q19 117 32 176q-1 15 -54 24q-63 4 -160 4q-165 -1 -161 -1q-110 0 -219 6q-3 -20 -5 -38l-6 -39h4q32 53 138 51h269q18 0 15 -17l-23 -127q-3 -17 -20 -17h-176q-80 0 -147 -8q-23 -4 -46 -7q-31 -6 -40 -20q-26 -121 -54 -207q-2 -12 52 -18q41 -4 71 -3q125 6 250 6
q200 0 399 -15l-22 -20v4zM590 606q14 0 -117 0l-5 -36h58h58zM622 589q-4 -27 -6 -32q-6 -21 -21 -21h-150q-14 0 -14 19q0 2 5 33l4 32q5 21 21 21h153q14 1 14 -16q0 7 -6 -36zM548 159q5 37 12 73h-86h-87q-10 -49 -31 -147q135 2 180 2zM583 160q-14 -86 -16 -92
q-6 -19 -34 -19q-4 0 -37 2q-29 1 -56 1q-24 -1 -56 -2q-28 -2 -37 -2q-31 0 -31 17q0 -7 20 93q9 46 20 92q3 16 20 16q35 0 104 1h104q18 0 15 -17q-9 -45 -16 -90z" />
    <glyph glyph-name="ae" unicode="&#xe6;" horiz-adv-x="1354" 
d="M732 -7q-264 0 -491 -5q-56 -2 -99 8l-14 5q-34 11 -34 36q0 7 3 15q43 97 60 206q10 64 249 64q31 0 69 -1.5t39 -1.5h71q5 31 14 92q-88 0 -262 3q-88 2 -101 -37q-5 -15 -36 -15q-33 0 -33 16q1 55 -7 111q-2 10 4.5 16.5t16.5 5.5q241 -11 480 -11q294 0 485 5
q38 1 42 1q119 0 119 -46q0 -8 -3 -17q-48 -106 -65 -226q-3 -19 -21 -18h-397q-12 -68 -17 -117q89 0 267 -3q47 3 51 4q34 7 36 30q2 15 16 17h23h19q15 0 15 -14q-2 -59 10 -109q3 -11 -3 -18t-18 -6q-245 10 -488 10zM738 27q231 0 463 -8q-6 36 -6 76l-6 1
q-20 -50 -122 -52h-2q1 0 -284 4q-16 0 -14 16q6 64 22 153q3 17 20 17h207h190q19 115 65 217q1 2 1 4q-10 19 -132 16q-191 -5 -485 -5q-228 0 -457 9q3 -25 6 -77h5q31 53 134 50q93 0 279 -3q14 0 14 -24q0 -2 -9 -56q-2 -23 -5 -47q-7 -33 -25 -33h-89q-197 0 -235 -5
t-43 -6q-30 -7 -39 -20q-17 -107 -62 -210q3 -6 15 -10l13 -4q38 -9 90 -8q227 5 491 5zM1042 414l-180 -3q-7 -31 -13 -62l-12 -61h85q43 0 87 1q13 62 33 125zM1040 272q-3 -17 -20 -17q-52 -1 -104 -1h-103q-15 0 -15 19q0 -2 16 77q8 40 17 79q4 16 20 16q72 1 217 4
q8 1 12.5 -5t1.5 -15q-26 -79 -42 -157zM570 229h-171q-15 -80 -37 -149q60 1 179 2q15 73 29 147zM572 64q-4 -16 -20 -16q-36 -1 -108 -2t-108 -1q-9 -1 -13 5t-1 15q28 84 45 181q3 17 20 17h206q18 0 15 -17q-16 -91 -36 -182z" />
    <glyph glyph-name="ccedilla" unicode="&#xe7;" 
d="M562 -11q-158 1 -241 -1q-71 -2 -101 3q-68 11 -62 52l1 3q21 133 56 400v2q6 55 134 55q8 0 55 -2q258 -10 509 11q15 2 15 -15q0 -11 -8 -33q-5 -14 -10 -27q-16 -58 -20 -63q-9 -11 -54 -11q-18 0 -14 17q3 23 -30 29q-25 2 -51 3q-134 -5 -267 -3q-29 -198 -54 -330
q173 2 262 0q32 2 49 7q31 9 36 29q4 16 20 16h36q15 0 15 -23q0 -3 -8 -51l-4 -44q-7 -31 -25 -30q-120 5 -239 6zM568 23q111 0 222 -5q3 26 11 79h-5q-25 -51 -118 -53h-2h-280q-7 -1 -11.5 4.5t-3.5 12.5q29 146 61 365q2 19 21 18q95 3 284 3h2q48 0 68 -6
q37 -11 40 -43h3h4q7 26 23 78q-241 -19 -490 -9q-141 5 -146 -18q-7 -180 -57 -403q-1 -18 59 -23q29 -2 73 -1q84 3 242 1zM609 -161q-113 7 -341 -2q-14 -1 -15 10q0 3 3 21q6 32 35 32h11q5 0 12 -5.5t14 -5.5h15q12 0 16 -1q15 0 42 1h44h68q2 19 8 56h-55
q-9 -1 -18 -1q-15 0 -32 -6.5l-17 -6.5h-21q-18 0 -15 17q2 9 5.5 26.5t20.5 17.5q120 3 194 0q54 -1 62 -2q44 -6 42 -26l-4 -48q-5 -52 -10 -59q-12 -21 -64 -18zM403 -32q14 8 66 11h2h73q18 0 15 -17q-3 -15 -7 -45t-7 -46t-21 -16h-86q-11 0 -43 -1q-27 -1 -43 0h-32
q-20 3 -30 11l-5 1q-4 0 -7 -1l16 15l-2 -8q222 8 325 2q14 -1 27 3q1 17 3 36l4 38q-27 11 -267 7l20 17z" />
    <glyph glyph-name="egrave" unicode="&#xe8;" 
d="M685 508q-32 -2 -72 2q-95 72 -192 144q-8 6 -8 14q0 20 24 18q38 0 115 -2q19 -1 39 -15q40 -29 80 -59q47 -35 93 -69q8 -6 8 -14q0 -18 -23 -18q-32 -2 -64 -1zM692 543h5l-141 104l-64 2l50 -37q36 -28 92 -69h58zM588 -4q-139 3 -252 -2q-64 -3 -89 -1h-3
q-40 3 -54 9q-28 11 -26 41l1 4q25 81 48 200q18 100 37 200l1 3q11 55 136 55q334 0 368 1q171 5 162 -56l-1 -3q-7 -38 -22 -115q-10 -57 -18 -114q-3 -19 -21 -18q-105 4 -208 4h-192q-10 -60 -23 -118q151 1 268 -3q51 3 53 4q35 6 40 29q4 15 38 15q35 0 34 -16
q-6 -58 -5 -112q0 -9 -6.5 -15t-16.5 -5q-124 11 -249 13zM595 31q115 -2 229 -12q1 38 4 77l-7 1q-23 -48 -125 -49h-2q-96 2 -287 3q-7 -1 -11.5 4.5t-2.5 13.5q17 75 30 152q4 17 21 17l209 1q95 0 190 -4q16 106 38 212q1 17 -59 23q-34 3 -72 2q-35 -1 -369 -1
q-88 0 -96 -24q-30 -218 -85 -402q0 -9 54 -18q45 0 171 3q107 2 170 1zM667 416h-174q-12 -77 -21 -123h86.5h86.5q10 62 22 123zM705 434q-15 -79 -28 -158q-3 -17 -20 -17q-35 0 -105 -1h-104q-18 0 -14 17q12 59 27 159q3 18 21 17h209q17 0 14 -17z" />
    <glyph glyph-name="eacute" unicode="&#xe9;" 
d="M670 582l-108 -68q-5 -3 -85 -5q-32 -2 -64 1q-17 1 -17 13q0 11 14 19q237 140 246 139q-1 1 131 4q19 1 19 -13q0 -10 -14 -19q-61 -36 -122 -71zM656 611l63 37q-34 -2 -65 -2q-59 -34 -177 -103h5q30 1 58 0zM588 -4q-139 3 -252 -2q-64 -3 -89 -1h-3q-40 3 -54 9
q-28 11 -26 41l1 4q25 81 48 200q18 100 37 200l1 3q11 55 136 55q334 0 368 1q171 5 162 -56l-1 -3q-7 -38 -22 -115q-10 -57 -18 -114q-3 -19 -21 -18q-105 4 -208 4h-192q-10 -60 -23 -118q151 1 268 -3q51 3 53 4q35 6 40 29q4 15 38 15q35 0 34 -16q-6 -58 -5 -112
q0 -9 -6.5 -15t-16.5 -5q-124 11 -249 13zM595 31q115 -2 229 -12q1 38 4 77l-7 1q-23 -48 -125 -49h-2q-96 2 -287 3q-7 -1 -11.5 4.5t-2.5 13.5q17 75 30 152q4 17 21 17l209 1q95 0 190 -4q16 106 38 212q1 17 -59 23q-34 3 -72 2q-35 -1 -369 -1q-88 0 -96 -24
q-30 -218 -85 -402q0 -9 54 -18q45 0 171 3q107 2 170 1zM667 416h-174q-12 -77 -21 -123h86.5h86.5q10 62 22 123zM705 434q-15 -79 -28 -158q-3 -17 -20 -17q-35 0 -105 -1h-104q-18 0 -14 17q12 59 27 159q3 18 21 17h209q17 0 14 -17z" />
    <glyph glyph-name="ecircumflex" unicode="&#xea;" 
d="M758 514l-6 1q-54 22 -162 67q-61 -23 -184 -66l-6 -1q-33 0 -65 2l-62 4q-17 1 -17 14t17 19q69 27 328 133q8 3 14 0l288 -135q11 -5 11 -14q0 -18 -23 -19q-83 -5 -133 -5zM355 551q24 -1 48 -1q52 19 105 39q87 31 94 28q55 -23 165 -68q46 0 129 4l-12 -33
q-72 33 -282 132l-157 -64q-48 -20 -90 -37zM588 -4q-55 1 -149 -2q-108 -2 -148 -2q-59 0 -80 4q-50 11 -47 47l1 4q24 81 47 200l38 200l1 3q11 55 136 55q35 0 103.5 -1t103.5 -1q24 0 90 3q60 3 94 2q51 -1 88 -9q56 -12 51 -49l-1 -3q-7 -38 -22 -115q-10 -58 -18 -115
q-3 -19 -22 -18q-104 4 -207 4h-192q-10 -59 -23 -117q151 1 268 -3q27 1 53 3q35 6 40 30q3 15 38 15t35 -24q0 -6 -2.5 -22t-2.5 -27v-45q-3 -32 -24 -30q-124 11 -249 13zM595 31q115 -2 229 -12q1 45 4 77l-6 1q-23 -48 -126 -49h-2q-96 2 -287 3q-7 -1 -11.5 4.5
t-2.5 13.5q17 75 30 151q3 17 21 17q106 2 210 1q94 0 189 -4q16 107 38 213q1 17 -59 22q-32 3 -73 2q-69 -2 -161 -2q-35 0 -104 1t-103 1q-88 0 -96 -24q-28 -207 -85 -402q-1 -19 97 -19q40 0 148 4q94 2 150 1zM667 416q15 0 -173 0q-7 -41 -22 -123h173q7 41 22 123z
M677 276q-3 -17 -20 -17q-35 -1 -104 -1h-104q-8 -1 -12 4.5t-3 12.5q5 27 14 80t14 79q4 17 21 17h208q8 1 12.5 -4.5t2.5 -13.5q-5 -19 -29 -157z" />
    <glyph glyph-name="edieresis" unicode="&#xeb;" 
d="M834 553q-34 -20 -85 -20q-48 0 -66 6q-29 11 -29 45q0 7 1 14q5 37 29 53q17 12 57 18q27 5 52 5q85 0 85 -50q0 -9 -3 -20q-10 -33 -41 -51zM841 624q-10 15 -52 15q-45 0 -82 -12q-18 -5 -18 -37q0 -13 6 -15q20 -8 60 -8q52 0 74 21t12 36zM516 560q-31 -28 -96 -28
q-24 0 -41 5q-38 11 -46 19q-13 13 -13 49q1 42 42 59q31 14 73 10q111 -8 101 -74q-3 -24 -20 -40zM498 617q-19 25 -98 23q-43 -1 -44 -29q-1 -25 8 -31q1 -1 30 -10q19 -5 51 -2q35 3 50.5 17t2.5 32zM588 -4q-139 3 -252 -2q-64 -3 -89 -1h-3q-40 3 -54 9q-28 11 -26 41
l1 4q56 183 86 401q9 42 80 54q32 5 103 3q104 -2 160 -2q232 0 248 -1l24 -4q59 -10 50 -52q-25 -124 -40 -229q-3 -19 -21 -18q-200 5 -400 4q-8 -39 -23 -117q135 2 268 -3q27 1 53 3q35 6 40 30q3 15 25 16q-28 -2 32 -2q16 0 15 -15q-6 -58 -5 -112q0 -9 -6.5 -15
t-16.5 -5q-124 11 -249 13zM595 31q115 -2 229 -12q1 38 4 77h-7q-22 -47 -125 -48h-2q-96 2 -287 3q-7 -1 -11.5 4.5t-2.5 13.5q10 50 30 151q4 17 21 17q200 2 399 -3q15 97 38 214q3 11 -50 20q-12 1 -243 1q-13 0 -67 1.5t-87 1.5q-97 0 -138 -13q-9 -3 -11 -11
q-30 -219 -85 -403q0 -9 54 -18q45 0 171 3q107 2 170 1zM666 415h-173q-10 -61 -22 -123h173q7 42 22 123zM676 275q-4 -17 -21 -17h-208q-17 0 -14 17q15 79 28 158q3 18 21 17h208q18 0 15 -17q-6 -27 -15 -79.5t-14 -78.5z" />
    <glyph glyph-name="igrave" unicode="&#xec;" horiz-adv-x="654" 
d="M519 509q-32 -2 -71 1q-119 91 -190 148q-8 6 -8 14q0 19 25 17q66 -3 137 -10q31 -23 92.5 -68.5t92.5 -67.5q8 -6 8 -14q0 -16 -21 -18q-33 -4 -65 -2zM526 543h6l-140 104q-31 1 -64 3q52 -40 141 -107q27 1 57 0zM90 -17q-13 -2 -15 6q-2 4 1 19q4 25 61 35
q63 11 83 43q33 167 61 333q-8 28 -61 35q-48 6 -46 22q1 6 2 17q4 19 22 17q82 -7 163 -7q82 0 165 2q7 1 11.5 -4.5t3.5 -12.5q-44 -234 -66 -402q9 -31 68 -43q52 -10 48 -35q-5 -28 -23 -25q-117 14 -237 14q-119 0 -241 -14zM555 2q-104 20 -115 74v5q21 163 62 389
q-74 -1 -147 -1q-83 0 -166 7l22 17v-1l19 -3q32 -3 58 -19q34 -20 29 -47q-29 -170 -63 -341l-2 -6q-31 -54 -143 -74l-13 -2l6 4l-10 13q124 15 246 15q121 0 240 -15l-23 -20v5z" />
    <glyph glyph-name="iacute" unicode="&#xed;" horiz-adv-x="654" 
d="M506 583q-125 -76 -133 -75q-41 0 -124 3q-17 1 -17 13q0 11 14 19l117 67q118 68 128 71l130 8q19 2 19 -12q0 -11 -13 -19q-61 -38 -121 -75zM492 612l61 38q-32 -2 -63 -3q-62 -37 -113 -66l-64 -37h5q30 0 58 -1q58 34 116 69zM90 -17q-13 -2 -15 6q-2 4 1 19
q4 25 61 35q63 11 83 43q33 167 61 333q-8 28 -61 35q-48 6 -46 22q1 6 2 17q4 19 22 17q82 -7 163 -7q82 0 165 2q7 1 11.5 -4.5t3.5 -12.5q-44 -234 -66 -402q9 -31 68 -43q52 -10 48 -35q-5 -28 -23 -25q-117 14 -237 14q-119 0 -241 -14zM555 2q-104 20 -115 74v5
q21 163 62 389q-74 -1 -147 -1q-83 0 -166 7l22 17v-1l19 -3q32 -3 58 -19q34 -20 29 -47q-29 -170 -63 -341l-2 -6q-31 -54 -143 -74l-13 -2l6 4l-10 13q124 15 246 15q121 0 240 -15l-23 -20v5z" />
    <glyph glyph-name="icircumflex" unicode="&#xee;" horiz-adv-x="654" 
d="M591 514q-6 -1 -78 30l-86 38q-193 -69 -194 -68q-32 1 -64 3l-62 4q-17 1 -17 14t17 19q110 45 331 133q10 4 78 -28q39 -20 78 -39q70 -34 142 -67q11 -5 11 -14q0 -18 -23 -19zM189 551q24 -2 48 -2q53 19 107 39q88 32 95 29q53 -23 161 -68l52 2q-71 33 -213 101
q-83 -34 -250 -101zM330 -3q-119 0 -241 -7q-15 -1 -15 9q0 4 2 11t1 11q0 17 25 22q16 1 32 3q67 8 87 41q31 145 61 331q-8 28 -63 33q-50 5 -47 21q1 6 2 11q70 20 176 21h176q7 1 11.5 -4.5t2.5 -12.5q-48 -258 -65 -401q8 -30 68 -38q54 -8 49 -34q-5 -27 -22 -25
q-119 8 -240 8zM556 8q-52 8 -71 17q-38 16 -45 51v5q16 141 62 388q-157 -3 -313 3l21 21v-5l17 -1q33 -3 60 -18q36 -19 31 -47q-31 -191 -63 -340l-2 -5q-30 -55 -121 -66l-38 -4l19 20v-1q113 5 224 5q121 0 241 -8l-22 -20v5z" />
    <glyph glyph-name="idieresis" unicode="&#xef;" horiz-adv-x="654" 
d="M575 534q-34 0 -59.5 8t-25.5 41q0 25 14 48.5t35 30.5q52 15 106 15q69 0 69 -48q0 -9 -3 -19q-22 -76 -136 -76zM666 595q21 20 11 35q-8 13 -38 13q-92 0 -103 -21.5t-11 -35.5q0 -9 6 -10q21 -7 50 -7q57 0 85 26zM351 561q-32 -28 -83 -28q-42 0 -83 17
q-30 12 -30 52q0 30 21 50q24 24 67 24q141 0 129 -76q-3 -23 -21 -39zM330 585q16 15 4 33q-17 24 -97 24q-46 0 -46 -32q0 -8 3 -18q5 -19 65 -24q49 -3 71 17zM332 -3q-120 0 -242 -11q-8 -1 -12.5 4t-3.5 13q5 26 20 33q4 2 41 7q65 10 86 43q34 166 61 332
q-8 29 -63 35q-49 5 -46 21l1 8q5 28 23 26q152 -9 330 -5q8 1 12.5 -4.5t2.5 -12.5q-25 -133 -66 -401q8 -31 68 -41q53 -9 48 -34q-5 -27 -22 -25q-119 11 -238 12zM557 4q-51 9 -72 18q-37 18 -44 53v5q15 128 63 388q-169 -3 -316 6l22 20v-4q47 -5 67 -14
q33 -14 41 -47v-7q-28 -170 -63 -341l-2 -5q-20 -36 -65 -53q-24 -9 -80 -18l-11 -2l7 6l-11 11q113 11 232 11q124 0 254 -12l-22 -20v5z" />
    <glyph glyph-name="eth" unicode="&#xf0;" horiz-adv-x="2250" 
 />
    <glyph glyph-name="ntilde" unicode="&#xf1;" 
d="M721 524q-72 0 -175.5 20.5t-156.5 20.5q-79 0 -170 -30q-5 -1 -9 -1q-13 0 -13 12q0 5 4 12q24 45 69 75t94 33h4q9 1 29 1q71 -4 263 -36q37 -6 67 -6q59 0 167 39q5 2 10 2q13 0 13 -11q0 -8 -6 -16q-87 -115 -190 -115zM884 657l17 -25q-114 -42 -182 -42
q-36 0 -155 20q-166 27 -186 22q-9 -2 -19 -1q-53 -4 -96 -45l-4 -4q67 18 132 18q57 0 164 -21t172 -21q83 0 157 99zM612 -4q-16 0 -14 16q13 136 62 402q-192 0 -172 0q-33 -200 -77 -402q-4 -16 -21 -16q-195 -3 -359 -13q-15 -1 -15 14q0 12 8 24t17 13q47 5 69 12
q42 11 58 37q45 158 70 331q-7 32 -66 40q-14 2 -28 3q-21 5 -19 19q1 6 2 17q4 18 22 17q272 -12 600 -7q176 4 166 -56v-3q-16 -90 -31 -181q-18 -107 -22 -180q9 -32 67 -42q54 -9 55 -21q1 -39 -21 -37q-199 11 -351 13zM949 2q-56 8 -75 16q-39 16 -48 53v5
q10 177 54 368q0 17 -62 23q-30 2 -74 2q-329 -6 -603 7l21 17v-1l20 -3q82 -11 91 -66v-5q-25 -178 -71 -342l-2 -5q-34 -56 -149 -70h-4l-8 -1l6 3l-10 14q158 11 345 13q43 201 76 402q3 18 21 17q-1 0 207 0q18 0 15 -17q-26 -137 -36 -200q-19 -112 -28 -202
q146 -2 336 -13l-22 -20v5z" />
    <glyph glyph-name="ograve" unicode="&#xf2;" 
d="M684 508q-32 -2 -71 2q-124 94 -192 143q-8 6 -8 14q0 19 23 18l131 -4q6 0 195 -140q8 -6 8 -14q0 -18 -23 -18q-32 -2 -63 -1zM691 543h5q-46 35 -140 104q-28 0 -63 1l141 -105h57zM834 11q-34 -27 -171 -21q-167 6 -337 0q-62 -3 -65 -3q-112 0 -112 44q0 5 1 10v2
q19 78 86 404l1 3q11 55 140 55h368q172 6 163 -56l-1 -3q-20 -134 -55 -403v-2q-2 -18 -18 -30zM816 37q0 2 1 3q6 167 55 406q1 17 -59 23q-35 3 -74 2h-368q-92 0 -100 -24q-30 -221 -86 -407q-1 -1 0 -3q16 -18 146 -13q171 8 340 0q122 -5 145 13zM655 415
q-195 0 -175 0q-21 -133 -63 -333h183q16 125 55 333zM633 65q-2 -19 -21 -18h-219q-7 -1 -11.5 4.5t-2.5 13.5q46 221 69 368q3 18 21 17h209q18 0 15 -17q-43 -230 -60 -368z" />
    <glyph glyph-name="oacute" unicode="&#xf3;" 
d="M670 582q-122 -75 -132 -74q-42 -1 -126 1q-17 0 -17 13q0 10 14 19q238 140 246 140q22 0 66 2t66 2q18 0 18 -13q0 -11 -15 -19q-61 -35 -120 -71zM655 611q20 13 61 38q-31 -2 -62 -2q-59 -34 -113 -66l-65 -38h5h59q58 33 115 68zM834 11q-34 -27 -171 -21
q-167 6 -337 0q-62 -3 -65 -3q-112 0 -112 44q0 5 1 10v2q19 78 86 404l1 3q11 55 140 55h368q172 6 163 -56l-1 -3q-20 -134 -55 -403v-2q-2 -18 -18 -30zM816 37q0 2 1 3q6 167 55 406q1 17 -59 23q-35 3 -74 2h-368q-92 0 -100 -24q-30 -221 -86 -407q-1 -1 0 -3
q16 -18 146 -13q171 8 340 0q122 -5 145 13zM655 415q-195 0 -175 0q-21 -133 -63 -333h183q16 125 55 333zM633 65q-2 -19 -21 -18h-219q-7 -1 -11.5 4.5t-2.5 13.5q46 221 69 368q3 18 21 17h209q18 0 15 -17q-43 -230 -60 -368z" />
    <glyph glyph-name="ocircumflex" unicode="&#xf4;" 
d="M823 516q-67 -3 -83 2q-36 16 -73.5 32t-76.5 32q-193 -68 -191 -68q-43 1 -128 5q-16 1 -16 13q0 13 16 20l330 135q10 4 78 -29q40 -20 80 -39q71 -34 143 -67q11 -5 11 -14q0 -18 -23 -19q-33 -2 -67 -3zM353 550l50 -1q52 19 105 39q86 32 94 29q54 -23 164 -68
q43 1 129 4l-12 -33q-161 73 -281 132zM834 11q-34 -27 -171 -21q-167 6 -337 0q-62 -3 -65 -3q-112 0 -112 44q0 5 1 10v2q45 189 48 202q26 115 38 201l1 4q18 53 140 53q367 0 366 0q174 6 164 -55v-3q-20 -134 -55 -402v-2q-2 -18 -18 -30zM816 37q0 2 1 3q6 180 55 405
q1 17 -60 22q-32 3 -74 2h-367q-91 0 -100 -23q-30 -220 -86 -406q-1 -1 0 -3q16 -18 146 -13q171 8 340 0q122 -5 145 13zM654 414q-194 0 -174 0q-21 -132 -63 -332h183q16 125 54 332zM633 65q-2 -19 -21 -18h-219q-7 -1 -11.5 4.5t-2.5 13.5q46 221 69 367q2 18 21 17
q-1 0 209 0q18 0 15 -17q-43 -229 -60 -367z" />
    <glyph glyph-name="otilde" unicode="&#xf5;" 
d="M906 590q-72 -65 -167 -65q-37 0 -143 19q-128 23 -171 23q-65 0 -162 -28q-7 -2 -12 -2q-9 0 -9 8q0 26 44 68q58 54 140 54q49 0 164.5 -19.5t172.5 -19.5q77 0 176 45q6 3 12 3q13 0 13 -12q0 -7 -6 -15q-25 -34 -52 -59zM302 584q70 17 129 17q51 0 177 -23
q106 -19 136 -19q81 0 140 55l3 2q-62 -22 -135 -22q-56 0 -166 19.5t-166 19.5q-7 0 -14 -1q-56 -2 -104 -48zM833 11q-35 -28 -170 -21q-148 7 -337 0q-69 -3 -65 -3q-111 0 -111 44q0 5 1 10v2q40 165 48 202q25 114 36 202l1 4q14 40 85 51q31 5 103 3q104 -2 160 -2
q11 0 63.5 2t86.5 2q111 0 147 -16q32 -13 28 -42l-1 -3l-34 -202q-20 -118 -22 -200l-1 -5q-4 -17 -18 -28zM814 37q1 0 3 4q5 177 56 405q1 17 -60 23q-35 3 -74 2q-69 -2 -161 -2q1 0 -87 2q-71 2 -117 0q-64 -3 -91 -13q-9 -3 -13 -11q-28 -221 -84 -407q-1 -1 0 -3
q15 -17 145 -13q190 8 340 0q120 -5 143 13zM654 414l-87 1h-86q-33 -199 -62 -333q61 2 181 0q16 125 54 332zM633 65q-2 -19 -21 -18q-145 2 -217 0q-8 -1 -12.5 4.5t-2.5 13.5q32 147 69 368q3 18 21 17q52 -1 103 -1h105q18 0 15 -17q-43 -229 -60 -367z" />
    <glyph glyph-name="odieresis" unicode="&#xf6;" 
d="M851 566q-37 -34 -105 -34q-51 0 -72 11q-27 13 -20 56l1 2q8 48 46 60q46 13 94 13q83 0 83 -48q0 -35 -27 -60zM829 590q6 5 10.5 17t1.5 17q-11 15 -51 15q-43 0 -84 -12q-10 -3 -17 -27q-2 -23 5 -25q27 -7 58 -7q53 0 77 22zM515 561q-31 -29 -88 -29q-41 0 -80 14
q-30 13 -30 51q0 29 23 52.5t65 24.5q56 2 87 -9q49 -17 42 -65q-3 -24 -19 -39zM493 585q5 5 7 16q1 11 -3 16q-18 25 -97 22q-45 -1 -46 -30q-1 -24 11 -31q33 -11 69 -11q40 0 59 18zM833 11q-34 -27 -170 -21q-165 7 -337 0q-62 -3 -65 -3q-112 0 -112 44q0 5 1 10v2
q20 81 86 403l1 3q8 41 83 52q29 4 104 2q200 -3 319 0q175 5 165 -55v-3q-17 -101 -34 -201q-19 -118 -22 -201l-1 -4q-4 -17 -18 -28zM814 37q1 0 3 4q7 186 56 404q1 18 -61 22q-30 3 -74 2q-122 1 -367 -1q-32 -1 -51 -3q-44 -5 -49 -19q-30 -220 -86 -406q-1 -1 0 -3
q16 -18 146 -13q173 8 340 0q121 -5 143 13zM654 414q-194 0 -174 0q-21 -132 -63 -332h183q16 124 54 332zM633 65q-2 -19 -21 -18h-219q-7 -1 -11.5 4.5t-2.5 13.5q46 221 69 367q2 18 21 17q-1 0 209 0q18 0 15 -17q-43 -230 -60 -367z" />
    <glyph glyph-name="divide" unicode="&#xf7;" horiz-adv-x="940" 
d="M580 433q-82 0 -100 2q-65 10 -65 52q0 6 2 13q2 38 36 54q17 8 65 13q66 8 122 -2q62 -5 62 -49q0 -39 -34 -61t-88 -22zM652 482q14 10 14 26q0 20 -37 23q-29 5 -90 3q-71 -2 -81 -16q-6 -7 -6 -15v-3q-7 -26 55 -32q10 -1 79 -1q43 0 66 15zM211 317q-18 0 -15 17
l10 57q4 18 21 17q158 -2 315 -2t315 2q7 1 11.5 -4.5t2.5 -12.5l-10 -57q-3 -18 -20 -17h-630zM234 352h595l4 21q-149 -1 -297 -1q-149 0 -298 1zM628 180q-30 -26 -133 -26q-41 0 -96 9q-35 6 -35 43q0 9 3 18q10 51 80 63q20 3 107 3q97 0 96 -65q-1 -26 -22 -45z
M607 205q8 6 8 18q-1 12 -7 18q-17 15 -60 15q-122 0 -138 -18q-7 -8 -8 -16l-1 -4q-8 -18 10 -21q52 -9 90 -9q88 0 106 17z" />
    <glyph glyph-name="oslash" unicode="&#xf8;" 
d="M833 12q-34 -29 -170 -25q-71 2 -169 2q-12 0 -135 -3q-81 -2 -133 2q-76 4 -76 42q0 5 2 11v3q50 200 71 401v3q6 56 136 56q-8 0 57 -2q73 -2 168 -2q9 0 70.5 2t101.5 2q110 0 141 -13q26 -11 26 -34q0 -6 -2 -13q-35 -104 -52 -200q-1 -5 -19 -200v-3q-2 -17 -17 -29
zM814 37v3q2 194 73 410v3q-15 20 -138 16q-82 -3 -171 -3q-3 0 -98 2q-80 2 -127 0q-67 -2 -85 -10q-8 -4 -9 -9q-7 -205 -72 -409q-2 -15 63 -19q32 -1 80 0q56 2 170 2q-7 0 99 -2q82 -2 131 0q69 4 84 16zM658 411q-91 -1 -181 0q-26 -185 -59 -333h179q22 166 61 333z
M630 61q-2 -19 -21 -18h-215q-8 -1 -12 4.5t-3 13.5q38 163 65 367q3 19 21 18q108 -1 217 0q8 1 12.5 -4.5t2.5 -13.5q-44 -184 -67 -367z" />
    <glyph glyph-name="ugrave" unicode="&#xf9;" 
d="M683 508q-32 -2 -71 2q-113 86 -191 142q-9 6 -9 14q0 18 24 18q132 0 140 -5q44 -32 93 -69l93 -69q8 -6 8 -14q0 -17 -22 -18q-33 -3 -65 -1zM691 542h5l-51 39q-48 35 -89 65q-31 0 -62 2h-2q56 -42 141 -105q27 0 58 -1zM646 -4h-182q-148 -1 -183 -1q-127 0 -127 47
q0 5 2 10v2l44 180q25 105 36 181q-6 29 -61 38q-51 8 -49 23q1 6 2 17q4 18 22 17q145 -7 332 -7q17 0 14 -17q-31 -200 -74 -401q90 1 181 0q22 172 67 401q4 17 21 17q138 0 337 7q8 1 12.5 -4.5t2.5 -12.5q-1 -6 -4 -17q-2 -15 -57 -22q-60 -8 -76 -39
q-41 -204 -47 -332q11 -31 70 -42q55 -10 55 -21q1 -39 -21 -37q-159 11 -317 13zM949 1q-107 14 -125 69l-1 6q6 132 48 342l2 5q28 57 113 66l37 4l-8 -7l8 -10q-192 -7 -321 -7q-44 -228 -67 -401q-2 -19 -21 -18q-108 1 -216 0q-7 -1 -11.5 4.5t-3.5 13.5q44 201 75 401
q-156 0 -293 5l-23 2l21 17v-1l20 -3q80 -11 88 -65v-5q-26 -185 -80 -368q-3 -22 96 -22q510 0 684 -12l-22 -20v4z" />
    <glyph glyph-name="uacute" unicode="&#xfa;" 
d="M669 582l-106 -68q-8 -4 -87 -6q-32 -2 -64 0q-17 0 -17 13q0 10 14 19q240 142 247 141q24 0 65 2q48 1 66 1q17 0 17 -13q0 -11 -14 -19q-61 -35 -121 -70zM718 648q-33 -2 -64 -2l-177 -104h4q30 1 59 1zM646 -4h-182q-148 -1 -183 -1q-127 0 -127 47q0 5 2 10v2
l44 180q25 105 36 181q-6 29 -61 38q-51 8 -49 23q1 6 2 17q4 18 22 17q145 -7 332 -7q17 0 14 -17q-31 -200 -74 -401q90 1 181 0q22 172 67 401q4 17 21 17q138 0 337 7q8 1 12.5 -4.5t2.5 -12.5q-1 -6 -4 -17q-2 -15 -57 -22q-60 -8 -76 -39q-41 -204 -47 -332
q11 -31 70 -42q55 -10 55 -21q1 -39 -21 -37q-159 11 -317 13zM949 1q-107 14 -125 69l-1 6q6 132 48 342l2 5q28 57 113 66l37 4l-8 -7l8 -10q-192 -7 -321 -7q-44 -228 -67 -401q-2 -19 -21 -18q-108 1 -216 0q-7 -1 -11.5 4.5t-3.5 13.5q44 201 75 401q-156 0 -293 5
l-23 2l21 17v-1l20 -3q80 -11 88 -65v-5q-26 -185 -80 -368q-3 -22 96 -22q510 0 684 -12l-22 -20v4z" />
    <glyph glyph-name="ucircumflex" unicode="&#xfb;" 
d="M755 513q-6 0 -78 31q-44 19 -87 38q-51 -19 -101 -38q-84 -32 -90 -31q-43 0 -129 3q-17 1 -17 13q0 13 17 20q55 22 165.5 69t165.5 69q10 4 79 -29q39 -20 78 -41l144 -69q10 -5 10 -15q0 -18 -23 -18t-67 -1t-67 -1zM355 548h48q52 20 105 40q86 33 94 29
q54 -23 163 -69q20 0 65 1h65l-13 -33l-280 136q-82 -35 -247 -104zM646 -4h-182q-148 -1 -183 -1q-127 0 -127 47q0 5 2 10v2l44 180q24 105 36 181q-6 30 -62 38q-50 7 -46 31q5 27 22 26q145 -7 332 -7q17 0 14 -17q-31 -200 -74 -401q90 1 181 0q22 172 67 401
q4 17 21 17q84 0 168 2q26 1 76 5q45 3 63 3q46 0 46 -17q0 5 -3 -13q-5 -25 -59 -31q-60 -6 -77 -37q-40 -198 -46 -332q11 -31 70 -42q55 -10 55 -21q1 -39 -21 -37q-159 11 -317 13zM949 1q-107 14 -125 69l-1 6q7 138 47 342l2 6q29 55 113 64l37 4l-7 -5l8 -12l-169 -4
q-79 -2 -152 -2q-44 -228 -67 -401q-2 -19 -21 -18q-108 1 -216 0q-7 -1 -11.5 4.5t-3.5 13.5q44 201 75 401q-156 0 -293 5l-23 2l22 20v-4l20 -3q79 -11 87 -65v-6q-30 -198 -80 -367q-3 -22 96 -22q510 0 684 -12l-22 -20v4z" />
    <glyph glyph-name="udieresis" unicode="&#xfc;" 
d="M849 563q-39 -33 -102 -32q-36 -2 -69 9l-2 1q-30 10 -22 58q8 45 47 61q22 9 77 12h2q97 6 97 -51q0 -35 -28 -58zM829 588q20 17 10 32q-10 17 -65 17q-20 -2 -41 -4q-30 -5 -36 -14.5t-8 -19.5q-4 -21 5 -25q36 -9 59 -8q49 -1 76 22zM515 560q-33 -29 -92 -29
q-41 0 -76 12q-29 11 -29 50q0 34 27 57q32 27 90 22q102 -7 102 -60q0 -32 -22 -52zM494 584q5 5 7 15q6 32 -75 39q-70 5 -72 -33q-1 -21 8 -28q4 -2 31 -8q43 -11 82 4q11 4 19 11zM326 -5h-45q-130 0 -126 55l1 4q53 179 80 361q-6 30 -63 38q-50 7 -46 31q5 27 22 26
q145 -7 332 -7q17 0 14 -17q-31 -200 -73 -401q90 1 181 0q22 171 67 400q3 17 21 17q139 0 338 7q13 1 14 -7q1 -4 -1 -19q-5 -25 -59 -31q-60 -6 -77 -37q-41 -205 -47 -332q11 -33 68 -42.5t57 -20.5q1 -39 -21 -37q-310 19 -637 12zM949 1l-26 3q-83 10 -99 67l-1 5
q6 132 48 342l2 6q29 55 113 64l37 4l-7 -5l8 -12q-192 -7 -322 -7q-44 -229 -67 -400q-2 -19 -21 -18q-108 1 -216 0q-7 -1 -11.5 4.5t-3.5 13.5q43 201 74 401q-156 0 -292 5l-24 2l22 20v-4l20 -3q80 -11 88 -65v-5q-26 -185 -80 -367q-1 -23 96 -23q494 0 684 -12
l-22 -20v4z" />
    <glyph glyph-name="yacute" unicode="&#xfd;" 
d="M668 575q-52 -33 -105 -66q-10 -5 -89 -7q-32 -2 -64 0q-17 0 -17 13q0 10 13 18q234 142 248 142q22 0 66 1.5t66 1.5q17 0 17 -13q0 -10 -13 -19q-61 -36 -122 -71zM719 642h-4q-33 -1 -62 -1l-179 -105h6q31 1 59 1zM105 -222q-1 1 28 117q5 18 40 18q34 0 32 -17
q-2 -20 40 -28q29 -3 58 -5q166 4 264 2q6 43 20 128q-99 -2 -295 -2q-131 3 -123 57v3q24 120 64 360q-6 29 -62 40q-51 10 -49 24q1 6 2 17q4 19 22 17q135 -9 334 -12q17 0 14 -17q-35 -225 -69 -399h172q32 199 73 399q4 17 21 17q189 3 342 11q12 1 14 -7q1 -4 -2 -19
q-4 -24 -59 -31q-61 -8 -78 -39q-45 -215 -89 -583v-2q-4 -37 -58 -48q-17 -4 -81 -6q-101 1 -303 1q-127 -1 -256 -9q-15 -1 -16 13zM1020 486l9 -12q-147 -9 -327 -11q-41 -200 -72 -400q-3 -18 -21 -17h-208q-18 0 -14 17q34 175 69 400q-189 2 -319 12l22 17v-2
q101 -14 110 -70v-5q-26 -182 -65 -364q0 -18 61 -23q32 -2 75 -2q134 3 270 1q17 0 14 -17q-9 -54 -24 -162q-3 -19 -22 -18q-94 -4 -282 -2h-3q-54 3 -72 7q-43 11 -50 42h-7q-10 -39 -23 -82q2 -4 1 -8l-1 -2q0 3 -10.5 8.5t-5.5 5.5l13 1q236 15 501 7q122 -3 144 16
q0 1 1 3q14 228 90 590l2 5q28 55 114 66l37 4z" />
    <glyph glyph-name="thorn" unicode="&#xfe;" horiz-adv-x="996" 
d="M887 16q-35 -29 -145 -29q-20 0 -48 1q-32 1 -37 1h-92q-55 1 -90 10q-6 -36 -20 -110q6 -31 63 -37q54 -5 51 -21q-1 -5 -2 -16q-3 -18 -21 -17q-286 2 -478 -15q-16 -2 -16 14q0 11 7.5 23.5t16.5 13.5q31 5 63 10q39 9 56 31q78 295 103 579q-7 32 -63.5 43t-57.5 23
q0 40 23 37q131 -13 352 -16q17 0 14 -17q-6 -38 -13 -77l-9 -53q50 11 127 13h127q30 2 43 2q131 0 122 -56l-1 -3q-21 -131 -57 -304l-1 -2q-3 -16 -17 -28zM213 538l25 -4q85 -15 95 -70v-4q-13 -148 -39 -296q-49 -275 -69 -302q-22 -32 -63 -45q-18 -6 -74 -15l-5 -1
l-7 -1l5 4l-10 13q194 18 482 15l-13 -10l7 -8q-55 3 -80 12q-42 15 -48 55v5q5 23 13 69t13 69.5t26 14.5q33 -12 123 -15l134 -2q133 -4 142 25q26 174 57 304q1 19 -91 22q3 0 -108 -2q-50 -1 -101 -1q-60 -3 -102 -16q-10 -3 -16 2t-4 15l13 76q6 30 10 60
q-210 2 -338 16l23 20v-5zM706 316q-69 -5 -176 -9q-19 -109 -39 -218q42 -2 87 -5l85 -4q16 103 43 236zM695 62q-3 -20 -39 -20q-14 0 -42 3q-33 4 -44 5q-52 3 -103 5q-17 0 -14 17q23 126 45 252q2 17 20 17q129 5 211 11q8 1 12.5 -4.5t2.5 -13.5q-31 -153 -49 -272z
" />
    <glyph glyph-name="ydieresis" unicode="&#xff;" 
d="M749 528q-97 0 -97 50q0 8 3 18q9 45 46 61q20 8 77 11q100 7 100 -51q0 -8 -3 -17q-19 -72 -126 -72zM842 608q0 14 -16 21q-46 17 -120 -6q-18 -5 -18 -38q0 -12 6 -14q23 -9 61 -9q23 0 42 6q45 12 45 40zM513 556q-33 -28 -91 -28q-41 0 -77 12q-29 11 -29 50
q0 29 20 51q24 25 67 27q55 4 90 -8q49 -18 42 -65q-3 -24 -22 -39zM493 580q17 15 4 32q-19 27 -98 22q-47 -3 -47 -37q0 -7 2 -15q4 -17 66 -20q49 -2 73 18zM105 -222q-3 6 11 56q8 30 17 61q4 15 24 17h32q8 1 12.5 -4t3.5 -13q-3 -18 40 -26l58 -6q166 4 264 2
q6 43 20 128q-99 -2 -295 -2q-131 3 -123 57v3q24 120 63 361q-6 30 -62 40q-51 10 -49 24q1 6 2 17q4 19 22 17q135 -9 335 -12q17 0 14 -17q-35 -225 -69 -400q192 0 173 0l33 191q18 104 39 209q4 17 21 17q191 3 343 11q13 1 14 -7q1 -4 -1 -19q-5 -25 -61 -32
q-61 -7 -79 -38q-45 -216 -89 -584v-2q-4 -37 -58 -48q-16 -4 -80 -6q-101 1 -303 1q-127 -1 -256 -9q-15 -1 -16 13zM1021 487l9 -12q-146 -9 -328 -11q-20 -97 -36 -192l-36 -209q-4 -18 -21 -17h-208q-18 0 -14 17q34 176 70 401q-191 2 -320 12l21 17v-2
q101 -14 110 -70v-5q-18 -149 -64 -365q0 -18 62 -23q30 -2 74 -2q134 3 270 1q17 0 14 -17q-9 -54 -24 -162q-3 -19 -22 -18q-94 -4 -282 -2h-3q-52 2 -72 8q-44 11 -51 41h-6q-8 -27 -23 -82q2 -4 1 -8l-1 -2q0 3 -10.5 8.5t-5.5 5.5l13 1q236 15 501 7q121 -3 143 16
q0 1 1 3q14 228 90 591l2 5q28 55 115 66l38 4z" />
    <glyph glyph-name="dotlessi" unicode="&#x131;" horiz-adv-x="654" 
 />
    <glyph glyph-name="OE" unicode="&#x152;" horiz-adv-x="1423" 
d="M1381 608q-32 2 -32 11q0 1 1 4v4q0 7 -7 13q-20 20 -82 18q-152 -5 -296 -7q-6 -28 -41 -212q28 0 78 1q55 1 79 1q90 0 110 44q5 12 55 12q18 0 14 -18q-21 -95 -31 -169q-3 -25 -60 -18q-3 0 -17.5 24t-55.5 29q-26 3 -32 3l-156 -1q-28 -161 -41 -259q125 -1 288 -6
q90 -2 102 36q5 14 26 15q-23 -2 31 -2q15 0 16 -29q0 -21 -1 -42q0 -4 2 -20t2 -25q0 -34 -22 -32q-244 14 -488 15q-271 1 -491 -7q-44 -2 -52 -2q-115 0 -115 47q0 5 2 11q118 331 113 645v3q5 29 31 40q1 1 48 12h4q31 2 55 2q17 0 48 -1q205 -6 402 -6q298 0 581 15
q14 1 14 -13q0 -11 -9 -34l-14 -30q-8 -26 -17 -52q-11 -22 -42 -20zM1221 462h-6q-37 -55 -140 -55q-22 0 -88 -2q-55 -1 -87 0q-17 0 -14 17q15 82 48 247q4 16 21 16q154 2 311 7q106 4 118 -49h8l15 43q6 17 13 35q-272 -14 -558 -14q-197 0 -404 7q-29 1 -46 1
q-23 0 -52 -2q-12 -2 -25 -4q-18 -4 -20 -13q5 -318 -114 -653q0 -2 -1 -3q16 -19 137 -15q221 9 493 7q232 0 465 -13q-2 26 -2 78l-8 1q-29 -54 -137 -50q-172 5 -304 6q-16 0 -14 16q14 112 46 295q3 17 20 17h174q101 0 119 -56h5l2 1q9 59 25 135zM711 644q-1 2 -4 3
l-9 6q-80 0 -166 3q-23 -295 -101 -572l168 3q5 2 10 5l6 3q57 275 96 549zM647 84q-1 -8 -20.5 -19.5t-28.5 -11.5q-64 -1 -192 -4q-8 -1 -12.5 5t-1.5 14q84 293 106 604q2 20 22 19q95 -4 189 -4q10 0 25 -12t14 -20q-40 -285 -101 -571z" />
    <glyph glyph-name="oe" unicode="&#x153;" horiz-adv-x="1405" 
d="M751 -7q-44 -4 -86 -4q-50 0 -195 -4q-123 -2 -195 -1q-24 1 -50 3q-70 13 -70 40q0 8 4 18q85 199 70 397q-4 51 79 58q33 4 241 2q66 0 132 -2q6 1 37 0q285 -2 497 5q161 6 161 -44q0 -9 -4 -18q-50 -117 -65 -226q-3 -19 -21 -18h-396q-8 -44 -17 -118q89 0 266 -2
q48 3 51 4q33 7 35 30q2 15 16 17h23h19q14 0 16 -29q1 -20 1 -40q0 -3 3.5 -22t3.5 -29q0 -28 -21 -27q-267 9 -535 10zM1269 18q-6 39 -7 77l-6 1q-19 -50 -121 -52h-2q-27 -1 -71 0q-52 2 -70 2q-70 0 -142 1q-16 0 -14 16q11 96 22 154q3 17 20 17h207h189
q18 104 66 217q6 16 -87 21q-6 0 -43 -1q-213 -8 -498 -5q-29 0 -32 -1h-5q-215 6 -314 4q-27 -1 -56 -3q-42 -4 -41 -16q9 -104 -9.5 -207.5t-28.5 -103.5h-2q-12 0 -33 -104q4 -6 45 -14q40 -3 265 1q85 -1 254 5q259 0 514 -9zM1093 353q7 30 17 61q-60 -1 -179 -3
q-4 -16 -25 -123h85q44 0 87 1zM1127 351q-5 -30 -11 -61q-9 -35 -27 -35q-52 -1 -104 -1h-103q-18 0 -15 17q10 53 33 158q4 16 20 16q72 1 217 4q9 1 13 -5t1 -15q-15 -39 -24 -78zM666 410q-60 0 -180 2q-9 -174 -59 -336q60 1 180 2q37 166 59 332zM703 428
q-23 -184 -65 -368q-4 -16 -20 -16q-36 -1 -108.5 -2t-109.5 -1q-8 -1 -12 5t-2 15q58 176 65 367q1 20 21 19q36 0 108.5 -1t108.5 -2q16 0 14 -16z" />
    <glyph glyph-name="Scaron" unicode="&#x160;" 
d="M808 834q-184 -83 -195 -78q-109 55 -150 77q-83 45 -144 86q-8 6 -8 14q0 22 25 18q44 -4 131 -14l5 -1q55 -27 167 -76q65 26 196 77l5 1l71 6q34 3 69 8q20 3 20 -13q0 -12 -14 -19q-90 -46 -178 -86zM888 908l-48 -4l-112 -46q-92 -37 -102 -33q-12 5 -171 78
q-24 3 -48 5q57 -35 220 -117q140 59 261 117zM830 16q-17 -14 -65 -19q-63 -2 -179 1q-122 4 -178 3q-126 -2 -255 -18q-16 -2 -16 16q0 2 16 61.5l16 59.5q7 10 54 15q11 2 17.5 -17t30.5 -25q33 -8 102 -6l104 4q61 1 122 0q24 163 41 258q-63 1 -126 1q-19 0 -61.5 -2
t-64.5 -2q-88 0 -136 24q-24 11 -21 37l1 2q16 95 45 284l1 5q19 48 130 48q38 0 145 -2q91 -1 145 -1q121 2 243 12q15 2 15 -18q0 3 -12 -55q-3 -19 -6 -37q-8 -35 -27 -35q-65 0 -31 -2q-19 1 -20 14q0 37 -74 36q-85 -2 -142 -2h-125q-17 -109 -38 -218h183h29
q19 -1 28 -1q153 0 165 -59v-6q-6 -39 -39 -325l-1 -2q-2 -18 -16 -29zM810 41q1 1 1 3q7 127 39 324q-10 35 -135 35h-28q-19 1 -29 1h-201q-18 0 -14 17q24 126 44 253q3 18 21 17q72 -1 142 -1q6 0 66 3q48 1 77 0q42 -2 63 -11q31 -13 38 -38h7l8 39l8 36
q-222 -17 -466 -8q-29 1 -50 1q-18 0 -46 -5q-39 -6 -43 -15q-22 -159 -45 -282q0 -14 48 -22q36 -6 61 -6q64 2 144 2q72 0 144 -1q17 0 14 -17q-19 -108 -47 -293q-2 -18 -21 -17q-105 -3 -314 -2q-76 2 -89 45l-9 -1q-9 -36 -21 -78q164 19 538 11h53q16 1 42 10z" />
    <glyph glyph-name="scaron" unicode="&#x161;" 
d="M763 589q-184 -81 -194 -76q-195 97 -293 156q-9 5 -9 14q0 21 25 18q18 -2 131 -9l6 -1l86 -39q38 -18 81 -36q65 25 194 75l6 1q47 4 141 10q18 2 18 -13q0 -12 -15 -20q-89 -42 -177 -80zM845 661q-25 -2 -50 -3q-56 -23 -112 -45q-91 -36 -100 -32q-46 19 -88 38
l-83 39l-46 2q70 -39 217 -112q143 59 262 113zM821 15q-35 -28 -169 -21q-244 11 -506 -11q-15 -2 -15 15q0 3 17 60l18 60q9 13 53 13q9 0 15 -17q7 -20 36 -27q33 -8 100 -6q49 2 99 4q61 1 122 0l18 122q-83 -1 -251 -1q-171 3 -159 57q9 61 31 184l1 3q8 39 77 51h3
q54 10 124 10q34 0 108 -4q70 -3 107 -3q119 1 239 6q15 1 15 -18q0 6 -12 -55q-4 -22 -7 -43q-8 -30 -25 -30h-34q-9 0 -16 18.5t-29 25.5q-16 5 -63 8q-36 -1 -242 -1q-7 -40 -21 -119q8 0 58.5 1t84.5 1q205 0 244 -36q11 -11 14 -29v-4q-6 -61 -17 -181l-1 -3
q-1 -17 -17 -30zM802 41q1 2 1 3q2 64 17 181q-7 39 -285 36h-104q-18 0 -14 17q9 52 27 155q3 17 20 17q229 0 261 1q51 -3 71 -9q39 -12 48 -43h5q5 25 16 76q-232 -9 -459 -4q-48 0 -97 -4l-24 -6q-17 -5 -20 -14q-13 -102 -30 -181q8 -22 139 -25l151 1q54 1 108 -1
q14 0 14 -22q0 8 -12 -73q-4 -32 -7 -63q-7 -34 -26 -33q-87 2 -279 -2q-108 -3 -123 48h-6q-7 -29 -22 -77q253 20 488 9q119 -5 142 13z" />
    <glyph glyph-name="Ydieresis" unicode="&#x178;" 
d="M792 777q-96 0 -96 50q0 8 2 18q9 37 29 52q15 11 56 17q24 4 48 4q90 0 90 -52q0 -8 -3 -17q-19 -72 -126 -72zM885 857q0 14 -16 21q-46 17 -120 -6q-17 -5 -17 -38q0 -12 6 -14q23 -9 60 -9q23 0 42 6q45 12 45 40zM557 805q-32 -28 -100 -28q-86 0 -94 39
q-3 13 -3 24q0 42 37 62q31 17 80 15q112 -4 101 -73q-3 -23 -21 -39zM536 829q17 15 4 33q-15 21 -73 21q-37 0 -54 -9q-23 -11 -16 -45q4 -18 66 -18q53 0 73 18zM1025 702q-64 -10 -83 -42q-34 -164 -49 -256q-11 -68 -181 -67h-40q-12 -82 -34 -244q7 -31 61.5 -39.5
t54.5 -20.5q0 -11 -1 -19q-3 -18 -21 -17q-119 5 -239 5t-242 -5q-13 -1 -15 9q-1 8 3 21l1 1q5 17 27 21q19 2 37 4q64 11 76 38q13 65 48 245h-11q4 0 -29 1q-80 0 -100 4q-67 12 -64 54q31 176 43 265q-6 30 -63 40q-51 9 -47 33q5 28 22 26q166 -12 335 -12q17 0 14 -17
q-17 -116 -50 -305h171q26 152 56 304q3 17 21 17q170 1 343 12q7 1 12 -4t3 -13q-1 -6 -4 -17q-2 -14 -23 -18zM1056 734l9 -10q-165 -11 -328 -12q-30 -153 -57 -304q-3 -17 -20 -17h-206q-18 0 -15 17q34 191 52 305q-153 0 -320 12l22 20v-5q48 -9 69 -19q35 -17 40 -52
l1 -5q-12 -90 -44 -267q-1 -25 135 -26h58q15 0 15 -25q0 -20 -11 -63q-15 -61 -15 -62q-13 -67 -27 -133l-1 -3q-24 -61 -156 -72l8 6l-9 12q258 12 417 -10q-62 16 -71 62v5q4 32 38 265q2 18 21 18h58q133 0 139 33q15 93 50 261l2 5q32 56 140 70l14 1z" />
    <glyph glyph-name="florin" unicode="&#x192;" horiz-adv-x="787" 
d="M16 -178q-4 -1 -8 -1q-187 -4 -379 -15q-17 -1 -17 9q0 12 24 41q14 16 28.5 33.5t28.5 36.5q23 28 35 26q6 0 18 1t17 1q21 0 12.5 -19t3.5 -23q31 -11 79 -10q41 2 81 3l86 2q98 132 307 458l-99 1q-14 0 -14 11q0 12 14 35l18 30q7 12 39 13q22 -1 43 -2h53
q86 133 156 231l3 4q33 31 112 44q59 11 119 8q9 0 19 1l-11 -5q77 8 198 13q162 7 197 9q17 2 17 -9q0 -14 -54 -74q-20 -24 -39 -49q-17 -17 -44 -17q-8 0 -17 1q-14 1 -14 10q0 4 3.5 13t3.5 12q0 5 -6 6l-3 1q-29 11 -79 10q-40 -2 -82 -3.5t-86 -3.5q-47 -62 -141 -201
q60 0 181 1q15 1 15 -10q0 -12 -17 -37q-11 -15 -21 -31q-8 -12 -59 -14q30 1 -64 2h-92q-104 -163 -315 -487l-3 -3q-30 -31 -109 -44q-61 -11 -122 -8q-8 0 -16 -1zM-265 -83h-6q-21 -27 -38 -48l-23 -27q175 10 345 13q0 -3 -1 -6q1 3 4 7h-3q29 1 88 4q109 8 138 36
q106 165 319 494q7 10 18 10q178 0 196 1q6 10 13 19q-61 0 -182 -1q-16 -1 -16 12q0 6 5 13q53 80 166 237q8 10 55 12q29 0 59 -1l86 4q52 1 84 -11q31 -6 29 -40h4q22 26 65 76q-247 -14 -335 -9q-6 -5 -57 -8q-29 -2 -58 -3q-91 -8 -121 -35q-72 -101 -161 -238
q-6 -9 -17 -9q-130 0 -115 -1q-5 -7 -10 -16l-1 -2h101q15 0 15 -12q0 -6 -4 -12q-125 -196 -161 -250q-92 -140 -170 -245q-6 -8 -16 -8q-64 -1 -193 -5q-37 -2 -64 6q-39 12 -38 43z" />
    <glyph glyph-name="circumflex" unicode="&#x2c6;" 
d="M824 743h-4q-57 20 -170 72q-64 -25 -195 -71l-6 -1q-44 -1 -134 -2q-18 -1 -18 13q0 15 18 21q69 22 175 69q142 63 173 75q14 6 162 -76q71 -40 149 -68q12 -5 12 -15q0 -20 -24 -19q-46 0 -138 2zM417 777h35q18 7 198 73q9 4 50 -15l50 -24q41 -18 84 -34
q45 0 135 -2l-12 -34q-62 23 -149 68q-143 74 -144 75q-82 -37 -247 -107z" />
    <glyph glyph-name="breve" unicode="&#x2d8;" 
 />
    <glyph glyph-name="dotaccent" unicode="&#x2d9;" horiz-adv-x="2250" 
 />
    <glyph glyph-name="tilde" unicode="&#x2dc;" 
d="M933 743q-56 -59 -126 -59q-19 0 -82 8q-81 15 -249 34q-44 -2 -180 -37q-22 -6 -22 12q0 11 13 19q38 33 77 66q45 38 90 38q20 3 43 3q53 0 163.5 -20.5t161.5 -20.5q35 0 159 37q4 1 8 1q14 0 14 -13q0 -11 -12 -19q-32 -21 -58 -49zM909 765l3 3q-55 -16 -96 -16
q-52 0 -186 21q-123 21 -178 17h-3q-43 -4 -88 -49q72 18 121 20q51 -2 128 -14q104 -17 126 -20q55 -7 77 -7q38 0 54 11q25 16 42 34z" />
    <glyph glyph-name="endash" unicode="&#x2013;" horiz-adv-x="940" 
d="M53 317q-18 -1 -18 13q0 11 14 19q7 3 21 10l2 1q-2 7 -19 16q-10 6 -10 15q0 19 23 18h954q18 1 18 -13q0 -12 -16 -20q-9 -3 -26 -11q1 -3 2 -5q26 -18 26 -25q0 -19 -23 -18h-948zM962 352q-3 13 1 22h-857q2 -7 2 -12q0 -15 -15 -24.5t-30 -18.5l-4 32z" />
    <glyph glyph-name="emdash" unicode="&#x2014;" horiz-adv-x="1279" 
d="M53 317q-18 -1 -18 13q0 13 16 20q10 3 30 10q-3 5 -28 16q-11 4 -11 14q0 20 23 19h1294q18 1 18 -13t-17 -20q-13 -3 -36 -12q2 -5 26 -13q12 -5 12 -15q0 -20 -23 -19h-1286zM1289 352q-4 13 0 22h-1173q3 -8 3 -14q0 -16 -21 -27q-19 -7 -38 -15l-1 33z" />
    <glyph glyph-name="quoteleft" unicode="&#x2018;" horiz-adv-x="645" 
d="M449 622q5 -1 9 -1h2q6 1 27 3q17 1 27 1h11h6l2 -1q34 -8 34 -56q0 -27 -13 -48q-16 -23 -41 -27q-49 -7 -96 -7q-62 0 -84 4q-50 11 -50 48q0 7 2 15q21 95 115 150q62 36 183 66q22 5 22 -11q0 -10 -10 -18q-24 -17 -70 -52q-21 -15 -41 -30q-25 -19 -35 -36zM503 712
q-159 -49 -183 -161q-6 -28 68 -30q17 -1 35 -1q93 0 102 15t4 45q-2 8 -13 11h-8q-9 0 -27 -2t-27 -2q-42 -4 -42 30q-1 19 36 52q27 21 55 43z" />
    </font>
</defs>
</svg>
